<?xml version="1.0" encoding="UTF-8" standalone="no"?>
<!-- Created with Inkscape (http://www.inkscape.org/) -->

<svg
   xmlns:dc="http://purl.org/dc/elements/1.1/"
   xmlns:cc="http://creativecommons.org/ns#"
   xmlns:rdf="http://www.w3.org/1999/02/22-rdf-syntax-ns#"
   xmlns:svg="http://www.w3.org/2000/svg"
   xmlns="http://www.w3.org/2000/svg"
   xmlns:sodipodi="http://sodipodi.sourceforge.net/DTD/sodipodi-0.dtd"
   xmlns:inkscape="http://www.inkscape.org/namespaces/inkscape"
   width="1024"
   height="768"
   id="svg2"
   version="1.1"
   inkscape:version="0.48.4 r9939"
   sodipodi:docname="1.svg"
   enable-background="new">
  <defs
     id="defs4">
    <inkscape:path-effect
       effect="spiro"
       id="path-effect4024"
       is_visible="true" />
    <inkscape:path-effect
       effect="spiro"
       id="path-effect4001"
       is_visible="true" />
    <inkscape:path-effect
       is_visible="true"
       id="path-effect3995"
       effect="spiro" />
    <inkscape:path-effect
       effect="spiro"
       id="path-effect3989"
       is_visible="true" />
    <inkscape:path-effect
       is_visible="true"
       id="path-effect3983"
       effect="spiro" />
    <inkscape:path-effect
       is_visible="true"
       id="path-effect3979"
       effect="spiro" />
    <inkscape:path-effect
       is_visible="true"
       id="path-effect3975"
       effect="spiro" />
    <inkscape:path-effect
       effect="spiro"
       id="path-effect3971"
       is_visible="true" />
    <inkscape:path-effect
       is_visible="true"
       id="path-effect3965"
       effect="spiro" />
    <inkscape:path-effect
       effect="spiro"
       id="path-effect3961"
       is_visible="true" />
    <inkscape:path-effect
       is_visible="true"
       id="path-effect3957"
       effect="spiro" />
    <inkscape:path-effect
       is_visible="true"
       id="path-effect3953"
       effect="spiro" />
    <inkscape:path-effect
       effect="spiro"
       id="path-effect3951"
       is_visible="true" />
    <inkscape:path-effect
       effect="spiro"
       id="path-effect3923"
       is_visible="true" />
    <inkscape:path-effect
       is_visible="true"
       id="path-effect3917"
       effect="spiro" />
    <inkscape:path-effect
       effect="spiro"
       id="path-effect3914"
       is_visible="true" />
    <inkscape:path-effect
       effect="spiro"
       id="path-effect3911"
       is_visible="true" />
    <inkscape:path-effect
       is_visible="true"
       id="path-effect3908"
       effect="spiro" />
    <inkscape:path-effect
       effect="spiro"
       id="path-effect3905"
       is_visible="true" />
    <inkscape:path-effect
       is_visible="true"
       id="path-effect3903"
       effect="spiro" />
    <inkscape:path-effect
       is_visible="true"
       id="path-effect3873"
       effect="spiro" />
    <inkscape:path-effect
       is_visible="true"
       id="path-effect3871"
       effect="spiro" />
    <inkscape:path-effect
       effect="spiro"
       id="path-effect3869"
       is_visible="true" />
    <inkscape:path-effect
       effect="spiro"
       id="path-effect3867"
       is_visible="true" />
    <inkscape:path-effect
       effect="spiro"
       id="path-effect3865"
       is_visible="true" />
    <inkscape:path-effect
       is_visible="true"
       id="path-effect3863"
       effect="spiro" />
    <inkscape:path-effect
       effect="spiro"
       id="path-effect3848"
       is_visible="true" />
    <inkscape:path-effect
       effect="spiro"
       id="path-effect3846"
       is_visible="true" />
    <inkscape:path-effect
       is_visible="true"
       id="path-effect3844"
       effect="spiro" />
    <inkscape:path-effect
       effect="spiro"
       id="path-effect3836"
       is_visible="true" />
    <inkscape:path-effect
       is_visible="true"
       id="path-effect3834"
       effect="spiro" />
    <inkscape:path-effect
       is_visible="true"
       id="path-effect3828"
       effect="spiro" />
    <inkscape:path-effect
       effect="spiro"
       id="path-effect3824"
       is_visible="true" />
    <inkscape:path-effect
       is_visible="true"
       id="path-effect3815"
       effect="spiro" />
    <inkscape:path-effect
       is_visible="true"
       id="path-effect3813"
       effect="spiro" />
    <inkscape:path-effect
       is_visible="true"
       id="path-effect3811"
       effect="spiro" />
    <inkscape:path-effect
       effect="spiro"
       id="path-effect3803"
       is_visible="true" />
    <inkscape:path-effect
       effect="spiro"
       id="path-effect3801"
       is_visible="true" />
    <inkscape:path-effect
       effect="spiro"
       id="path-effect3799"
       is_visible="true" />
    <inkscape:path-effect
       is_visible="true"
       id="path-effect3791"
       effect="spiro" />
    <inkscape:path-effect
       is_visible="true"
       id="path-effect3789"
       effect="spiro" />
    <inkscape:path-effect
       is_visible="true"
       id="path-effect3787"
       effect="spiro" />
    <inkscape:path-effect
       effect="spiro"
       id="path-effect3779"
       is_visible="true" />
    <inkscape:path-effect
       effect="spiro"
       id="path-effect3775"
       is_visible="true" />
    <inkscape:path-effect
       effect="spiro"
       id="path-effect3771"
       is_visible="true" />
    <filter
       inkscape:collect="always"
       id="filter3937">
      <feBlend
         inkscape:collect="always"
         mode="lighten"
         in2="BackgroundImage"
         id="feBlend3939" />
    </filter>
  </defs>
  <sodipodi:namedview
     id="base"
     pagecolor="#ffffff"
     bordercolor="#666666"
     borderopacity="1.0"
     inkscape:pageopacity="0.0"
     inkscape:pageshadow="2"
     inkscape:zoom="0.72664456"
     inkscape:cx="603.40281"
     inkscape:cy="338.10643"
     inkscape:document-units="px"
     inkscape:current-layer="layer2"
     showgrid="false"
     width="1024px"
     inkscape:window-width="1438"
     inkscape:window-height="844"
     inkscape:window-x="0"
     inkscape:window-y="27"
     inkscape:window-maximized="0" />
  <metadata
     id="metadata7">
    <rdf:RDF>
      <cc:Work
         rdf:about="">
        <dc:format>image/svg+xml</dc:format>
        <dc:type
           rdf:resource="http://purl.org/dc/dcmitype/StillImage" />
        <dc:title />
      </cc:Work>
    </rdf:RDF>
  </metadata>
  <g
     inkscape:label="Calque 1"
     inkscape:groupmode="layer"
     id="layer1"
     transform="translate(0,-284.36218)"
     style="display:inline">
    <rect
       style="color:#000000;fill:#000000;fill-opacity:1;fill-rule:evenodd;stroke:none;stroke-width:6;marker:none;visibility:visible;display:inline;overflow:visible;enable-background:accumulate"
       id="rect3753"
       width="1024"
       height="768"
       x="0"
       y="284.36218" />
  </g>
  <g
     inkscape:groupmode="layer"
     id="layer2"
     inkscape:label="Calque"
     style="filter:url(#filter3937)">
    <rect
       style="color:#000000;fill:none;stroke:none;stroke-width:0.49999997000000002;stroke-miterlimit:4;stroke-opacity:1;stroke-dasharray:none;marker:none;visibility:visible;display:inline;overflow:visible;enable-background:accumulate"
       id="rect2995"
       width="484.34882"
       height="222.95422"
       x="371.59036"
       y="342.59311" />
    <path
       inkscape:original-d="m 427.92645,370.21696 c -1.20314,2.55456 0.6599,4.64101 -1.05274,6.161 -2.90638,2.57945 1.95509,2.85509 4.81254,3.30589 2.85744,0.45081 3.91019,-0.4508 5.11332,1.20215 1.20313,1.65295 0.75195,3.60643 0.30078,5.55992 -0.45118,1.95348 -1.65431,3.45617 -2.85744,4.80859 -1.20313,1.3524 -2.25588,3.45616 -0.1504,4.35776 2.10549,0.90161 3.15824,1.65296 4.81254,0.90161 1.65432,-0.75133 1.9551,-2.85509 1.9551,-2.85509 l 1.05274,4.80858 c 0,0 4.66216,-3.90697 5.7149,-4.95885 1.05274,-1.05188 7.97076,-0.75134 10.67782,-0.75134 2.70705,0 18.9525,6.76117 22.26112,9.466 3.30862,2.70483 -0.35623,-0.33747 1.04962,1.95439"
       inkscape:path-effect="#path-effect3787"
       sodipodi:nodetypes="csssssssccsssc"
       inkscape:connector-curvature="0"
       id="path3781"
       d="m 427.92645,370.21696 c -0.79629,0.77818 -1.33863,1.81218 -1.52616,2.90966 -0.18753,1.09749 -0.0193,2.2529 0.47342,3.25134 0.44765,0.90712 1.1552,1.6779 1.99727,2.23844 0.84206,0.56053 1.81546,0.91365 2.81527,1.06745 0.88152,0.13561 1.78004,0.11906 2.6648,0.23155 0.88477,0.11249 1.78674,0.37268 2.44852,0.9706 0.37032,0.33459 0.65046,0.76416 0.82928,1.23011 0.17882,0.46595 0.25787,0.96758 0.25459,1.46665 -0.007,0.99816 -0.33747,1.96997 -0.78309,2.86316 -0.83301,1.66968 -2.06754,3.11809 -2.85744,4.80859 -0.32089,0.68675 -0.56748,1.41743 -0.62718,2.1731 -0.0597,0.75566 0.0775,1.54034 0.47678,2.18466 0.47716,0.76995 1.31377,1.2928 2.20744,1.44067 0.89367,0.14787 1.83222,-0.0666 2.6051,-0.53906 1.01395,-0.61976 1.74385,-1.68566 1.9551,-2.85509 l 1.05274,4.80858 c 1.28826,-2.22231 3.33318,-3.99671 5.7149,-4.95885 3.34166,-1.34993 7.08909,-1.08301 10.67782,-0.75134 4.16407,0.38484 8.36589,0.83701 12.31789,2.20422 3.952,1.36722 7.68399,3.74278 9.94323,7.26178 0.39991,0.6229 0.75119,1.27699 1.04962,1.95439"
       style="fill:none;stroke:#ffffff;stroke-width:1.70000005;stroke-linecap:round;stroke-linejoin:round;stroke-miterlimit:4;stroke-opacity:1;stroke-dasharray:none" />
    <path
       sodipodi:nodetypes="cssssssccsssssssssc"
       inkscape:connector-curvature="0"
       inkscape:original-d="m 465.07324,443.84835 c -1.65431,-5.71019 -6.16606,-9.76742 -11.12899,-10.8193 -4.96294,-1.05188 -4.06058,1.20214 -7.97077,1.35241 -3.9102,0.15026 -7.97077,-1.80322 -7.21882,-5.10911 0.75196,-3.3059 1.80471,-6.76208 0.60157,-9.76744 -1.20314,-3.00536 -4.66216,-6.16099 -5.5645,-7.5134 -0.90235,-1.35242 5.16339,-5.77029 2.25588,-4.35778 -1.62302,0.78848 3.7598,3.15563 5.7149,3.60644 l 1.80469,-6.46154 c 0,0 0.75196,5.86046 3.30863,5.86046 2.55666,0 6.91802,1.95349 6.46685,-1.20215 -0.45118,-3.15562 -2.40806,-2.69902 -4.51355,-2.84928 -2.10548,-0.15027 -4.057,-3.76786 -2.2523,-5.42081 0.90235,-0.82648 0.0122,-1.53235 1.82737,-2.43045 1.81523,-0.8981 5.73256,-0.17986 5.38965,-0.56956 -2.62918,-2.98792 14.42378,0.29696 15.77731,0.44723 1.35352,0.15027 1.80917,-1.95973 4.8228,0.89893 1.42208,1.34896 0.75375,3.16188 1.35532,5.26563 0.60157,2.10376 5.71668,26.59746 6.61903,29.90336"
       inkscape:path-effect="#path-effect3789"
       id="path3783"
       d="m 465.07324,443.84835 c 0.0742,-2.90453 -1.1138,-5.81956 -3.19706,-7.84485 -2.08326,-2.02529 -5.03065,-3.13055 -7.93193,-2.97445 -2.69606,0.14506 -5.27105,1.31655 -7.97077,1.35241 -1.60049,0.0213 -3.22508,-0.37709 -4.55877,-1.26212 -1.33369,-0.88503 -2.35389,-2.27592 -2.66005,-3.84699 -0.31575,-1.62026 0.12104,-3.27948 0.49238,-4.88791 0.18566,-0.80422 0.35609,-1.61559 0.40836,-2.4393 0.0523,-0.82371 -0.017,-1.6646 -0.29917,-2.44023 -0.27038,-0.74314 -0.72838,-1.40609 -1.25238,-1.99836 -0.524,-0.59227 -1.11569,-1.12007 -1.69493,-1.65843 -0.57925,-0.53837 -1.15017,-1.0918 -1.62363,-1.7252 -0.47345,-0.63341 -0.84881,-1.35397 -0.99356,-2.13141 -0.16116,-0.86559 -0.0243,-1.78358 0.38096,-2.56524 0.40525,-0.78167 1.07609,-1.42228 1.87492,-1.79254 1.21305,-0.56225 2.70831,-0.46574 3.83901,0.2478 1.1307,0.71354 1.86134,2.0217 1.87589,3.35864 l 1.80469,-6.46154 c 0.51545,2.21485 1.6785,4.27492 3.30863,5.86046 0.53639,0.52172 1.12704,0.99626 1.79518,1.33314 0.66814,0.33688 1.41909,0.53176 2.16546,0.47865 0.74638,-0.0531 1.48556,-0.36848 1.98353,-0.92698 0.24899,-0.27926 0.43525,-0.61571 0.52955,-0.97776 0.0943,-0.36206 0.0954,-0.74932 -0.007,-1.1092 -0.12623,-0.44407 -0.40557,-0.83522 -0.75114,-1.14135 -0.34558,-0.30612 -0.75572,-0.53185 -1.18048,-0.71273 -0.84951,-0.36178 -1.77057,-0.55447 -2.58193,-0.9952 -0.93017,-0.50527 -1.68107,-1.33437 -2.08842,-2.3114 -0.40735,-0.97703 -0.46761,-2.09537 -0.16388,-3.10941 0.29728,-0.99249 0.94748,-1.88346 1.82737,-2.43045 0.78247,-0.48643 1.71322,-0.69105 2.63354,-0.73442 0.92032,-0.0434 1.84008,0.0661 2.75611,0.16486 5.23737,0.56493 10.52062,0.7885 15.77731,0.44723 0.83899,-0.0545 1.68319,-0.1232 2.51843,-0.0271 0.83525,0.0961 1.67298,0.37082 2.30437,0.926 0.70432,0.61932 1.09137,1.53508 1.25385,2.45878 0.16249,0.92369 0.12202,1.8692 0.10147,2.80685 -0.2259,10.30504 2.06532,20.65627 6.61903,29.90336"
       style="fill:none;stroke:#ffffff;stroke-width:1.70000005;stroke-linecap:round;stroke-linejoin:round;stroke-miterlimit:4;stroke-opacity:1;stroke-dasharray:none" />
    <path
       inkscape:connector-curvature="0"
       inkscape:original-d="m 449.92594,402.62087 21.46733,0 c 0,0 0.45252,20.00529 0,17.44315"
       inkscape:path-effect="#path-effect3791"
       id="path3785"
       d="m 449.92594,402.62087 21.46733,0 0,17.44315"
       style="fill:none;stroke:#ffffff;stroke-width:4.25;stroke-linecap:butt;stroke-linejoin:miter;stroke-miterlimit:4;stroke-opacity:1;stroke-dasharray:none"
       sodipodi:nodetypes="ccc" />
    <path
       style="fill:none;stroke:#ffffff;stroke-width:1.70000005;stroke-linecap:round;stroke-linejoin:round;stroke-miterlimit:4;stroke-opacity:1;stroke-dasharray:none"
       d="m 502.5379,370.21696 c -0.79629,0.77818 -1.33864,1.81217 -1.52617,2.90966 -0.18753,1.09749 -0.0193,2.2529 0.47342,3.25134 0.44765,0.90713 1.1552,1.67791 1.99727,2.23844 0.84206,0.56053 1.81547,0.91365 2.81528,1.06745 0.88152,0.1356 1.78004,0.11906 2.6648,0.23155 0.88477,0.11249 1.78674,0.37268 2.44852,0.9706 0.37032,0.33459 0.65046,0.76416 0.82928,1.23011 0.17883,0.46595 0.25787,0.96758 0.2546,1.46665 -0.007,0.99816 -0.33748,1.96997 -0.7831,2.86316 -0.83302,1.66968 -2.06755,3.11808 -2.85745,4.80859 -0.32089,0.68675 -0.56748,1.41743 -0.62718,2.1731 -0.0597,0.75566 0.0775,1.54034 0.47679,2.18466 0.47716,0.76995 1.31378,1.2928 2.20744,1.44067 0.89367,0.14787 1.83222,-0.0666 2.6051,-0.53906 1.01395,-0.61976 1.74386,-1.68566 1.9551,-2.85509 l 1.05274,4.80858 c 1.28826,-2.22231 3.33318,-3.99671 5.7149,-4.95885 3.34166,-1.34993 7.08909,-1.08301 10.67782,-0.75134 4.16407,0.38484 8.36589,0.83701 12.31789,2.20422 3.952,1.36722 7.68399,3.74278 9.94323,7.26178 0.39991,0.6229 0.75119,1.27699 1.04962,1.95439"
       id="path3793"
       inkscape:connector-curvature="0"
       sodipodi:nodetypes="csssssssccsssc"
       inkscape:path-effect="#path-effect3799"
       inkscape:original-d="m 502.5379,370.21696 c -1.20314,2.55456 0.6599,4.64101 -1.05275,6.161 -2.90637,2.57945 1.9551,2.85509 4.81255,3.30589 2.85744,0.45081 3.91018,-0.4508 5.11332,1.20215 1.20313,1.65295 0.75195,3.60643 0.30078,5.55992 -0.45118,1.95348 -1.65431,3.45617 -2.85745,4.80859 -1.20312,1.3524 -2.25587,3.45616 -0.15039,4.35776 2.10549,0.90161 3.15824,1.65296 4.81254,0.90161 1.65432,-0.75133 1.9551,-2.85509 1.9551,-2.85509 l 1.05274,4.80858 c 0,0 4.66216,-3.90697 5.7149,-4.95885 1.05274,-1.05188 7.97076,-0.75134 10.67782,-0.75134 2.70705,0 18.9525,6.76117 22.26112,9.466 3.30862,2.70483 -0.35623,-0.33747 1.04962,1.95439" />
    <path
       style="fill:none;stroke:#ffffff;stroke-width:1.70000005;stroke-linecap:round;stroke-linejoin:round;stroke-miterlimit:4;stroke-opacity:1;stroke-dasharray:none"
       d="m 539.68469,443.84835 c 0.0742,-2.90453 -1.1138,-5.81956 -3.19706,-7.84485 -2.08326,-2.02529 -5.03065,-3.13055 -7.93193,-2.97445 -2.69606,0.14506 -5.27105,1.31655 -7.97077,1.35241 -1.60049,0.0213 -3.22508,-0.37709 -4.55877,-1.26212 -1.33369,-0.88503 -2.35389,-2.27592 -2.66005,-3.84699 -0.31575,-1.62026 0.12104,-3.27948 0.49238,-4.88791 0.18566,-0.80422 0.35609,-1.61559 0.40836,-2.4393 0.0523,-0.82371 -0.017,-1.6646 -0.29917,-2.44023 -0.27038,-0.74314 -0.72838,-1.40609 -1.25238,-1.99836 -0.524,-0.59227 -1.11569,-1.12007 -1.69493,-1.65843 -0.57925,-0.53837 -1.15017,-1.0918 -1.62363,-1.7252 -0.47345,-0.63341 -0.84881,-1.35397 -0.99356,-2.13141 -0.16116,-0.86559 -0.0243,-1.78358 0.38096,-2.56524 0.40525,-0.78167 1.07609,-1.42228 1.87492,-1.79254 1.21305,-0.56225 2.70831,-0.46574 3.83901,0.2478 1.1307,0.71354 1.86133,2.0217 1.87588,3.35864 l 1.8047,-6.46154 c 0.14428,2.31699 1.3993,4.53996 3.30863,5.86046 0.7314,0.50584 1.59143,0.89193 2.47941,0.84391 0.44399,-0.024 0.88585,-0.16014 1.24817,-0.41787 0.36232,-0.25774 0.64051,-0.6406 0.74262,-1.07335 0.0777,-0.32946 0.053,-0.67852 -0.0422,-1.00336 -0.0952,-0.32483 -0.25902,-0.62668 -0.4555,-0.90234 -0.39296,-0.55131 -0.91228,-0.99793 -1.36821,-1.49842 -1.05873,-1.16219 -1.77507,-2.63359 -2.0314,-4.18468 -0.25634,-1.5511 -0.051,-3.17631 0.58808,-4.61269 0.50043,-1.12475 1.28216,-2.14896 2.33315,-2.78998 0.5255,-0.32051 1.11381,-0.54176 1.72363,-0.62537 0.60982,-0.0836 1.24086,-0.0278 1.8195,0.18208 0.6806,0.24684 1.27347,0.69928 1.76168,1.23387 0.48822,0.5346 0.87813,1.15104 1.23557,1.78063 0.71487,1.25918 1.33681,2.61927 2.42085,3.57919 1.19281,1.05623 2.81004,1.49933 4.39177,1.6905 1.91683,0.23167 3.86121,0.14162 5.7791,0.36436 1.91788,0.22274 3.88013,0.80569 5.26522,2.15084 0.94423,0.917 1.55686,2.13063 1.94852,3.38723 0.39167,1.25661 0.57682,2.5665 0.77551,3.86764 1.13816,7.45344 2.76855,14.83168 4.87702,22.07071"
       id="path3795"
       inkscape:path-effect="#path-effect3801"
       inkscape:original-d="m 539.68469,443.84835 c -1.65431,-5.71019 -6.16606,-9.76742 -11.12899,-10.8193 -4.96294,-1.05188 -4.06058,1.20214 -7.97077,1.35241 -3.9102,0.15026 -7.97077,-1.80322 -7.21882,-5.10911 0.75196,-3.3059 1.80471,-6.76208 0.60157,-9.76744 -1.20314,-3.00536 -4.66216,-6.16099 -5.5645,-7.5134 -0.90235,-1.35242 5.16339,-5.77029 2.25588,-4.35778 -1.62302,0.78848 3.7598,3.15563 5.71489,3.60644 l 1.8047,-6.46154 c 0,0 0.75196,5.86046 3.30863,5.86046 2.55666,0 4.92137,2.50833 4.4702,-0.64731 -0.45118,-3.15563 0.23957,-3.25386 -1.86592,-3.40412 -2.10548,-0.15027 -3.24801,-7.14441 -1.44332,-8.79737 0.90235,-0.82647 4.06109,-2.33517 5.87628,-3.23327 1.81524,-0.8981 6.00987,8.47532 5.4181,6.59369 -1.1937,-3.79557 3.03824,1.54024 4.39177,1.6905 1.35352,0.15027 8.03068,-0.34346 11.04432,2.5152 1.42208,1.34897 2.12247,5.15113 2.72403,7.25487 0.60157,2.10376 3.97466,18.76481 4.87702,22.07071"
       inkscape:connector-curvature="0"
       sodipodi:nodetypes="cssssssccsssssssssc" />
    <path
       sodipodi:nodetypes="ccc"
       style="fill:none;stroke:#ffffff;stroke-width:4.25;stroke-linecap:butt;stroke-linejoin:miter;stroke-miterlimit:4;stroke-opacity:1;stroke-dasharray:none"
       d="m 548.58196,414.59073 -21.46733,0 0,-17.44315"
       id="path3797"
       inkscape:path-effect="#path-effect3803"
       inkscape:original-d="m 548.58196,414.59073 -21.46733,0 c 0,0 -0.45252,-20.00528 0,-17.44315"
       inkscape:connector-curvature="0" />
    <path
       inkscape:original-d="m 579.30478,370.21696 c -1.20313,2.55456 0.6599,4.64101 -1.05274,6.161 -2.90638,2.57945 1.9551,2.85509 4.81254,3.30589 2.85744,0.45081 3.91019,-0.4508 5.11333,1.20215 1.20312,1.65295 0.75195,3.60643 0.30077,5.55992 -0.45118,1.95348 -1.6543,3.45617 -2.85744,4.80859 -1.20313,1.3524 -2.25588,3.45616 -0.15039,4.35776 2.10549,0.90161 3.15823,1.65296 4.81254,0.90161 1.65431,-0.75133 1.9551,-2.85509 1.9551,-2.85509 l 1.05273,4.80858 c 0,0 4.66216,-3.90697 5.71491,-4.95885 1.05273,-1.05188 7.97075,-0.75134 10.67781,-0.75134 2.70705,0 18.95251,6.76117 22.26113,9.466 3.30862,2.70483 -0.35623,-0.33747 1.04961,1.95439"
       inkscape:path-effect="#path-effect3811"
       sodipodi:nodetypes="csssssssccsssc"
       inkscape:connector-curvature="0"
       id="path3805"
       d="m 579.30478,370.21696 c -0.79629,0.77818 -1.33863,1.81218 -1.52616,2.90966 -0.18753,1.09749 -0.0193,2.2529 0.47342,3.25134 0.44765,0.90713 1.1552,1.6779 1.99726,2.23844 0.84207,0.56053 1.81547,0.91365 2.81528,1.06745 0.88152,0.1356 1.78004,0.11906 2.66481,0.23155 0.88477,0.11249 1.78674,0.37268 2.44852,0.9706 0.37032,0.33459 0.65046,0.76416 0.82928,1.23011 0.17882,0.46595 0.25786,0.96758 0.25459,1.46665 -0.007,0.99816 -0.33748,1.96998 -0.7831,2.86316 -0.83302,1.66968 -2.06754,3.11808 -2.85744,4.80859 -0.32089,0.68675 -0.56747,1.41743 -0.62718,2.1731 -0.0597,0.75566 0.0775,1.54034 0.47679,2.18466 0.47716,0.76995 1.31378,1.2928 2.20744,1.44067 0.89367,0.14787 1.83222,-0.0666 2.6051,-0.53906 1.01395,-0.61976 1.74386,-1.68566 1.9551,-2.85509 l 1.05273,4.80858 c 1.28826,-2.22231 3.33319,-3.99671 5.71491,-4.95885 3.34166,-1.34993 7.08908,-1.08301 10.67781,-0.75134 4.16407,0.38484 8.3659,0.837 12.3179,2.20421 3.952,1.36721 7.684,3.74277 9.94323,7.26179 0.3999,0.6229 0.75119,1.27699 1.04961,1.95439"
       style="fill:none;stroke:#ffffff;stroke-width:1.70000005;stroke-linecap:round;stroke-linejoin:round;stroke-miterlimit:4;stroke-opacity:1;stroke-dasharray:none" />
    <path
       sodipodi:nodetypes="cssssssccsssssssssc"
       inkscape:connector-curvature="0"
       inkscape:original-d="m 616.45157,443.84835 c -1.65431,-5.71019 -6.16606,-9.76742 -11.12899,-10.8193 -4.96293,-1.05188 -4.06058,1.20214 -7.97077,1.35241 -3.9102,0.15026 -7.97077,-1.80322 -7.21882,-5.10911 0.75197,-3.3059 1.80471,-6.76208 0.60157,-9.76744 -1.20313,-3.00536 -4.66215,-6.16099 -5.5645,-7.5134 -0.90234,-1.35242 5.16339,-5.77029 2.25588,-4.35778 -1.62302,0.78848 3.7598,3.15563 5.7149,3.60644 l 2.05769,-6.04022 c 0,0 0.49897,5.43914 3.05563,5.43914 2.55666,0 3.79884,1.2973 2.52717,-1.62618 -1.31039,-3.01255 0.95881,-2.56116 -1.14668,-2.71143 -2.10549,-0.15026 -6.16752,-2.89058 -4.36282,-4.54353 0.90235,-0.82648 -1.86407,-2.80469 -0.0489,-3.70279 1.81523,-0.8981 3.27774,1.54312 2.68597,-0.33852 -1.19371,-3.79556 15.83882,4.97431 17.19235,5.12457 1.35352,0.15027 8.03069,-0.34346 11.04432,2.5152 1.42208,1.34897 2.12247,5.15113 2.72404,7.25487 0.60157,2.10376 3.97466,18.76481 4.87701,22.07071"
       inkscape:path-effect="#path-effect3813"
       id="path3807"
       d="m 616.45157,443.84835 c 0.0742,-2.90453 -1.1138,-5.81956 -3.19706,-7.84485 -2.08326,-2.02529 -5.03065,-3.13055 -7.93193,-2.97445 -2.69606,0.14506 -5.27105,1.31655 -7.97077,1.35241 -1.60049,0.0213 -3.22508,-0.37709 -4.55877,-1.26212 -1.33369,-0.88503 -2.35389,-2.27592 -2.66005,-3.84699 -0.31575,-1.62026 0.12104,-3.27948 0.49238,-4.88791 0.18566,-0.80422 0.35609,-1.61559 0.40836,-2.4393 0.0523,-0.82371 -0.017,-1.6646 -0.29917,-2.44023 -0.27038,-0.74314 -0.72838,-1.40609 -1.25238,-1.99836 -0.524,-0.59227 -1.11569,-1.12007 -1.69493,-1.65843 -0.57925,-0.53837 -1.15017,-1.0918 -1.62363,-1.7252 -0.47345,-0.63341 -0.84881,-1.35397 -0.99356,-2.13141 -0.16116,-0.86559 -0.0243,-1.78358 0.38096,-2.56524 0.40525,-0.78167 1.07609,-1.42228 1.87492,-1.79254 1.21305,-0.56225 2.70831,-0.46574 3.83901,0.2478 1.1307,0.71354 1.86134,2.0217 1.87589,3.35864 l 2.05769,-6.04022 c -0.30525,0.5433 -0.46814,1.16577 -0.46816,1.78895 -10e-6,0.62318 0.16286,1.24565 0.46809,1.78897 0.30522,0.54331 0.75211,1.00623 1.28433,1.3304 0.53223,0.32418 1.14858,0.50888 1.77137,0.53082 0.54312,0.0191 1.09863,-0.0882 1.56652,-0.36464 0.46788,-0.27646 0.84035,-0.73157 0.96065,-1.26154 0.11329,-0.49907 -4.5e-4,-1.0298 -0.22907,-1.48766 -0.22862,-0.45787 -0.56563,-0.85226 -0.91761,-1.22377 -1.44759,-1.52791 -3.22161,-2.77501 -4.36282,-4.54353 -0.36653,-0.56801 -0.66617,-1.19904 -0.72429,-1.87254 -0.0291,-0.33675 0.004,-0.6807 0.11483,-0.99998 0.11095,-0.31927 0.30156,-0.6131 0.56056,-0.83027 0.3579,-0.30009 0.82874,-0.44083 1.29487,-0.47039 0.46612,-0.0295 0.93231,0.0444 1.3911,0.13187 5.88792,1.12324 11.23036,4.50494 17.19235,5.12457 1.92214,0.19977 3.86722,0.10561 5.78609,0.33469 1.91886,0.22908 3.87758,0.82835 5.25823,2.18051 0.94003,0.92064 1.55086,2.13373 1.94311,3.38966 0.39226,1.25594 0.58002,2.56487 0.78093,3.86521 1.15122,7.45114 2.78136,14.82826 4.87701,22.07071"
       style="fill:none;stroke:#ffffff;stroke-width:1.70000005;stroke-linecap:round;stroke-linejoin:round;stroke-miterlimit:4;stroke-opacity:1;stroke-dasharray:none" />
    <path
       style="color:#000000;fill:none;stroke:#ffffff;stroke-width:4.25;stroke-linecap:butt;stroke-linejoin:miter;stroke-miterlimit:4;stroke-opacity:1;stroke-dashoffset:0;marker:none;visibility:visible;display:inline;overflow:visible;enable-background:accumulate"
       d="m 590.20335,413.6313 8.08716,-10.94223 8.08716,10.94222"
       id="rect3817"
       inkscape:connector-curvature="0"
       sodipodi:nodetypes="ccc" />
    <path
       style="fill:none;stroke:#ffffff;stroke-width:1.70000005;stroke-linecap:round;stroke-linejoin:round;stroke-miterlimit:4;stroke-opacity:1;stroke-dasharray:none"
       d="m 657.05768,408.15837 c 4.50293,0.4706 9.12556,-0.25672 13.26642,-2.08733 2.27174,-1.0043 4.39689,-2.33346 6.31734,-3.90867 1.52739,-1.25281 2.92681,-2.66156 4.16945,-4.19724 0.53616,0.16246 1.08639,0.27846 1.6425,0.3463 1.59021,0.19398 3.19918,-0.007 4.80118,-0.007 1.602,0 3.21097,0.20098 4.80118,0.007 0.55611,-0.0678 1.10634,-0.18384 1.6425,-0.3463 1.24264,1.53568 2.64206,2.94443 4.16945,4.19724 1.92045,1.57521 4.0456,2.90437 6.31734,3.90867 4.14086,1.83061 8.76349,2.55793 13.26642,2.08733"
       id="path3853"
       inkscape:path-effect="#path-effect3865"
       inkscape:original-d="m 657.05768,408.15837 c 4.92753,-0.88658 10.4868,-0.20334 13.26642,-2.08733 2.77963,-1.88399 3.53772,-3.79785 6.31734,-3.90867 2.77963,-0.11082 4.16945,-4.19724 4.16945,-4.19724 0,0 -1.26347,-0.15867 1.6425,0.3463 2.90598,0.50497 0.91882,-0.007 4.80118,-0.007 3.88236,0 1.8952,0.51232 4.80118,0.007 2.90597,-0.50497 1.6425,-0.3463 1.6425,-0.3463 -0.76689,1.1494 1.38982,4.08642 4.16945,4.19724 2.77962,0.11082 3.53771,2.02468 6.31734,3.90867 2.77962,1.88399 8.33889,1.20075 13.26642,2.08733"
       inkscape:connector-curvature="0"
       sodipodi:nodetypes="csscssscssc" />
    <g
       id="g3877"
       transform="matrix(0.92937959,0,0,0.92861497,69.608453,-45.987244)">
      <path
         style="fill:none;stroke:#ffffff;stroke-width:1.82993019;stroke-linecap:round;stroke-linejoin:round;stroke-miterlimit:4;stroke-opacity:1;stroke-dasharray:none"
         d="m 632.08751,489.05696 c 1.26116,-0.99286 2.44422,-2.08491 3.53464,-3.26274 3.29119,-3.55502 5.6903,-7.83083 8.65514,-11.66225 1.48242,-1.91571 3.11704,-3.73007 5.01987,-5.22899 1.90283,-1.49891 4.08639,-2.67809 6.44521,-3.22898 2.93755,-0.68605 6.10194,-0.35838 8.83659,0.91501"
         id="path3851"
         inkscape:path-effect="#path-effect3863"
         inkscape:original-d="m 632.08751,489.05696 c 5.30195,-2.17516 0.5438,1.35947 3.53464,-3.26274 2.99084,-4.62221 17.12938,-19.84832 20.12022,-20.12022 2.99084,-0.27189 8.83659,0.91501 8.83659,0.91501"
         inkscape:connector-curvature="0"
         sodipodi:nodetypes="cssc" />
      <path
         sodipodi:nodetypes="cssc"
         inkscape:connector-curvature="0"
         inkscape:original-d="m 697.0704,489.05696 c -5.30195,-2.17516 -0.5438,1.35947 -3.53464,-3.26274 -2.99084,-4.62221 -17.12938,-19.84832 -20.12022,-20.12022 -2.99084,-0.27189 -8.83659,0.91501 -8.83659,0.91501"
         inkscape:path-effect="#path-effect3867"
         id="path3855"
         d="m 697.0704,489.05696 c -1.26116,-0.99286 -2.44422,-2.08491 -3.53464,-3.26274 -3.29119,-3.55502 -5.6903,-7.83083 -8.65514,-11.66225 -1.48242,-1.91571 -3.11704,-3.73007 -5.01987,-5.22899 -1.90283,-1.49891 -4.08639,-2.67809 -6.44521,-3.22898 -2.93755,-0.68605 -6.10194,-0.35838 -8.83659,0.91501"
         style="fill:none;stroke:#ffffff;stroke-width:1.82993019;stroke-linecap:round;stroke-linejoin:round;stroke-miterlimit:4;stroke-opacity:1;stroke-dasharray:none" />
    </g>
    <path
       sodipodi:nodetypes="csscssscssc"
       inkscape:connector-curvature="0"
       inkscape:original-d="m 657.05768,408.5117 c 4.92753,0.77547 10.4868,0.17785 13.26642,1.82573 2.77963,1.64788 3.53772,3.32189 6.31734,3.41882 2.77963,0.0969 4.16945,3.47949 4.16945,3.47949 0,0 -1.26347,0.33051 1.6425,-0.11117 2.90598,-0.44169 0.91882,0.0865 4.80118,0.0865 3.88236,0 1.8952,-0.52814 4.80118,-0.0865 2.90597,0.44168 1.6425,0.11117 1.6425,0.11117 0,0 1.38982,-3.38256 4.16945,-3.47949 2.77962,-0.0969 3.53771,-1.77094 6.31734,-3.41882 2.77962,-1.64788 8.33889,-1.05026 13.26642,-1.82573"
       inkscape:path-effect="#path-effect3871"
       id="path3859"
       d="m 657.05768,408.5117 c 4.48317,-0.45521 9.07287,0.17643 13.26642,1.82573 2.23347,0.87841 4.3529,2.04006 6.31734,3.41882 1.48339,1.04114 2.87967,2.20636 4.16945,3.47949 0.5458,-0.0581 1.09384,-0.0952 1.6425,-0.11117 1.6002,-0.0466 3.2003,0.0865 4.80118,0.0865 1.60088,0 3.20098,-0.13308 4.80118,-0.0865 0.54866,0.016 1.0967,0.0531 1.6425,0.11117 1.28978,-1.27313 2.68606,-2.43835 4.16945,-3.47949 1.96444,-1.37876 4.08387,-2.54041 6.31734,-3.41882 4.19355,-1.6493 8.78325,-2.28094 13.26642,-1.82573"
       style="fill:none;stroke:#ffffff;stroke-width:1.70000005;stroke-linecap:round;stroke-linejoin:round;stroke-miterlimit:4;stroke-opacity:1;stroke-dasharray:none" />
    <g
       id="g3881"
       transform="matrix(0.92937959,0,0,0.92861497,69.608453,-45.987244)">
      <path
         sodipodi:nodetypes="cssc"
         inkscape:connector-curvature="0"
         inkscape:original-d="m 632.08751,489.43745 c 5.30195,1.90255 0.5438,-1.1891 3.53464,2.85383 2.99084,4.04293 17.12938,17.36082 20.12022,17.59865 2.99084,0.23781 8.83659,-0.80034 8.83659,-0.80034"
         inkscape:path-effect="#path-effect3869"
         id="path3857"
         d="m 632.08751,489.43745 c 1.24401,0.8657 2.42621,1.8202 3.53464,2.85383 3.31332,3.08973 5.92722,6.8435 8.9772,10.19344 3.04998,3.34995 6.72718,6.39282 11.14302,7.40521 2.93124,0.67203 6.07379,0.3874 8.83659,-0.80034"
         style="fill:none;stroke:#ffffff;stroke-width:1.82993019;stroke-linecap:round;stroke-linejoin:round;stroke-miterlimit:4;stroke-opacity:1;stroke-dasharray:none" />
      <path
         style="fill:none;stroke:#ffffff;stroke-width:1.82993019;stroke-linecap:round;stroke-linejoin:round;stroke-miterlimit:4;stroke-opacity:1;stroke-dasharray:none"
         d="m 697.0704,489.43745 c -1.24401,0.8657 -2.42621,1.8202 -3.53464,2.85383 -3.31332,3.08973 -5.92722,6.8435 -8.9772,10.19344 -3.04998,3.34995 -6.72718,6.39282 -11.14302,7.40521 -2.93124,0.67203 -6.07379,0.3874 -8.83659,-0.80034"
         id="path3861"
         inkscape:path-effect="#path-effect3873"
         inkscape:original-d="m 697.0704,489.43745 c -5.30195,1.90255 -0.5438,-1.1891 -3.53464,2.85383 -2.99084,4.04293 -17.12938,17.36082 -20.12022,17.59865 -2.99084,0.23781 -8.83659,-0.80034 -8.83659,-0.80034"
         inkscape:connector-curvature="0"
         sodipodi:nodetypes="cssc" />
    </g>
    <rect
       style="color:#000000;fill:none;stroke:#ffffff;stroke-width:4.25;stroke-linecap:round;stroke-linejoin:round;stroke-miterlimit:4;stroke-opacity:1;stroke-dasharray:none;stroke-dashoffset:0;marker:none;visibility:visible;display:inline;overflow:visible;enable-background:accumulate"
       id="rect3875"
       width="13.720614"
       height="13.709327"
       x="680.39423"
       y="400.67618" />
    <path
       sodipodi:nodetypes="csscssscssc"
       inkscape:connector-curvature="0"
       inkscape:original-d="m 734.24609,408.02988 c 4.92752,-1.82502 6.76927,-0.41857 9.5489,-4.29673 2.77963,-3.87816 3.53771,-7.81779 6.31734,-8.04591 2.77962,-0.22812 7.88696,-9.69149 7.88696,-9.69149 0,0 -1.26347,0.0853 1.6425,1.12472 2.90599,1.03947 0.91883,1.29933 4.80118,1.29933 3.88236,0 1.8952,-0.25986 4.80118,-1.29933 2.90598,-1.03947 1.64251,-1.12472 1.64251,-1.12472 0,0 5.10734,9.46337 7.88696,9.69149 2.77963,0.22812 3.53771,4.16775 6.31734,8.04591 2.77962,3.87816 4.62138,2.47171 9.5489,4.29673"
       inkscape:path-effect="#path-effect3903"
       id="path3885"
       d="m 734.24609,408.02988 c 3.52127,-0.41321 6.90421,-1.93543 9.5489,-4.29673 2.55027,-2.27699 4.36371,-5.24022 6.31734,-8.04591 2.38225,-3.42126 5.02106,-6.66382 7.88696,-9.69149 0.51218,0.42329 1.06266,0.80023 1.6425,1.12472 1.46265,0.81851 3.12508,1.29933 4.80118,1.29933 1.6761,0 3.33853,-0.48082 4.80118,-1.29933 0.57985,-0.32449 1.13032,-0.70143 1.64251,-1.12472 2.8659,3.02767 5.50471,6.27023 7.88696,9.69149 1.95363,2.80569 3.76707,5.76892 6.31734,8.04591 2.64469,2.3613 6.02763,3.88352 9.5489,4.29673"
       style="fill:none;stroke:#ffffff;stroke-width:1.90676808;stroke-linecap:round;stroke-linejoin:round;stroke-miterlimit:4;stroke-opacity:1;stroke-dasharray:none" />
    <path
       style="fill:none;stroke:#ffffff;stroke-width:1.79460537;stroke-linecap:round;stroke-linejoin:round;stroke-miterlimit:4;stroke-opacity:1;stroke-dasharray:none"
       d="m 734.24609,407.74807 c 1.2485,-1.4173 2.35119,-2.96298 3.28502,-4.60477 2.92446,-5.14153 4.1237,-11.06974 6.47697,-16.49652 1.17663,-2.71339 2.66194,-5.3263 4.69017,-7.4788 2.02823,-2.15249 4.63454,-3.82855 7.53218,-4.42071 2.77376,-0.56684 5.74661,-0.0994 8.21255,1.29137"
       id="path3889"
       inkscape:path-effect="#path-effect3911"
       inkscape:original-d="m 734.24609,407.74807 c 4.92752,-3.06984 0.5054,1.91864 3.28502,-4.60477 2.77963,-6.52341 15.9197,-28.0123 18.69932,-28.39603 2.77963,-0.38373 8.21255,1.29137 8.21255,1.29137"
       inkscape:connector-curvature="0"
       sodipodi:nodetypes="cssc" />
    <path
       sodipodi:nodetypes="cssc"
       inkscape:connector-curvature="0"
       inkscape:original-d="m 794.63986,407.74807 c -4.92752,-3.06984 -0.5054,1.91864 -3.28502,-4.60477 -2.77963,-6.52341 -15.9197,-28.0123 -18.69932,-28.39603 -2.77963,-0.38373 -8.21255,1.29137 -8.21255,1.29137"
       inkscape:path-effect="#path-effect3908"
       id="path3891"
       d="m 794.63986,407.74807 c -1.2485,-1.4173 -2.35119,-2.96298 -3.28502,-4.60477 -2.92446,-5.14153 -4.1237,-11.06974 -6.47697,-16.49652 -1.17663,-2.71339 -2.66194,-5.3263 -4.69017,-7.4788 -2.02823,-2.15249 -4.63454,-3.82855 -7.53218,-4.42071 -2.77376,-0.56684 -5.74661,-0.0994 -8.21255,1.29137"
       style="fill:none;stroke:#ffffff;stroke-width:1.79460537;stroke-linecap:round;stroke-linejoin:round;stroke-miterlimit:4;stroke-opacity:1;stroke-dasharray:none" />
    <path
       style="fill:none;stroke:#ffffff;stroke-width:1.90676808;stroke-linecap:round;stroke-linejoin:round;stroke-miterlimit:4;stroke-opacity:1;stroke-dasharray:none"
       d="m 734.24609,408.61082 c 3.41207,0.24334 6.75175,1.43334 9.5489,3.40245 3.16942,2.23118 5.56506,5.36395 8.1761,8.22854 1.88238,2.06517 3.89729,4.00954 6.0282,5.81717 0.54479,-0.20654 1.09236,-0.40576 1.6425,-0.59758 1.55304,-0.54151 3.15644,-1.02888 4.80118,-1.02888 1.64474,0 3.24814,0.48737 4.80118,1.02888 0.55015,0.19182 1.09772,0.39104 1.64251,0.59758 2.13091,-1.80763 4.14582,-3.752 6.0282,-5.81717 2.61104,-2.86459 5.00668,-5.99736 8.1761,-8.22854 2.79715,-1.96911 6.13683,-3.15911 9.5489,-3.40245"
       id="path3893"
       inkscape:path-effect="#path-effect3905"
       inkscape:original-d="m 734.24609,408.61082 c 4.92752,1.44517 6.76927,0.33144 9.5489,3.40245 2.77963,3.07099 5.39647,8.0479 8.1761,8.22854 2.77962,0.18063 6.0282,5.81717 6.0282,5.81717 0,0 -1.26347,0.22556 1.6425,-0.59758 2.90599,-0.82312 0.91883,-1.02888 4.80118,-1.02888 3.88236,0 1.8952,0.20576 4.80118,1.02888 2.90598,0.82314 1.64251,0.59758 1.64251,0.59758 0,0 3.24858,-5.63654 6.0282,-5.81717 2.77963,-0.18064 5.39647,-5.15755 8.1761,-8.22854 2.77962,-3.07101 4.62138,-1.95728 9.5489,-3.40245"
       inkscape:connector-curvature="0"
       sodipodi:nodetypes="csscssscssc" />
    <path
       sodipodi:nodetypes="cssc"
       inkscape:connector-curvature="0"
       inkscape:original-d="m 734.24609,408.8517 c 4.92752,2.52773 0.5054,-1.57983 3.28502,3.79159 2.77963,5.37143 15.9197,23.06553 18.69932,23.38151 2.77963,0.31595 8.21255,-1.06333 8.21255,-1.06333"
       inkscape:path-effect="#path-effect3917"
       id="path3897"
       d="m 734.24609,408.8517 c 1.20717,1.16055 2.30825,2.43142 3.28502,3.79159 3.00329,4.18214 4.77326,9.11033 7.34841,13.56888 1.28758,2.22927 2.791,4.35683 4.67394,6.11241 1.88293,1.75558 4.16634,3.13077 6.67697,3.70022 2.74833,0.62336 5.7136,0.23943 8.21255,-1.06333"
       style="fill:none;stroke:#ffffff;stroke-width:1.79460537;stroke-linecap:round;stroke-linejoin:round;stroke-miterlimit:4;stroke-opacity:1;stroke-dasharray:none" />
    <path
       style="fill:none;stroke:#ffffff;stroke-width:1.79460537;stroke-linecap:round;stroke-linejoin:round;stroke-miterlimit:4;stroke-opacity:1;stroke-dasharray:none"
       d="m 794.63986,408.8517 c -1.20717,1.16055 -2.30825,2.43142 -3.28502,3.79159 -3.00329,4.18214 -4.77326,9.11033 -7.34841,13.56888 -1.28758,2.22927 -2.791,4.35683 -4.67394,6.11241 -1.88293,1.75558 -4.16634,3.13077 -6.67697,3.70022 -2.74833,0.62336 -5.7136,0.23943 -8.21255,-1.06333"
       id="path3899"
       inkscape:path-effect="#path-effect3914"
       inkscape:original-d="m 794.63986,408.8517 c -4.92752,2.52773 -0.5054,-1.57983 -3.28502,3.79159 -2.77963,5.37143 -15.9197,23.06553 -18.69932,23.38151 -2.77963,0.31595 -8.21255,-1.06333 -8.21255,-1.06333"
       inkscape:connector-curvature="0"
       sodipodi:nodetypes="cssc" />
    <path
       sodipodi:type="arc"
       style="color:#000000;fill:none;stroke:#ffffff;stroke-width:3.63256502;stroke-linecap:butt;stroke-linejoin:miter;stroke-miterlimit:4;stroke-opacity:1;stroke-dasharray:none;stroke-dashoffset:0;marker:none;visibility:visible;display:inline;overflow:visible;enable-background:accumulate"
       id="path3919"
       sodipodi:cx="751.16064"
       sodipodi:cy="490.14328"
       sodipodi:rx="7.2714291"
       sodipodi:ry="7.2714291"
       d="m 758.43207,490.14328 a 7.2714291,7.2714291 0 1 1 -14.54285,0 7.2714291,7.2714291 0 1 1 14.54285,0 z"
       transform="matrix(1.1828468,0,0,1.1818736,-124.06497,-172.37105)" />
    <path
       sodipodi:nodetypes="ccc"
       style="fill:none;stroke:#ffffff;stroke-width:4.25;stroke-linecap:butt;stroke-linejoin:miter;stroke-miterlimit:4;stroke-opacity:1;stroke-dasharray:none"
       d="m 451.7847,458.33777 16.68396,0 0,17.44315"
       id="path3941"
       inkscape:path-effect="#path-effect3951"
       inkscape:original-d="m 451.7847,458.33777 16.68396,0 c 0,0 0.35168,20.00528 0,17.44315"
       inkscape:connector-curvature="0" />
    <path
       inkscape:connector-curvature="0"
       inkscape:original-d="m 545.18691,472.16486 -16.68396,0 c 0,0 -0.35168,-20.00528 0,-17.44315"
       inkscape:path-effect="#path-effect3953"
       id="path3943"
       d="m 545.18691,472.16486 -16.68396,0 0,-17.44315"
       style="fill:none;stroke:#ffffff;stroke-width:4.25;stroke-linecap:butt;stroke-linejoin:miter;stroke-miterlimit:4;stroke-opacity:1;stroke-dasharray:none"
       sodipodi:nodetypes="ccc" />
    <path
       sodipodi:nodetypes="ccc"
       inkscape:connector-curvature="0"
       id="path3945"
       d="m 600.68577,474.13939 10.00522,-15.73343 10.00522,15.73342"
       style="color:#000000;fill:none;stroke:#ffffff;stroke-width:4.25;stroke-linecap:butt;stroke-linejoin:miter;stroke-miterlimit:4;stroke-opacity:1;stroke-dashoffset:0;marker:none;visibility:visible;display:inline;overflow:visible;enable-background:accumulate" />
    <rect
       y="455.77859"
       x="680.39423"
       height="13.709327"
       width="13.720614"
       id="rect3947"
       style="color:#000000;fill:none;stroke:#ffffff;stroke-width:4.25;stroke-linecap:butt;stroke-linejoin:miter;stroke-miterlimit:4;stroke-opacity:1;stroke-dasharray:none;stroke-dashoffset:0;marker:none;visibility:visible;display:inline;overflow:visible;enable-background:accumulate" />
    <path
       transform="matrix(1.1828468,0,0,1.1818736,-124.06497,-116.65416)"
       d="m 758.43207,490.14328 a 7.2714291,7.2714291 0 1 1 -14.54285,0 7.2714291,7.2714291 0 1 1 14.54285,0 z"
       sodipodi:ry="7.2714291"
       sodipodi:rx="7.2714291"
       sodipodi:cy="490.14328"
       sodipodi:cx="751.16064"
       id="path3949"
       style="color:#000000;fill:none;stroke:#ffffff;stroke-width:3.63256502;stroke-linecap:butt;stroke-linejoin:miter;stroke-miterlimit:4;stroke-opacity:1;stroke-dasharray:none;stroke-dashoffset:0;marker:none;visibility:visible;display:inline;overflow:visible;enable-background:accumulate"
       sodipodi:type="arc" />
    <path
       inkscape:connector-curvature="0"
       inkscape:original-d="m 451.7847,486.19622 16.68396,0 c 0,0 0.35168,20.00528 0,17.44315"
       inkscape:path-effect="#path-effect3957"
       id="path3955"
       d="m 451.7847,486.19622 16.68396,0 0,17.44315"
       style="fill:none;stroke:#ffffff;stroke-width:4.25;stroke-linecap:butt;stroke-linejoin:miter;stroke-miterlimit:4;stroke-opacity:1;stroke-dasharray:none"
       sodipodi:nodetypes="ccc" />
    <path
       sodipodi:nodetypes="cc"
       style="fill:none;stroke:#ffffff;stroke-width:4.25;stroke-linecap:butt;stroke-linejoin:miter;stroke-miterlimit:4;stroke-opacity:1;stroke-dasharray:none"
       d="m 451.7847,495.48237 16.68396,0"
       id="path3959"
       inkscape:path-effect="#path-effect3961"
       inkscape:original-d="m 451.7847,495.48237 16.68396,0"
       inkscape:connector-curvature="0" />
    <path
       inkscape:connector-curvature="0"
       inkscape:original-d="m 461.89683,514.05467 6.57183,0 c 0,0 0.35168,20.00528 0,17.44315"
       inkscape:path-effect="#path-effect3965"
       id="path3963"
       d="m 461.89683,514.05467 6.57183,0 0,17.44315"
       style="fill:none;stroke:#ffffff;stroke-width:4.25;stroke-linecap:butt;stroke-linejoin:miter;stroke-miterlimit:4;stroke-opacity:1;stroke-dasharray:none"
       sodipodi:nodetypes="ccc" />
    <path
       sodipodi:nodetypes="ccc"
       style="fill:none;stroke:#ffffff;stroke-width:4.25;stroke-linecap:butt;stroke-linejoin:miter;stroke-miterlimit:4;stroke-opacity:1;stroke-dasharray:none"
       d="m 451.7847,514.05467 6.57184,0 0,17.44315"
       id="path3967"
       inkscape:path-effect="#path-effect4024"
       inkscape:original-d="m 451.7847,514.05467 6.57184,0 c 0,0 0.35169,20.00528 0,17.44315"
       inkscape:connector-curvature="0" />
    <path
       sodipodi:nodetypes="cccc"
       style="fill:none;stroke:#ffffff;stroke-width:4.25;stroke-linecap:butt;stroke-linejoin:miter;stroke-miterlimit:4;stroke-opacity:1;stroke-dasharray:none"
       d="m 545.18691,501.88054 -16.68396,0 0,-16.34515 16.68396,-0.0998"
       id="path3969"
       inkscape:path-effect="#path-effect3971"
       inkscape:original-d="m 545.18691,501.88054 -16.68396,0 c 0,0 -0.35168,-18.80748 0,-16.34515 8.20049,-13.18721 11.67035,-2.8159 16.68396,-0.0998"
       inkscape:connector-curvature="0" />
    <path
       inkscape:connector-curvature="0"
       inkscape:original-d="m 545.18691,531.59622 -16.68396,0 c 0,0 -0.35168,-18.80748 0,-16.34515 8.20049,-13.18721 11.67035,-2.8159 16.68396,-0.0998"
       inkscape:path-effect="#path-effect3979"
       id="path3977"
       d="m 545.18691,531.59622 -16.68396,0 0,-16.34515 16.68396,-0.0998"
       style="fill:none;stroke:#ffffff;stroke-width:4.25;stroke-linecap:butt;stroke-linejoin:miter;stroke-miterlimit:4;stroke-opacity:1;stroke-dasharray:none"
       sodipodi:nodetypes="cccc" />
    <path
       inkscape:connector-curvature="0"
       inkscape:original-d="m 528.56128,523.27134 16.68396,0"
       inkscape:path-effect="#path-effect3983"
       id="path3981"
       d="m 528.56128,523.27134 16.68396,0"
       style="fill:none;stroke:#ffffff;stroke-width:4.25;stroke-linecap:butt;stroke-linejoin:miter;stroke-miterlimit:4;stroke-opacity:1;stroke-dasharray:none"
       sodipodi:nodetypes="cc" />
    <path
       style="color:#000000;fill:none;stroke:#ffffff;stroke-width:4.25;stroke-linecap:butt;stroke-linejoin:miter;stroke-miterlimit:4;stroke-opacity:1;stroke-dashoffset:0;marker:none;visibility:visible;display:inline;overflow:visible;enable-background:accumulate"
       d="m 600.68577,531.71352 10.00522,-15.73343 10.00522,15.73342"
       id="path3985"
       inkscape:connector-curvature="0"
       sodipodi:nodetypes="ccc" />
    <path
       sodipodi:nodetypes="cc"
       style="fill:none;stroke:#ffffff;stroke-width:4.25;stroke-linecap:butt;stroke-linejoin:miter;stroke-miterlimit:4;stroke-opacity:1;stroke-dasharray:none"
       d="m 599.95733,514.10098 21.46733,0"
       id="path3987"
       inkscape:path-effect="#path-effect3989"
       inkscape:original-d="m 599.95733,514.10098 21.46733,0"
       inkscape:connector-curvature="0"
       inkscape:transform-center-x="49.869532"
       inkscape:transform-center-y="15.331846" />
    <path
       sodipodi:nodetypes="ccc"
       inkscape:connector-curvature="0"
       id="path3991"
       d="m 600.68577,501.99784 10.00522,-15.73343 10.00522,15.73342"
       style="color:#000000;fill:none;stroke:#ffffff;stroke-width:4.25;stroke-linecap:butt;stroke-linejoin:miter;stroke-miterlimit:4;stroke-opacity:1;stroke-dashoffset:0;marker:none;visibility:visible;display:inline;overflow:visible;enable-background:accumulate" />
    <path
       inkscape:transform-center-y="15.331843"
       inkscape:transform-center-x="49.869532"
       inkscape:connector-curvature="0"
       inkscape:original-d="m 599.95733,490.57266 21.46733,0"
       inkscape:path-effect="#path-effect3995"
       id="path3993"
       d="m 599.95733,490.57266 21.46733,0"
       style="fill:none;stroke:#ffffff;stroke-width:4.25;stroke-linecap:butt;stroke-linejoin:miter;stroke-miterlimit:4;stroke-opacity:1;stroke-dasharray:none"
       sodipodi:nodetypes="cc" />
    <g
       id="g4030"
       transform="matrix(0.92937959,0,0,0.92861497,37.597451,35.769802)">
      <path
         id="rect3997"
         d="m 691.64075,487.61676 14.76318,0 0,9.4424 -14.76318,0 z"
         style="color:#000000;fill:none;stroke:#ffffff;stroke-width:4.57482529;stroke-linecap:butt;stroke-linejoin:miter;stroke-miterlimit:4;stroke-opacity:1;stroke-dashoffset:0;marker:none;visibility:visible;display:inline;overflow:visible;enable-background:accumulate"
         inkscape:connector-curvature="0" />
      <path
         sodipodi:nodetypes="cccc"
         inkscape:connector-curvature="0"
         style="color:#000000;fill:none;stroke:#ffffff;stroke-width:4.57482529;stroke-linecap:butt;stroke-linejoin:miter;stroke-miterlimit:4;stroke-opacity:1;stroke-dashoffset:0;marker:none;visibility:visible;display:inline;overflow:visible;enable-background:accumulate"
         d="m 706.40393,481.61676 0,9.4424 m -14.76318,0 0,-9.4424"
         id="path4022" />
    </g>
    <path
       sodipodi:nodetypes="cccc"
       inkscape:connector-curvature="0"
       style="color:#000000;fill:none;stroke:#ffffff;stroke-width:4.25;stroke-linecap:butt;stroke-linejoin:miter;stroke-miterlimit:4;stroke-opacity:1;stroke-dashoffset:0;marker:none;visibility:visible;display:inline;overflow:visible;enable-background:accumulate"
       d="m 691.32671,516.80252 0,10.21857 m -8.14432,0 0,-10.21857"
       id="path4026" />
    <path
       id="path4028"
       d="m 695.35985,527.63434 -16.21061,0 m 0,-13.70931 16.21061,0"
       style="color:#000000;fill:none;stroke:#ffffff;stroke-width:4.25;stroke-linecap:butt;stroke-linejoin:miter;stroke-miterlimit:4;stroke-opacity:1;stroke-dashoffset:0;marker:none;visibility:visible;display:inline;overflow:visible;enable-background:accumulate"
       inkscape:connector-curvature="0"
       sodipodi:nodetypes="cccc" />
    <path
       sodipodi:type="arc"
       style="color:#000000;fill:none;stroke:#ffffff;stroke-width:3.63256502;stroke-linecap:butt;stroke-linejoin:miter;stroke-miterlimit:4;stroke-opacity:1;stroke-dasharray:none;stroke-dashoffset:0;marker:none;visibility:visible;display:inline;overflow:visible;enable-background:accumulate"
       id="path4034"
       sodipodi:cx="751.16064"
       sodipodi:cy="490.14328"
       sodipodi:rx="7.2714291"
       sodipodi:ry="7.2714291"
       d="m 758.43207,490.14328 a 7.2714291,7.2714291 0 1 1 -14.54285,0 7.2714291,7.2714291 0 1 1 14.54285,0 z"
       transform="matrix(1.1828468,0,0,1.1818736,-124.06497,-77.652327)" />
    <path
       style="color:#000000;fill:none;stroke:#ffffff;stroke-width:4.25;stroke-linecap:butt;stroke-linejoin:miter;stroke-miterlimit:4;stroke-opacity:1;stroke-dashoffset:0;marker:none;visibility:visible;display:inline;overflow:visible;enable-background:accumulate"
       d="m 756.33767,488.1734 16.21061,0"
       id="path4036"
       inkscape:connector-curvature="0" />
    <path
       style="color:#000000;fill:none;stroke:#ffffff;stroke-width:4.25;stroke-linecap:butt;stroke-linejoin:miter;stroke-miterlimit:4;stroke-opacity:1;stroke-dashoffset:0;marker:none;visibility:visible;display:inline;overflow:visible;enable-background:accumulate"
       d="m 764.44298,487.84476 0,-4.66862"
       id="path4044"
       inkscape:connector-curvature="0" />
  </g>
</svg>
