<?xml version="1.0" encoding="UTF-8" standalone="no"?>
<!-- Created with Inkscape (http://www.inkscape.org/) -->

<svg
   xmlns:dc="http://purl.org/dc/elements/1.1/"
   xmlns:cc="http://creativecommons.org/ns#"
   xmlns:rdf="http://www.w3.org/1999/02/22-rdf-syntax-ns#"
   xmlns:svg="http://www.w3.org/2000/svg"
   xmlns="http://www.w3.org/2000/svg"
   xmlns:sodipodi="http://sodipodi.sourceforge.net/DTD/sodipodi-0.dtd"
   xmlns:inkscape="http://www.inkscape.org/namespaces/inkscape"
   width="1024"
   height="768"
   id="svg2"
   version="1.1"
   inkscape:version="0.48.4 r9939"
   sodipodi:docname="1.svg"
   enable-background="new">
  <defs
     id="defs4">
    <inkscape:path-effect
       effect="spiro"
       id="path-effect4024"
       is_visible="true" />
    <inkscape:path-effect
       effect="spiro"
       id="path-effect4001"
       is_visible="true" />
    <inkscape:path-effect
       is_visible="true"
       id="path-effect3995"
       effect="spiro" />
    <inkscape:path-effect
       effect="spiro"
       id="path-effect3989"
       is_visible="true" />
    <inkscape:path-effect
       is_visible="true"
       id="path-effect3983"
       effect="spiro" />
    <inkscape:path-effect
       is_visible="true"
       id="path-effect3979"
       effect="spiro" />
    <inkscape:path-effect
       is_visible="true"
       id="path-effect3975"
       effect="spiro" />
    <inkscape:path-effect
       effect="spiro"
       id="path-effect3971"
       is_visible="true" />
    <inkscape:path-effect
       is_visible="true"
       id="path-effect3965"
       effect="spiro" />
    <inkscape:path-effect
       effect="spiro"
       id="path-effect3961"
       is_visible="true" />
    <inkscape:path-effect
       is_visible="true"
       id="path-effect3957"
       effect="spiro" />
    <inkscape:path-effect
       is_visible="true"
       id="path-effect3953"
       effect="spiro" />
    <inkscape:path-effect
       effect="spiro"
       id="path-effect3951"
       is_visible="true" />
    <inkscape:path-effect
       effect="spiro"
       id="path-effect3923"
       is_visible="true" />
    <inkscape:path-effect
       is_visible="true"
       id="path-effect3917"
       effect="spiro" />
    <inkscape:path-effect
       effect="spiro"
       id="path-effect3914"
       is_visible="true" />
    <inkscape:path-effect
       effect="spiro"
       id="path-effect3911"
       is_visible="true" />
    <inkscape:path-effect
       is_visible="true"
       id="path-effect3908"
       effect="spiro" />
    <inkscape:path-effect
       effect="spiro"
       id="path-effect3905"
       is_visible="true" />
    <inkscape:path-effect
       is_visible="true"
       id="path-effect3903"
       effect="spiro" />
    <inkscape:path-effect
       is_visible="true"
       id="path-effect3873"
       effect="spiro" />
    <inkscape:path-effect
       is_visible="true"
       id="path-effect3871"
       effect="spiro" />
    <inkscape:path-effect
       effect="spiro"
       id="path-effect3869"
       is_visible="true" />
    <inkscape:path-effect
       effect="spiro"
       id="path-effect3867"
       is_visible="true" />
    <inkscape:path-effect
       effect="spiro"
       id="path-effect3865"
       is_visible="true" />
    <inkscape:path-effect
       is_visible="true"
       id="path-effect3863"
       effect="spiro" />
    <inkscape:path-effect
       effect="spiro"
       id="path-effect3848"
       is_visible="true" />
    <inkscape:path-effect
       effect="spiro"
       id="path-effect3846"
       is_visible="true" />
    <inkscape:path-effect
       is_visible="true"
       id="path-effect3844"
       effect="spiro" />
    <inkscape:path-effect
       effect="spiro"
       id="path-effect3836"
       is_visible="true" />
    <inkscape:path-effect
       is_visible="true"
       id="path-effect3834"
       effect="spiro" />
    <inkscape:path-effect
       is_visible="true"
       id="path-effect3828"
       effect="spiro" />
    <inkscape:path-effect
       effect="spiro"
       id="path-effect3824"
       is_visible="true" />
    <inkscape:path-effect
       is_visible="true"
       id="path-effect3815"
       effect="spiro" />
    <inkscape:path-effect
       is_visible="true"
       id="path-effect3813"
       effect="spiro" />
    <inkscape:path-effect
       is_visible="true"
       id="path-effect3811"
       effect="spiro" />
    <inkscape:path-effect
       effect="spiro"
       id="path-effect3803"
       is_visible="true" />
    <inkscape:path-effect
       effect="spiro"
       id="path-effect3801"
       is_visible="true" />
    <inkscape:path-effect
       effect="spiro"
       id="path-effect3799"
       is_visible="true" />
    <inkscape:path-effect
       is_visible="true"
       id="path-effect3791"
       effect="spiro" />
    <inkscape:path-effect
       is_visible="true"
       id="path-effect3789"
       effect="spiro" />
    <inkscape:path-effect
       is_visible="true"
       id="path-effect3787"
       effect="spiro" />
    <inkscape:path-effect
       effect="spiro"
       id="path-effect3779"
       is_visible="true" />
    <inkscape:path-effect
       effect="spiro"
       id="path-effect3775"
       is_visible="true" />
    <inkscape:path-effect
       effect="spiro"
       id="path-effect3771"
       is_visible="true" />
    <filter
       inkscape:collect="always"
       id="filter3937">
      <feBlend
         inkscape:collect="always"
         mode="lighten"
         in2="BackgroundImage"
         id="feBlend3939" />
    </filter>
  </defs>
  <sodipodi:namedview
     id="base"
     pagecolor="#ffffff"
     bordercolor="#666666"
     borderopacity="1.0"
     inkscape:pageopacity="0.0"
     inkscape:pageshadow="2"
     inkscape:zoom="0.72664456"
     inkscape:cx="603.40281"
     inkscape:cy="338.10643"
     inkscape:document-units="px"
     inkscape:current-layer="layer2"
     showgrid="false"
     width="1024px"
     inkscape:window-width="1438"
     inkscape:window-height="844"
     inkscape:window-x="0"
     inkscape:window-y="27"
     inkscape:window-maximized="0" />
  <metadata
     id="metadata7">
    <rdf:RDF>
      <cc:Work
         rdf:about="">
        <dc:format>image/svg+xml</dc:format>
        <dc:type
           rdf:resource="http://purl.org/dc/dcmitype/StillImage" />
        <dc:title />
      </cc:Work>
    </rdf:RDF>
  </metadata>
  <g
     inkscape:label="Calque 1"
     inkscape:groupmode="layer"
     id="layer1"
     transform="translate(0,-284.36218)"
     style="display:inline">
    <rect
       style="color:#000000;fill:#000000;fill-opacity:1;fill-rule:evenodd;stroke:none;stroke-width:6;marker:none;visibility:visible;display:inline;overflow:visible;enable-background:accumulate"
       id="rect3753"
       width="1024"
       height="768"
       x="0"
       y="284.36218" />
  </g>
  <g
     inkscape:groupmode="layer"
     id="layer2"
     inkscape:label="Calque"
     style="filter:url(#filter3937)">
    <rect
       style="color:#000000;fill:none;stroke:none;stroke-width:0.49999997000000002;stroke-miterlimit:4;stroke-opacity:1;stroke-dasharray:none;marker:none;visibility:visible;display:inline;overflow:visible;enable-background:accumulate"
       id="rect2995"
       width="484.34882"
       height="222.95422"
       x="371.59036"
       y="342.59311" />
    <path
       style="fill:none;stroke:#000000;stroke-width:1px;stroke-linecap:butt;stroke-linejoin:miter;stroke-opacity:1"
       d="m 144.79211,190.11292 37.15903,0 0,44.84712"
       id="path3765"
       inkscape:connector-curvature="0" />
    <path
       inkscape:original-d="m 419.98878,360.15697 c -1.29456,2.75094 0.71004,4.99778 -1.13274,6.63462 -3.12722,2.77773 2.10366,3.07456 5.17823,3.56002 3.07457,0.48546 4.20731,-0.48546 5.50187,1.29456 1.29455,1.78002 0.80909,3.88367 0.32363,5.98733 -0.48546,2.10365 -1.78001,3.72185 -3.07457,5.17823 -1.29455,1.45637 -2.42729,3.72185 -0.16182,4.69276 2.26548,0.97092 3.39822,1.78002 5.17823,0.97092 1.78002,-0.80909 2.10366,-3.07457 2.10366,-3.07457 l 1.13273,5.17823 c 0,0 5.01642,-4.20731 6.14916,-5.34005 1.13273,-1.13274 8.57643,-0.8091 11.48919,-0.8091 2.91275,0 20.39264,7.28092 23.95267,10.19368 3.56003,2.91275 -0.3833,-0.36342 1.12937,2.10462"
       inkscape:path-effect="#path-effect3787"
       sodipodi:nodetypes="csssssssccsssc"
       inkscape:connector-curvature="0"
       id="path3781"
       d="m 419.98878,360.15697 c -0.85711,0.83828 -1.44078,1.95178 -1.64255,3.13357 -0.20177,1.18179 -0.0206,2.42588 0.50981,3.50105 0.48167,0.97635 1.24282,1.80615 2.14882,2.40982 0.906,0.60368 1.95344,0.98426 3.02941,1.1502 0.94847,0.14628 1.91528,0.12878 2.86727,0.25001 0.95199,0.12122 1.92246,0.40124 2.6346,1.04455 0.39882,0.36027 0.70048,0.82288 0.89301,1.32466 0.19253,0.50178 0.27758,1.04198 0.27398,1.57942 -0.007,1.07487 -0.36365,2.12133 -0.84336,3.08325 -0.89656,1.79779 -2.2245,3.358 -3.07457,5.17823 -0.3454,0.7396 -0.61093,1.52644 -0.67524,2.34019 -0.0643,0.81374 0.0834,1.65875 0.51342,2.35257 0.51347,0.82843 1.41353,1.39113 2.37508,1.55043 0.96154,0.15931 1.97149,-0.0713 2.80315,-0.57951 1.09174,-0.66718 1.8773,-1.81529 2.10366,-3.07457 l 1.13273,5.17823 c 1.38519,-2.39294 3.5857,-4.3039 6.14916,-5.34005 3.59535,-1.45324 7.62773,-1.16634 11.48919,-0.8091 4.48108,0.41456 9.00272,0.90245 13.25512,2.37521 4.25239,1.47277 8.2675,4.03076 10.69755,7.81847 0.43035,0.67079 0.80833,1.37517 1.12937,2.10462"
       style="fill:none;stroke:#ffffff;stroke-width:1.70000005;stroke-linecap:round;stroke-linejoin:round;stroke-miterlimit:4;stroke-opacity:1;stroke-dasharray:none" />
    <path
       sodipodi:nodetypes="cssssssccsssssssssc"
       inkscape:connector-curvature="0"
       inkscape:original-d="m 459.95823,439.4486 c -1.78002,-6.14915 -6.6346,-10.51827 -11.97465,-11.65101 -5.34005,-1.13274 -4.36913,1.29455 -8.57644,1.45637 -4.20732,0.16182 -8.57644,-1.94183 -7.76735,-5.50186 0.8091,-3.56003 1.94184,-7.28189 0.64728,-10.51828 -1.29456,-3.23639 -5.01642,-6.6346 -5.98733,-8.09098 -0.97091,-1.45638 5.55574,-6.21386 2.4273,-4.69277 -1.74635,0.84909 4.04549,3.39821 6.14915,3.88367 l 1.94183,-6.95825 c 0,0 0.8091,6.31097 3.56004,6.31097 2.75093,0 7.4437,2.10366 6.95824,-1.29456 -0.48546,-3.39821 -2.59104,-2.9065 -4.85652,-3.06832 -2.26547,-0.16182 -4.36527,-4.0575 -2.42344,-5.83752 0.97091,-0.89001 0.0131,-1.65014 1.96622,-2.61728 1.95317,-0.96714 6.16816,-0.19369 5.79919,-0.61335 -2.82896,-3.21761 15.5198,0.31979 16.97618,0.48161 1.45637,0.16182 1.94664,-2.11038 5.18927,0.96804 1.53014,1.45266 0.81102,3.40494 1.4583,5.67041 0.64728,2.26548 6.15107,28.64208 7.12199,32.20211"
       inkscape:path-effect="#path-effect3789"
       id="path3783"
       d="m 459.95823,439.4486 c 0.0832,-3.12699 -1.19361,-6.26671 -3.4356,-8.44811 -2.24199,-2.18139 -5.41551,-3.37175 -8.53905,-3.2029 -2.90097,0.15681 -5.67149,1.41832 -8.57644,1.45637 -1.72254,0.0226 -3.47086,-0.40713 -4.90576,-1.36039 -1.43491,-0.95326 -2.53213,-2.45058 -2.86159,-4.14147 -0.33997,-1.74479 0.13009,-3.53155 0.52973,-5.26365 0.19981,-0.86605 0.38325,-1.73979 0.43951,-2.62681 0.0563,-0.88702 -0.0183,-1.79252 -0.32196,-2.62782 -0.2909,-0.80007 -0.78364,-1.51393 -1.34741,-2.15182 -0.56377,-0.63789 -1.2004,-1.20646 -1.82364,-1.78638 -0.62325,-0.57991 -1.23755,-1.17601 -1.74699,-1.85807 -0.50944,-0.68206 -0.91337,-1.45779 -1.06929,-2.29471 -0.17363,-0.93194 -0.0266,-1.92033 0.40932,-2.76211 0.43596,-0.84178 1.15797,-1.53185 2.01798,-1.93066 1.30568,-0.60548 2.91543,-0.50142 4.13229,0.26712 1.21686,0.76854 2.00254,2.17738 2.01686,3.61655 l 1.94183,-6.95825 c 0.55298,2.38522 1.80463,4.60405 3.56004,6.31097 0.57717,0.56123 1.21276,1.07163 1.93169,1.4339 0.71893,0.36228 1.5269,0.57173 2.32991,0.51443 0.803,-0.0573 1.59819,-0.3967 2.13395,-0.99759 0.26788,-0.30045 0.46829,-0.66241 0.5698,-1.05192 0.10151,-0.38951 0.10282,-0.80616 -0.007,-1.19338 -0.1357,-0.47797 -0.43618,-0.89904 -0.80798,-1.22864 -0.37181,-0.3296 -0.81313,-0.57269 -1.27019,-0.76754 -0.91413,-0.38969 -1.90532,-0.59747 -2.77835,-1.07214 -1.00127,-0.5444 -1.80926,-1.43748 -2.24744,-2.48958 -0.43818,-1.05211 -0.50279,-2.25609 -0.176,-3.34794 0.31981,-1.06853 1.01915,-2.02813 1.96622,-2.61728 0.84179,-0.52366 1.8433,-0.74398 2.83358,-0.79069 0.99027,-0.0467 1.97995,0.071 2.96561,0.17734 5.63534,0.60783 11.32,0.84773 16.97618,0.48161 0.90277,-0.0584 1.81113,-0.13217 2.70984,-0.0286 0.8987,0.1036 1.80004,0.39927 2.47943,0.99662 0.75847,0.66688 1.17514,1.65312 1.34989,2.64784 0.17474,0.99472 0.13085,2.01287 0.10841,3.02257 -0.2466,11.09683 2.21882,22.24423 7.12199,32.20211"
       style="fill:none;stroke:#ffffff;stroke-width:1.70000005;stroke-linecap:round;stroke-linejoin:round;stroke-miterlimit:4;stroke-opacity:1;stroke-dasharray:none" />
    <path
       inkscape:connector-curvature="0"
       inkscape:original-d="m 443.65994,395.05186 23.09856,0 c 0,0 0.4869,21.54314 0,18.78405"
       inkscape:path-effect="#path-effect3791"
       id="path3785"
       d="m 443.65994,395.05186 23.09856,0 0,18.78405"
       style="fill:none;stroke:#ffffff;stroke-width:4.25;stroke-linecap:butt;stroke-linejoin:miter;stroke-miterlimit:4;stroke-opacity:1;stroke-dasharray:none"
       sodipodi:nodetypes="ccc" />
    <path
       style="fill:none;stroke:#ffffff;stroke-width:1.70000005;stroke-linecap:round;stroke-linejoin:round;stroke-miterlimit:4;stroke-opacity:1;stroke-dasharray:none"
       d="m 500.2697,360.15697 c -0.85711,0.83828 -1.44078,1.95178 -1.64255,3.13357 -0.20177,1.18179 -0.0206,2.42588 0.50981,3.50105 0.48167,0.97635 1.24282,1.80615 2.14882,2.40982 0.906,0.60368 1.95344,0.98426 3.02941,1.1502 0.94847,0.14628 1.91528,0.12878 2.86727,0.25001 0.95199,0.12122 1.92246,0.40124 2.6346,1.04455 0.39882,0.36027 0.70048,0.82288 0.89301,1.32466 0.19253,0.50178 0.27758,1.04198 0.27398,1.57942 -0.007,1.07487 -0.36365,2.12133 -0.84336,3.08325 -0.89656,1.79779 -2.2245,3.358 -3.07457,5.17823 -0.3454,0.7396 -0.61093,1.52644 -0.67524,2.34019 -0.0643,0.81374 0.0834,1.65875 0.51342,2.35257 0.51347,0.82843 1.41353,1.39113 2.37508,1.55043 0.96154,0.15931 1.97149,-0.0713 2.80315,-0.57951 1.09174,-0.66718 1.8773,-1.81529 2.10366,-3.07457 l 1.13273,5.17823 c 1.38519,-2.39294 3.5857,-4.3039 6.14916,-5.34005 3.59535,-1.45324 7.62773,-1.16634 11.48919,-0.8091 4.48108,0.41456 9.00272,0.90245 13.25512,2.37521 4.25239,1.47277 8.2675,4.03076 10.69755,7.81847 0.43035,0.67079 0.80833,1.37517 1.12937,2.10462"
       id="path3793"
       inkscape:connector-curvature="0"
       sodipodi:nodetypes="csssssssccsssc"
       inkscape:path-effect="#path-effect3799"
       inkscape:original-d="m 500.2697,360.15697 c -1.29456,2.75094 0.71004,4.99778 -1.13274,6.63462 -3.12722,2.77773 2.10366,3.07456 5.17823,3.56002 3.07457,0.48546 4.20731,-0.48546 5.50187,1.29456 1.29455,1.78002 0.80909,3.88367 0.32363,5.98733 -0.48546,2.10365 -1.78001,3.72185 -3.07457,5.17823 -1.29455,1.45637 -2.42729,3.72185 -0.16182,4.69276 2.26548,0.97092 3.39822,1.78002 5.17823,0.97092 1.78002,-0.80909 2.10366,-3.07457 2.10366,-3.07457 l 1.13273,5.17823 c 0,0 5.01642,-4.20731 6.14916,-5.34005 1.13273,-1.13274 8.57643,-0.8091 11.48919,-0.8091 2.91275,0 20.39264,7.28092 23.95267,10.19368 3.56003,2.91275 -0.3833,-0.36342 1.12937,2.10462" />
    <path
       style="fill:none;stroke:#ffffff;stroke-width:1.70000005;stroke-linecap:round;stroke-linejoin:round;stroke-miterlimit:4;stroke-opacity:1;stroke-dasharray:none"
       d="m 540.23915,439.4486 c 0.0832,-3.12699 -1.19361,-6.26671 -3.4356,-8.44811 -2.24199,-2.18139 -5.41551,-3.37175 -8.53905,-3.2029 -2.90097,0.15681 -5.67149,1.41832 -8.57644,1.45637 -1.72254,0.0226 -3.47086,-0.40713 -4.90576,-1.36039 -1.43491,-0.95326 -2.53213,-2.45058 -2.86159,-4.14147 -0.33997,-1.74479 0.13009,-3.53155 0.52973,-5.26365 0.19981,-0.86605 0.38325,-1.73979 0.43951,-2.62681 0.0563,-0.88702 -0.0182,-1.79252 -0.32196,-2.62782 -0.2909,-0.80007 -0.78364,-1.51393 -1.34741,-2.15182 -0.56377,-0.63789 -1.2004,-1.20646 -1.82364,-1.78638 -0.62325,-0.57991 -1.23755,-1.17601 -1.74699,-1.85807 -0.50944,-0.68206 -0.91337,-1.45779 -1.06929,-2.29471 -0.17363,-0.93194 -0.0267,-1.92033 0.40932,-2.76211 0.43596,-0.84178 1.15797,-1.53185 2.01798,-1.93066 1.30568,-0.60548 2.91543,-0.50142 4.13229,0.26712 1.21686,0.76854 2.00254,2.17738 2.01686,3.61655 l 1.94183,-6.95825 c 0.15288,2.495 1.50374,4.88969 3.56004,6.31097 0.78703,0.54398 1.71243,0.95901 2.66775,0.90716 0.47766,-0.0259 0.95301,-0.1724 1.34283,-0.44966 0.38982,-0.27726 0.68921,-0.68904 0.79929,-1.15457 0.0839,-0.35469 0.0574,-0.73053 -0.045,-1.08032 -0.1024,-0.34979 -0.27863,-0.67486 -0.49008,-0.97172 -0.42289,-0.59374 -0.98191,-1.07477 -1.47266,-1.61377 -1.13972,-1.25176 -1.91063,-2.83634 -2.18638,-4.50662 -0.27575,-1.67027 -0.0545,-3.42022 0.63339,-4.96702 0.53839,-1.21053 1.37917,-2.31311 2.50994,-3.00347 0.56539,-0.34518 1.19843,-0.58357 1.85469,-0.67379 0.65625,-0.0902 1.3354,-0.0303 1.95817,0.19544 0.73274,0.26564 1.37096,0.75282 1.89637,1.3285 0.52542,0.57568 0.94486,1.23952 1.3293,1.91752 0.76887,1.35599 1.43749,2.8207 2.60413,3.85454 1.28317,1.1371 3.02341,1.61435 4.72548,1.82046 2.06248,0.24976 4.1547,0.15335 6.21833,0.39343 2.06363,0.24007 4.17491,0.86763 5.66521,2.31512 1.01667,0.98746 1.67607,2.29447 2.0974,3.64769 0.42133,1.35321 0.62017,2.76376 0.83363,4.16488 1.22284,8.02655 2.97714,15.97209 5.2476,23.76734"
       id="path3795"
       inkscape:path-effect="#path-effect3801"
       inkscape:original-d="m 540.23915,439.4486 c -1.78002,-6.14915 -6.6346,-10.51827 -11.97465,-11.65101 -5.34005,-1.13274 -4.36913,1.29455 -8.57644,1.45637 -4.20732,0.16182 -8.57644,-1.94183 -7.76735,-5.50186 0.8091,-3.56003 1.94184,-7.28189 0.64728,-10.51828 -1.29456,-3.23639 -5.01642,-6.6346 -5.98733,-8.09098 -0.97091,-1.45638 5.55574,-6.21386 2.4273,-4.69277 -1.74635,0.84909 4.04549,3.39821 6.14915,3.88367 l 1.94183,-6.95825 c 0,0 0.8091,6.31097 3.56004,6.31097 2.75093,0 5.29533,2.70115 4.80987,-0.69707 -0.48546,-3.39821 0.25778,-3.50399 -2.0077,-3.66581 -2.26547,-0.16182 -3.49482,-7.69362 -1.55299,-9.47364 0.97091,-0.89001 4.36968,-2.51468 6.3228,-3.48182 1.95317,-0.96714 6.46654,9.12684 5.8298,7.10056 -1.28441,-4.08734 3.2691,1.65864 4.72548,1.82046 1.45637,0.16182 8.64091,-0.36987 11.88354,2.70855 1.53014,1.45266 2.28375,5.5471 2.93103,7.81257 0.64728,2.26548 4.27668,20.20731 5.2476,23.76734"
       inkscape:connector-curvature="0"
       sodipodi:nodetypes="cssssssccsssssssssc" />
    <path
       sodipodi:nodetypes="ccc"
       style="fill:none;stroke:#ffffff;stroke-width:4.25;stroke-linecap:butt;stroke-linejoin:miter;stroke-miterlimit:4;stroke-opacity:1;stroke-dasharray:none"
       d="m 549.81249,407.94187 -23.09856,0 0,-18.78405"
       id="path3797"
       inkscape:path-effect="#path-effect3803"
       inkscape:original-d="m 549.81249,407.94187 -23.09856,0 c 0,0 -0.4869,-21.54314 0,-18.78405"
       inkscape:connector-curvature="0" />
    <path
       inkscape:original-d="m 582.86984,360.15697 c -1.29456,2.75094 0.71004,4.99778 -1.13274,6.63462 -3.12722,2.77773 2.10366,3.07456 5.17823,3.56002 3.07457,0.48546 4.20731,-0.48546 5.50187,1.29456 1.29455,1.78002 0.80909,3.88367 0.32363,5.98733 -0.48546,2.10365 -1.78001,3.72185 -3.07457,5.17823 -1.29455,1.45637 -2.42729,3.72185 -0.16182,4.69276 2.26548,0.97092 3.39822,1.78002 5.17823,0.97092 1.78002,-0.80909 2.10366,-3.07457 2.10366,-3.07457 l 1.13273,5.17823 c 0,0 5.01642,-4.20731 6.14916,-5.34005 1.13273,-1.13274 8.57643,-0.8091 11.48919,-0.8091 2.91275,0 20.39264,7.28092 23.95267,10.19368 3.56003,2.91275 -0.3833,-0.36342 1.12937,2.10462"
       inkscape:path-effect="#path-effect3811"
       sodipodi:nodetypes="csssssssccsssc"
       inkscape:connector-curvature="0"
       id="path3805"
       d="m 582.86984,360.15697 c -0.85711,0.83828 -1.44078,1.95178 -1.64255,3.13357 -0.20177,1.18179 -0.0206,2.42588 0.50981,3.50105 0.48167,0.97635 1.24282,1.80615 2.14882,2.40982 0.906,0.60368 1.95344,0.98426 3.02941,1.1502 0.94847,0.14628 1.91528,0.12878 2.86727,0.25001 0.95199,0.12122 1.92246,0.40124 2.6346,1.04455 0.39882,0.36027 0.70048,0.82288 0.89301,1.32466 0.19253,0.50178 0.27758,1.04198 0.27398,1.57942 -0.007,1.07487 -0.36365,2.12133 -0.84336,3.08325 -0.89656,1.79779 -2.2245,3.358 -3.07457,5.17823 -0.3454,0.7396 -0.61093,1.52644 -0.67524,2.34019 -0.0643,0.81374 0.0834,1.65875 0.51342,2.35257 0.51347,0.82843 1.41353,1.39113 2.37508,1.55043 0.96154,0.15931 1.97149,-0.0713 2.80315,-0.57951 1.09174,-0.66718 1.8773,-1.81529 2.10366,-3.07457 l 1.13273,5.17823 c 1.38519,-2.39294 3.5857,-4.3039 6.14916,-5.34005 3.59535,-1.45324 7.62773,-1.16634 11.48919,-0.8091 4.48108,0.41456 9.00272,0.90245 13.25512,2.37521 4.25239,1.47277 8.2675,4.03076 10.69755,7.81847 0.43035,0.67079 0.80833,1.37517 1.12937,2.10462"
       style="fill:none;stroke:#ffffff;stroke-width:1.70000005;stroke-linecap:round;stroke-linejoin:round;stroke-miterlimit:4;stroke-opacity:1;stroke-dasharray:none" />
    <path
       sodipodi:nodetypes="cssssssccsssssssssc"
       inkscape:connector-curvature="0"
       inkscape:original-d="m 622.83929,439.4486 c -1.78002,-6.14915 -6.6346,-10.51827 -11.97465,-11.65101 -5.34005,-1.13274 -4.36913,1.29455 -8.57644,1.45637 -4.20732,0.16182 -8.57644,-1.94183 -7.76735,-5.50186 0.8091,-3.56003 1.94184,-7.28189 0.64728,-10.51828 -1.29456,-3.23639 -5.01642,-6.6346 -5.98733,-8.09098 -0.97091,-1.45638 5.55574,-6.21386 2.4273,-4.69277 -1.74635,0.84909 4.04549,3.39821 6.14915,3.88367 l 2.21405,-6.50454 c 0,0 0.53688,5.85726 3.28782,5.85726 2.75093,0 4.0875,1.39703 2.7192,-1.75119 -1.40997,-3.24413 1.03166,-2.75804 -1.23382,-2.91986 -2.26547,-0.16182 -6.63616,-3.11279 -4.69433,-4.89281 0.97091,-0.89001 -2.00572,-3.02029 -0.0526,-3.98743 1.95317,-0.96714 3.52681,1.66174 2.89007,-0.36454 -1.28441,-4.08734 17.04236,5.35669 18.49874,5.51851 1.45637,0.16182 8.64091,-0.36987 11.88354,2.70855 1.53014,1.45266 2.28375,5.5471 2.93103,7.81257 0.64728,2.26548 4.27668,20.20731 5.2476,23.76734"
       inkscape:path-effect="#path-effect3813"
       id="path3807"
       d="m 622.83929,439.4486 c 0.0832,-3.12699 -1.19361,-6.26671 -3.4356,-8.44811 -2.24199,-2.18139 -5.41551,-3.37175 -8.53905,-3.2029 -2.90097,0.15681 -5.67149,1.41832 -8.57644,1.45637 -1.72254,0.0226 -3.47086,-0.40713 -4.90576,-1.36039 -1.43491,-0.95326 -2.53213,-2.45058 -2.86159,-4.14147 -0.33997,-1.74479 0.13009,-3.53155 0.52973,-5.26365 0.19981,-0.86605 0.38325,-1.73979 0.43951,-2.62681 0.0563,-0.88702 -0.0182,-1.79252 -0.32196,-2.62782 -0.2909,-0.80007 -0.78364,-1.51393 -1.34741,-2.15182 -0.56377,-0.63789 -1.2004,-1.20646 -1.82364,-1.78638 -0.62325,-0.57991 -1.23755,-1.17601 -1.74699,-1.85807 -0.50944,-0.68206 -0.91337,-1.45779 -1.06929,-2.29471 -0.17363,-0.93194 -0.0267,-1.92033 0.40932,-2.76211 0.43596,-0.84178 1.15797,-1.53185 2.01798,-1.93066 1.30568,-0.60548 2.91543,-0.50142 4.13229,0.26712 1.21686,0.76854 2.00254,2.17738 2.01686,3.61655 l 2.21405,-6.50454 c -0.32951,0.58473 -0.50567,1.255 -0.50623,1.92618 -5.6e-4,0.67118 0.17447,1.34175 0.503,1.92703 0.32853,0.58528 0.80982,1.08394 1.38307,1.43302 0.57326,0.34908 1.2372,0.54779 1.90798,0.57103 0.58449,0.0202 1.18223,-0.0956 1.68562,-0.39332 0.50338,-0.29773 0.90406,-0.78755 1.03358,-1.35787 0.12203,-0.53734 -3.1e-4,-1.10879 -0.24632,-1.60185 -0.24601,-0.49306 -0.6087,-0.91784 -0.9875,-1.31801 -1.55752,-1.64538 -3.46607,-2.98899 -4.69433,-4.89281 -0.39466,-0.61172 -0.71736,-1.29124 -0.77997,-2.01652 -0.0313,-0.36264 0.004,-0.73304 0.12363,-1.07686 0.11949,-0.34382 0.32478,-0.66023 0.60374,-0.89405 0.38514,-0.32283 0.89173,-0.47427 1.39326,-0.50615 0.50153,-0.0319 1.00315,0.0475 1.49681,0.14161 6.33596,1.20755 12.08349,4.84974 18.49874,5.51851 2.06818,0.2156 4.16114,0.11481 6.22582,0.36166 2.06468,0.24686 4.17218,0.89189 5.65772,2.34689 1.01218,0.99137 1.66963,2.29779 2.09159,3.65029 0.42196,1.3525 0.6236,2.76202 0.83944,4.16228 1.23683,8.02409 2.99087,15.96843 5.2476,23.76734"
       style="fill:none;stroke:#ffffff;stroke-width:1.70000005;stroke-linecap:round;stroke-linejoin:round;stroke-miterlimit:4;stroke-opacity:1;stroke-dasharray:none" />
    <path
       style="color:#000000;fill:none;stroke:#ffffff;stroke-width:4.25;stroke-linecap:butt;stroke-linejoin:miter;stroke-miterlimit:4;stroke-opacity:1;stroke-dashoffset:0;marker:none;visibility:visible;display:inline;overflow:visible;enable-background:accumulate"
       d="m 594.59655,406.90869 8.70168,-11.78339 8.70167,11.78338"
       id="rect3817"
       inkscape:connector-curvature="0"
       sodipodi:nodetypes="ccc" />
    <path
       style="fill:none;stroke:#ffffff;stroke-width:1.70000005;stroke-linecap:round;stroke-linejoin:round;stroke-miterlimit:4;stroke-opacity:1;stroke-dasharray:none"
       d="m 666.53092,401.01504 c 4.84524,0.50657 9.81941,-0.2767 14.27449,-2.24779 2.44461,-1.08158 4.73119,-2.51302 6.79737,-4.20914 1.6436,-1.34923 3.14935,-2.86627 4.48627,-4.51989 0.57688,0.17497 1.16892,0.2999 1.76731,0.37292 1.71104,0.20879 3.44227,-0.008 5.166,-0.008 1.72373,0 3.45497,0.21679 5.16601,0.008 0.59839,-0.073 1.19043,-0.19795 1.76731,-0.37292 1.33692,1.65362 2.84267,3.17066 4.48627,4.51989 2.06618,1.69612 4.35276,3.12756 6.79737,4.20914 4.45508,1.97109 9.42925,2.75436 14.27449,2.24779"
       id="path3853"
       inkscape:path-effect="#path-effect3865"
       inkscape:original-d="m 666.53092,401.01504 c 5.30195,-0.95474 11.28365,-0.21897 14.27449,-2.24779 2.99084,-2.02882 3.80653,-4.0898 6.79737,-4.20914 2.99084,-0.11934 4.48627,-4.51989 4.48627,-4.51989 0,0 -1.35948,-0.17087 1.76731,0.37292 3.1268,0.54379 0.98864,-0.008 5.166,-0.008 4.17737,0 2.03921,0.5517 5.16601,0.008 3.12679,-0.54379 1.76731,-0.37292 1.76731,-0.37292 -0.82517,1.23775 1.49543,4.40055 4.48627,4.51989 2.99084,0.11934 3.80653,2.18032 6.79737,4.20914 2.99084,2.02882 8.97254,1.29305 14.27449,2.24779"
       inkscape:connector-curvature="0"
       sodipodi:nodetypes="csscssscssc" />
    <g
       id="g3877"
       transform="translate(34.44341,-88.041921)">
      <path
         style="fill:none;stroke:#ffffff;stroke-width:1.70000005;stroke-linecap:round;stroke-linejoin:round;stroke-miterlimit:4;stroke-opacity:1;stroke-dasharray:none"
         d="m 632.08751,489.05696 c 1.26116,-0.99286 2.44422,-2.08491 3.53464,-3.26274 3.29119,-3.55502 5.6903,-7.83083 8.65514,-11.66225 1.48242,-1.91571 3.11704,-3.73007 5.01987,-5.22899 1.90283,-1.49891 4.08639,-2.67809 6.44521,-3.22898 2.93755,-0.68605 6.10194,-0.35838 8.83659,0.91501"
         id="path3851"
         inkscape:path-effect="#path-effect3863"
         inkscape:original-d="m 632.08751,489.05696 c 5.30195,-2.17516 0.5438,1.35947 3.53464,-3.26274 2.99084,-4.62221 17.12938,-19.84832 20.12022,-20.12022 2.99084,-0.27189 8.83659,0.91501 8.83659,0.91501"
         inkscape:connector-curvature="0"
         sodipodi:nodetypes="cssc" />
      <path
         sodipodi:nodetypes="cssc"
         inkscape:connector-curvature="0"
         inkscape:original-d="m 697.0704,489.05696 c -5.30195,-2.17516 -0.5438,1.35947 -3.53464,-3.26274 -2.99084,-4.62221 -17.12938,-19.84832 -20.12022,-20.12022 -2.99084,-0.27189 -8.83659,0.91501 -8.83659,0.91501"
         inkscape:path-effect="#path-effect3867"
         id="path3855"
         d="m 697.0704,489.05696 c -1.26116,-0.99286 -2.44422,-2.08491 -3.53464,-3.26274 -3.29119,-3.55502 -5.6903,-7.83083 -8.65514,-11.66225 -1.48242,-1.91571 -3.11704,-3.73007 -5.01987,-5.22899 -1.90283,-1.49891 -4.08639,-2.67809 -6.44521,-3.22898 -2.93755,-0.68605 -6.10194,-0.35838 -8.83659,0.91501"
         style="fill:none;stroke:#ffffff;stroke-width:1.70000005;stroke-linecap:round;stroke-linejoin:round;stroke-miterlimit:4;stroke-opacity:1;stroke-dasharray:none" />
    </g>
    <path
       sodipodi:nodetypes="csscssscssc"
       inkscape:connector-curvature="0"
       inkscape:original-d="m 666.53092,401.39553 c 5.30195,0.83508 11.28365,0.19152 14.27449,1.96608 2.99084,1.77456 3.80653,3.57725 6.79737,3.68163 2.99084,0.10438 4.48627,3.74697 4.48627,3.74697 0,0 -1.35948,0.35592 1.76731,-0.11972 3.1268,-0.47564 0.98864,0.0931 5.166,0.0931 4.17737,0 2.03921,-0.56874 5.16601,-0.0931 3.12679,0.47564 1.76731,0.11972 1.76731,0.11972 0,0 1.49543,-3.64259 4.48627,-3.74697 2.99084,-0.10438 3.80653,-1.90707 6.79737,-3.68163 2.99084,-1.77456 8.97254,-1.131 14.27449,-1.96608"
       inkscape:path-effect="#path-effect3871"
       id="path3859"
       d="m 666.53092,401.39553 c 4.82395,-0.49004 9.76264,0.19018 14.27449,1.96608 2.40338,0.94599 4.68384,2.19701 6.79737,3.68163 1.59622,1.12124 3.09859,2.37604 4.48627,3.74697 0.58728,-0.0626 1.17696,-0.10252 1.76731,-0.11972 1.72179,-0.0502 3.44348,0.0931 5.166,0.0931 1.72253,0 3.44421,-0.14327 5.16601,-0.0931 0.59035,0.0172 1.18003,0.0572 1.76731,0.11972 1.38768,-1.37093 2.89005,-2.62573 4.48627,-3.74697 2.11353,-1.48462 4.39399,-2.73564 6.79737,-3.68163 4.51185,-1.7759 9.45054,-2.45612 14.27449,-1.96608"
       style="fill:none;stroke:#ffffff;stroke-width:1.70000005;stroke-linecap:round;stroke-linejoin:round;stroke-miterlimit:4;stroke-opacity:1;stroke-dasharray:none" />
    <g
       id="g3881"
       transform="translate(34.44341,-88.041921)">
      <path
         sodipodi:nodetypes="cssc"
         inkscape:connector-curvature="0"
         inkscape:original-d="m 632.08751,489.43745 c 5.30195,1.90255 0.5438,-1.1891 3.53464,2.85383 2.99084,4.04293 17.12938,17.36082 20.12022,17.59865 2.99084,0.23781 8.83659,-0.80034 8.83659,-0.80034"
         inkscape:path-effect="#path-effect3869"
         id="path3857"
         d="m 632.08751,489.43745 c 1.24401,0.8657 2.42621,1.8202 3.53464,2.85383 3.31332,3.08973 5.92722,6.8435 8.9772,10.19344 3.04998,3.34995 6.72718,6.39282 11.14302,7.40521 2.93124,0.67203 6.07379,0.3874 8.83659,-0.80034"
         style="fill:none;stroke:#ffffff;stroke-width:1.70000005;stroke-linecap:round;stroke-linejoin:round;stroke-miterlimit:4;stroke-opacity:1;stroke-dasharray:none" />
      <path
         style="fill:none;stroke:#ffffff;stroke-width:1.70000005;stroke-linecap:round;stroke-linejoin:round;stroke-miterlimit:4;stroke-opacity:1;stroke-dasharray:none"
         d="m 697.0704,489.43745 c -1.24401,0.8657 -2.42621,1.8202 -3.53464,2.85383 -3.31332,3.08973 -5.92722,6.8435 -8.9772,10.19344 -3.04998,3.34995 -6.72718,6.39282 -11.14302,7.40521 -2.93124,0.67203 -6.07379,0.3874 -8.83659,-0.80034"
         id="path3861"
         inkscape:path-effect="#path-effect3873"
         inkscape:original-d="m 697.0704,489.43745 c -5.30195,1.90255 -0.5438,-1.1891 -3.53464,2.85383 -2.99084,4.04293 -17.12938,17.36082 -20.12022,17.59865 -2.99084,0.23781 -8.83659,-0.80034 -8.83659,-0.80034"
         inkscape:connector-curvature="0"
         sodipodi:nodetypes="cssc" />
    </g>
    <rect
       style="color:#000000;fill:none;stroke:#ffffff;stroke-width:4.25;stroke-linecap:round;stroke-linejoin:round;stroke-miterlimit:4;stroke-opacity:1;stroke-dasharray:none;stroke-dashoffset:0;marker:none;visibility:visible;display:inline;overflow:visible;enable-background:accumulate"
       id="rect3875"
       width="14.763198"
       height="14.763198"
       x="691.64075"
       y="392.95767" />
    <path
       sodipodi:nodetypes="csscssscssc"
       inkscape:connector-curvature="0"
       inkscape:original-d="m 749.58461,400.87667 c 5.30195,-1.96531 7.28365,-0.45074 10.27449,-4.62703 2.99084,-4.17628 3.80653,-8.41876 6.79737,-8.66442 2.99084,-0.24566 8.48627,-10.4365 8.48627,-10.4365 0,0 -1.35948,0.0918 1.76731,1.21118 3.1268,1.11938 0.98864,1.39921 5.166,1.39921 4.17737,0 2.03921,-0.27983 5.16601,-1.39921 3.12679,-1.11938 1.76731,-1.21118 1.76731,-1.21118 0,0 5.49543,10.19084 8.48627,10.4365 2.99084,0.24566 3.80653,4.48814 6.79737,8.66442 2.99084,4.17629 4.97254,2.66172 10.27449,4.62703"
       inkscape:path-effect="#path-effect3903"
       id="path3885"
       d="m 749.58461,400.87667 c 3.78925,-0.44578 7.42926,-2.08503 10.27449,-4.62703 2.74467,-2.45216 4.69551,-5.64309 6.79737,-8.66442 2.56297,-3.68415 5.4023,-7.17599 8.48627,-10.4365 0.55106,0.45581 1.14336,0.86173 1.76731,1.21118 1.5736,0.88131 3.36242,1.39921 5.166,1.39921 1.80359,0 3.59241,-0.5179 5.16601,-1.39921 0.62395,-0.34945 1.21625,-0.75537 1.76731,-1.21118 3.08397,3.26051 5.9233,6.75235 8.48627,10.4365 2.10186,3.02133 4.0527,6.21226 6.79737,8.66442 2.84523,2.542 6.48524,4.18125 10.27449,4.62703"
       style="fill:none;stroke:#ffffff;stroke-width:1.9067682;stroke-linecap:round;stroke-linejoin:round;stroke-miterlimit:4;stroke-opacity:1;stroke-dasharray:none" />
    <path
       style="fill:none;stroke:#ffffff;stroke-width:1.79460537;stroke-linecap:round;stroke-linejoin:round;stroke-miterlimit:4;stroke-opacity:1;stroke-dasharray:none"
       d="m 749.58461,400.5732 c 1.34359,-1.52629 2.53007,-3.1908 3.53464,-4.95875 3.14624,-5.53707 4.43356,-11.92071 6.96446,-17.76473 1.26545,-2.92201 2.86354,-5.73595 5.04667,-8.05401 2.18313,-2.31807 4.98923,-4.12301 8.10909,-4.76017 2.98467,-0.60955 6.18341,-0.10616 8.83659,1.39064"
       id="path3889"
       inkscape:path-effect="#path-effect3911"
       inkscape:original-d="m 749.58461,400.5732 c 5.30195,-3.30583 0.5438,2.06613 3.53464,-4.95875 2.99084,-7.02488 17.12938,-30.16568 20.12022,-30.57891 2.99084,-0.41323 8.83659,1.39064 8.83659,1.39064"
       inkscape:connector-curvature="0"
       sodipodi:nodetypes="cssc" />
    <path
       sodipodi:nodetypes="cssc"
       inkscape:connector-curvature="0"
       inkscape:original-d="m 814.5675,400.5732 c -5.30195,-3.30583 -0.5438,2.06613 -3.53464,-4.95875 -2.99084,-7.02488 -17.12938,-30.16568 -20.12022,-30.57891 -2.99084,-0.41323 -8.83659,1.39064 -8.83659,1.39064"
       inkscape:path-effect="#path-effect3908"
       id="path3891"
       d="m 814.5675,400.5732 c -1.34359,-1.52629 -2.53007,-3.1908 -3.53464,-4.95875 -3.14624,-5.53707 -4.43356,-11.92071 -6.96446,-17.76473 -1.26545,-2.92201 -2.86354,-5.73595 -5.04667,-8.05401 -2.18313,-2.31807 -4.98923,-4.12301 -8.10909,-4.76017 -2.98467,-0.60955 -6.18341,-0.10616 -8.83659,1.39064"
       style="fill:none;stroke:#ffffff;stroke-width:1.79460537;stroke-linecap:round;stroke-linejoin:round;stroke-miterlimit:4;stroke-opacity:1;stroke-dasharray:none" />
    <path
       style="fill:none;stroke:#ffffff;stroke-width:1.9067682;stroke-linecap:round;stroke-linejoin:round;stroke-miterlimit:4;stroke-opacity:1;stroke-dasharray:none"
       d="m 749.58461,401.50227 c 3.67165,0.26261 7.26518,1.5441 10.27449,3.664 3.41091,2.40281 5.98811,5.77631 8.79737,8.86109 2.02525,2.22387 4.19327,4.31771 6.48627,6.26435 0.58619,-0.22241 1.17536,-0.43694 1.76731,-0.64351 1.67097,-0.58312 3.39621,-1.10798 5.166,-1.10798 1.76979,0 3.49504,0.52486 5.16601,1.10798 0.59195,0.20657 1.18112,0.4211 1.76731,0.64351 2.293,-1.94664 4.46102,-4.04048 6.48627,-6.26435 2.80926,-3.08478 5.38646,-6.45828 8.79737,-8.86109 3.00931,-2.1199 6.60284,-3.40139 10.27449,-3.664"
       id="path3893"
       inkscape:path-effect="#path-effect3905"
       inkscape:original-d="m 749.58461,401.50227 c 5.30195,1.55626 7.28365,0.35692 10.27449,3.664 2.99084,3.30707 5.80653,8.66657 8.79737,8.86109 2.99084,0.19452 6.48627,6.26435 6.48627,6.26435 0,0 -1.35948,0.2429 1.76731,-0.64351 3.1268,-0.8864 0.98864,-1.10798 5.166,-1.10798 4.17737,0 2.03921,0.22158 5.16601,1.10798 3.12679,0.88641 1.76731,0.64351 1.76731,0.64351 0,0 3.49543,-6.06983 6.48627,-6.26435 2.99084,-0.19452 5.80653,-5.55402 8.79737,-8.86109 2.99084,-3.30708 4.97254,-2.10774 10.27449,-3.664"
       inkscape:connector-curvature="0"
       sodipodi:nodetypes="csscssscssc" />
    <path
       sodipodi:nodetypes="cssc"
       inkscape:connector-curvature="0"
       inkscape:original-d="m 749.58461,401.76167 c 5.30195,2.72204 0.5438,-1.70128 3.53464,4.08306 2.99084,5.78434 17.12938,24.83863 20.12022,25.1789 2.99084,0.34024 8.83659,-1.14507 8.83659,-1.14507"
       inkscape:path-effect="#path-effect3917"
       id="path3897"
       d="m 749.58461,401.76167 c 1.29907,1.24979 2.48382,2.61836 3.53464,4.08306 3.23122,4.50385 5.13348,9.81069 7.90345,14.61201 1.38499,2.40066 3.00257,4.69186 5.02914,6.58246 2.02657,1.8906 4.48472,3.37154 7.18763,3.98443 2.95726,0.67057 6.14792,0.25711 8.83659,-1.14507"
       style="fill:none;stroke:#ffffff;stroke-width:1.79460537;stroke-linecap:round;stroke-linejoin:round;stroke-miterlimit:4;stroke-opacity:1;stroke-dasharray:none" />
    <path
       style="fill:none;stroke:#ffffff;stroke-width:1.79460537;stroke-linecap:round;stroke-linejoin:round;stroke-miterlimit:4;stroke-opacity:1;stroke-dasharray:none"
       d="m 814.5675,401.76167 c -1.29907,1.24979 -2.48382,2.61836 -3.53464,4.08306 -3.23122,4.50385 -5.13348,9.81069 -7.90345,14.61201 -1.38499,2.40066 -3.00257,4.69186 -5.02914,6.58246 -2.02657,1.8906 -4.48472,3.37154 -7.18763,3.98443 -2.95726,0.67057 -6.14792,0.25711 -8.83659,-1.14507"
       id="path3899"
       inkscape:path-effect="#path-effect3914"
       inkscape:original-d="m 814.5675,401.76167 c -5.30195,2.72204 -0.5438,-1.70128 -3.53464,4.08306 -2.99084,5.78434 -17.12938,24.83863 -20.12022,25.1789 -2.99084,0.34024 -8.83659,-1.14507 -8.83659,-1.14507"
       inkscape:connector-curvature="0"
       sodipodi:nodetypes="cssc" />
    <path
       sodipodi:type="arc"
       style="color:#000000;fill:none;stroke:#ffffff;stroke-width:3.37464285;stroke-linecap:butt;stroke-linejoin:miter;stroke-miterlimit:4;stroke-opacity:1;stroke-dasharray:none;stroke-dashoffset:0;marker:none;visibility:visible;display:inline;overflow:visible;enable-background:accumulate"
       id="path3919"
       sodipodi:cx="751.16064"
       sodipodi:cy="490.14328"
       sodipodi:rx="7.2714291"
       sodipodi:ry="7.2714291"
       d="m 758.43207,490.14328 a 7.2714291,7.2714291 0 1 1 -14.54285,0 7.2714291,7.2714291 0 1 1 14.54285,0 z"
       transform="matrix(1.2727273,0,0,1.2727273,-173.9466,-224.14118)" />
    <path
       sodipodi:nodetypes="ccc"
       style="fill:none;stroke:#ffffff;stroke-width:4.25;stroke-linecap:butt;stroke-linejoin:miter;stroke-miterlimit:4;stroke-opacity:1;stroke-dasharray:none"
       d="m 445.65994,455.05186 17.95171,0 0,18.78405"
       id="path3941"
       inkscape:path-effect="#path-effect3951"
       inkscape:original-d="m 445.65994,455.05186 17.95171,0 c 0,0 0.37841,21.54314 0,18.78405"
       inkscape:connector-curvature="0" />
    <path
       inkscape:connector-curvature="0"
       inkscape:original-d="m 546.15946,469.94187 -17.95171,0 c 0,0 -0.37841,-21.54314 0,-18.78405"
       inkscape:path-effect="#path-effect3953"
       id="path3943"
       d="m 546.15946,469.94187 -17.95171,0 0,-18.78405"
       style="fill:none;stroke:#ffffff;stroke-width:4.25;stroke-linecap:butt;stroke-linejoin:miter;stroke-miterlimit:4;stroke-opacity:1;stroke-dasharray:none"
       sodipodi:nodetypes="ccc" />
    <path
       sodipodi:nodetypes="ccc"
       inkscape:connector-curvature="0"
       id="path3945"
       d="m 605.8755,472.06819 10.76548,-16.9429 10.76548,16.94289"
       style="color:#000000;fill:none;stroke:#ffffff;stroke-width:4.25;stroke-linecap:butt;stroke-linejoin:miter;stroke-miterlimit:4;stroke-opacity:1;stroke-dashoffset:0;marker:none;visibility:visible;display:inline;overflow:visible;enable-background:accumulate" />
    <rect
       y="452.29596"
       x="691.64075"
       height="14.763198"
       width="14.763198"
       id="rect3947"
       style="color:#000000;fill:none;stroke:#ffffff;stroke-width:4.25;stroke-linecap:butt;stroke-linejoin:miter;stroke-miterlimit:4;stroke-opacity:1;stroke-dasharray:none;stroke-dashoffset:0;marker:none;visibility:visible;display:inline;overflow:visible;enable-background:accumulate" />
    <path
       transform="matrix(1.2727273,0,0,1.2727273,-173.9466,-164.14118)"
       d="m 758.43207,490.14328 a 7.2714291,7.2714291 0 1 1 -14.54285,0 7.2714291,7.2714291 0 1 1 14.54285,0 z"
       sodipodi:ry="7.2714291"
       sodipodi:rx="7.2714291"
       sodipodi:cy="490.14328"
       sodipodi:cx="751.16064"
       id="path3949"
       style="color:#000000;fill:none;stroke:#ffffff;stroke-width:3.37464285;stroke-linecap:butt;stroke-linejoin:miter;stroke-miterlimit:4;stroke-opacity:1;stroke-dasharray:none;stroke-dashoffset:0;marker:none;visibility:visible;display:inline;overflow:visible;enable-background:accumulate"
       sodipodi:type="arc" />
    <path
       inkscape:connector-curvature="0"
       inkscape:original-d="m 445.65994,485.05186 17.95171,0 c 0,0 0.37841,21.54314 0,18.78405"
       inkscape:path-effect="#path-effect3957"
       id="path3955"
       d="m 445.65994,485.05186 17.95171,0 0,18.78405"
       style="fill:none;stroke:#ffffff;stroke-width:4.25;stroke-linecap:butt;stroke-linejoin:miter;stroke-miterlimit:4;stroke-opacity:1;stroke-dasharray:none"
       sodipodi:nodetypes="ccc" />
    <path
       sodipodi:nodetypes="cc"
       style="fill:none;stroke:#ffffff;stroke-width:4.25;stroke-linecap:butt;stroke-linejoin:miter;stroke-miterlimit:4;stroke-opacity:1;stroke-dasharray:none"
       d="m 445.65994,495.05186 17.95171,0"
       id="path3959"
       inkscape:path-effect="#path-effect3961"
       inkscape:original-d="m 445.65994,495.05186 17.95171,0"
       inkscape:connector-curvature="0" />
    <path
       inkscape:connector-curvature="0"
       inkscape:original-d="m 456.54045,515.05186 7.0712,0 c 0,0 0.37841,21.54314 0,18.78405"
       inkscape:path-effect="#path-effect3965"
       id="path3963"
       d="m 456.54045,515.05186 7.0712,0 0,18.78405"
       style="fill:none;stroke:#ffffff;stroke-width:4.25;stroke-linecap:butt;stroke-linejoin:miter;stroke-miterlimit:4;stroke-opacity:1;stroke-dasharray:none"
       sodipodi:nodetypes="ccc" />
    <path
       sodipodi:nodetypes="ccc"
       style="fill:none;stroke:#ffffff;stroke-width:4.25;stroke-linecap:butt;stroke-linejoin:miter;stroke-miterlimit:4;stroke-opacity:1;stroke-dasharray:none"
       d="m 445.65994,515.05186 7.07121,0 0,18.78405"
       id="path3967"
       inkscape:path-effect="#path-effect4024"
       inkscape:original-d="m 445.65994,515.05186 7.07121,0 c 0,0 0.37841,21.54314 0,18.78405"
       inkscape:connector-curvature="0" />
    <path
       sodipodi:nodetypes="cccc"
       style="fill:none;stroke:#ffffff;stroke-width:4.25;stroke-linecap:butt;stroke-linejoin:miter;stroke-miterlimit:4;stroke-opacity:1;stroke-dasharray:none"
       d="m 546.15946,501.94187 -17.95171,0 0,-17.60164 17.95171,-0.10748"
       id="path3969"
       inkscape:path-effect="#path-effect3971"
       inkscape:original-d="m 546.15946,501.94187 -17.95171,0 c 0,0 -0.37841,-20.25326 0,-17.60164 8.82361,-14.20094 12.55714,-3.03237 17.95171,-0.10748"
       inkscape:connector-curvature="0" />
    <path
       inkscape:connector-curvature="0"
       inkscape:original-d="m 546.15946,533.94187 -17.95171,0 c 0,0 -0.37841,-20.25326 0,-17.60164 8.82361,-14.20094 12.55714,-3.03237 17.95171,-0.10748"
       inkscape:path-effect="#path-effect3979"
       id="path3977"
       d="m 546.15946,533.94187 -17.95171,0 0,-17.60164 17.95171,-0.10748"
       style="fill:none;stroke:#ffffff;stroke-width:4.25;stroke-linecap:butt;stroke-linejoin:miter;stroke-miterlimit:4;stroke-opacity:1;stroke-dasharray:none"
       sodipodi:nodetypes="cccc" />
    <path
       inkscape:connector-curvature="0"
       inkscape:original-d="m 528.27051,524.97704 17.95172,0"
       inkscape:path-effect="#path-effect3983"
       id="path3981"
       d="m 528.27051,524.97704 17.95172,0"
       style="fill:none;stroke:#ffffff;stroke-width:4.25;stroke-linecap:butt;stroke-linejoin:miter;stroke-miterlimit:4;stroke-opacity:1;stroke-dasharray:none"
       sodipodi:nodetypes="cc" />
    <path
       style="color:#000000;fill:none;stroke:#ffffff;stroke-width:4.25;stroke-linecap:butt;stroke-linejoin:miter;stroke-miterlimit:4;stroke-opacity:1;stroke-dashoffset:0;marker:none;visibility:visible;display:inline;overflow:visible;enable-background:accumulate"
       d="m 605.8755,534.06819 10.76548,-16.9429 10.76548,16.94289"
       id="path3985"
       inkscape:connector-curvature="0"
       sodipodi:nodetypes="ccc" />
    <path
       sodipodi:nodetypes="cc"
       style="fill:none;stroke:#ffffff;stroke-width:4.25;stroke-linecap:butt;stroke-linejoin:miter;stroke-miterlimit:4;stroke-opacity:1;stroke-dasharray:none"
       d="m 605.0917,515.10173 23.09856,0"
       id="path3987"
       inkscape:path-effect="#path-effect3989"
       inkscape:original-d="m 605.0917,515.10173 23.09856,0"
       inkscape:connector-curvature="0"
       inkscape:transform-center-x="53.658951"
       inkscape:transform-center-y="16.510446" />
    <path
       sodipodi:nodetypes="ccc"
       inkscape:connector-curvature="0"
       id="path3991"
       d="m 605.8755,502.06819 10.76548,-16.9429 10.76548,16.94289"
       style="color:#000000;fill:none;stroke:#ffffff;stroke-width:4.25;stroke-linecap:butt;stroke-linejoin:miter;stroke-miterlimit:4;stroke-opacity:1;stroke-dashoffset:0;marker:none;visibility:visible;display:inline;overflow:visible;enable-background:accumulate" />
    <path
       inkscape:transform-center-y="16.510446"
       inkscape:transform-center-x="53.658951"
       inkscape:connector-curvature="0"
       inkscape:original-d="m 605.0917,489.76473 23.09856,0"
       inkscape:path-effect="#path-effect3995"
       id="path3993"
       d="m 605.0917,489.76473 23.09856,0"
       style="fill:none;stroke:#ffffff;stroke-width:4.25;stroke-linecap:butt;stroke-linejoin:miter;stroke-miterlimit:4;stroke-opacity:1;stroke-dasharray:none"
       sodipodi:nodetypes="cc" />
    <g
       id="g4030">
      <path
         id="rect3997"
         d="m 691.64075,487.61676 14.76318,0 0,9.4424 -14.76318,0 z"
         style="color:#000000;fill:none;stroke:#ffffff;stroke-width:4.25;stroke-linecap:butt;stroke-linejoin:miter;stroke-miterlimit:4;stroke-dashoffset:0;stroke-opacity:1;marker:none;visibility:visible;display:inline;overflow:visible;enable-background:accumulate" />
      <path
         sodipodi:nodetypes="cccc"
         inkscape:connector-curvature="0"
         style="color:#000000;fill:none;stroke:#ffffff;stroke-width:4.25;stroke-linecap:butt;stroke-linejoin:miter;stroke-miterlimit:4;stroke-opacity:1;stroke-dashoffset:0;marker:none;visibility:visible;display:inline;overflow:visible;enable-background:accumulate"
         d="m 706.40393,481.61676 0,9.4424 m -14.76318,0 0,-9.4424"
         id="path4022" />
    </g>
    <path
       sodipodi:nodetypes="cccc"
       inkscape:connector-curvature="0"
       style="color:#000000;fill:none;stroke:#ffffff;stroke-width:4.25;stroke-linecap:butt;stroke-linejoin:miter;stroke-miterlimit:4;stroke-opacity:1;stroke-dashoffset:0;marker:none;visibility:visible;display:inline;overflow:visible;enable-background:accumulate"
       d="m 703.40393,518.01095 0,11.00409 m -8.76318,0 0,-11.00409"
       id="path4026" />
    <path
       id="path4028"
       d="m 707.74354,529.67543 -17.4424,0 m 0,-14.76318 17.4424,0"
       style="color:#000000;fill:none;stroke:#ffffff;stroke-width:4.25;stroke-linecap:butt;stroke-linejoin:miter;stroke-miterlimit:4;stroke-opacity:1;stroke-dashoffset:0;marker:none;visibility:visible;display:inline;overflow:visible;enable-background:accumulate"
       inkscape:connector-curvature="0"
       sodipodi:nodetypes="cccc" />
    <path
       sodipodi:type="arc"
       style="color:#000000;fill:none;stroke:#ffffff;stroke-width:3.37464285;stroke-linecap:butt;stroke-linejoin:miter;stroke-miterlimit:4;stroke-opacity:1;stroke-dasharray:none;stroke-dashoffset:0;marker:none;visibility:visible;display:inline;overflow:visible;enable-background:accumulate"
       id="path4034"
       sodipodi:cx="751.16064"
       sodipodi:cy="490.14328"
       sodipodi:rx="7.2714291"
       sodipodi:ry="7.2714291"
       d="m 758.43207,490.14328 a 7.2714291,7.2714291 0 1 1 -14.54285,0 7.2714291,7.2714291 0 1 1 14.54285,0 z"
       transform="matrix(1.2727273,0,0,1.2727273,-173.9466,-122.14118)" />
    <path
       style="color:#000000;fill:none;stroke:#ffffff;stroke-width:4.25;stroke-linecap:butt;stroke-linejoin:miter;stroke-miterlimit:4;stroke-opacity:1;stroke-dashoffset:0;marker:none;visibility:visible;display:inline;overflow:visible;enable-background:accumulate"
       d="m 773.35486,487.18103 17.4424,0"
       id="path4036"
       inkscape:connector-curvature="0" />
    <path
       style="color:#000000;fill:none;stroke:#ffffff;stroke-width:4.25;stroke-linecap:butt;stroke-linejoin:miter;stroke-miterlimit:4;stroke-opacity:1;stroke-dashoffset:0;marker:none;visibility:visible;display:inline;overflow:visible;enable-background:accumulate"
       d="m 782.07606,486.82713 0,-5.02751"
       id="path4044"
       inkscape:connector-curvature="0" />
  </g>
</svg>
