<?xml version="1.0" encoding="UTF-8" standalone="no"?>
<!-- Created with Inkscape (http://www.inkscape.org/) -->

<svg
   xmlns:dc="http://purl.org/dc/elements/1.1/"
   xmlns:cc="http://creativecommons.org/ns#"
   xmlns:rdf="http://www.w3.org/1999/02/22-rdf-syntax-ns#"
   xmlns:svg="http://www.w3.org/2000/svg"
   xmlns="http://www.w3.org/2000/svg"
   xmlns:sodipodi="http://sodipodi.sourceforge.net/DTD/sodipodi-0.dtd"
   xmlns:inkscape="http://www.inkscape.org/namespaces/inkscape"
   width="1024"
   height="768"
   id="svg2"
   version="1.1"
   inkscape:version="0.48.4 r9939"
   sodipodi:docname="1.svg"
   enable-background="new">
  <defs
     id="defs4">
    <inkscape:path-effect
       is_visible="true"
       id="path-effect4093"
       effect="spiro" />
    <inkscape:path-effect
       effect="spiro"
       id="path-effect3321"
       is_visible="true" />
    <inkscape:path-effect
       effect="spiro"
       id="path-effect3304"
       is_visible="true" />
    <inkscape:path-effect
       effect="spiro"
       id="path-effect4024"
       is_visible="true" />
    <inkscape:path-effect
       effect="spiro"
       id="path-effect4001"
       is_visible="true" />
    <inkscape:path-effect
       is_visible="true"
       id="path-effect3995"
       effect="spiro" />
    <inkscape:path-effect
       effect="spiro"
       id="path-effect3989"
       is_visible="true" />
    <inkscape:path-effect
       is_visible="true"
       id="path-effect3983"
       effect="spiro" />
    <inkscape:path-effect
       is_visible="true"
       id="path-effect3979"
       effect="spiro" />
    <inkscape:path-effect
       is_visible="true"
       id="path-effect3975"
       effect="spiro" />
    <inkscape:path-effect
       effect="spiro"
       id="path-effect3971"
       is_visible="true" />
    <inkscape:path-effect
       is_visible="true"
       id="path-effect3965"
       effect="spiro" />
    <inkscape:path-effect
       effect="spiro"
       id="path-effect3961"
       is_visible="true" />
    <inkscape:path-effect
       is_visible="true"
       id="path-effect3957"
       effect="spiro" />
    <inkscape:path-effect
       is_visible="true"
       id="path-effect3953"
       effect="spiro" />
    <inkscape:path-effect
       effect="spiro"
       id="path-effect3951"
       is_visible="true" />
    <inkscape:path-effect
       effect="spiro"
       id="path-effect3923"
       is_visible="true" />
    <inkscape:path-effect
       is_visible="true"
       id="path-effect3917"
       effect="spiro" />
    <inkscape:path-effect
       effect="spiro"
       id="path-effect3914"
       is_visible="true" />
    <inkscape:path-effect
       effect="spiro"
       id="path-effect3911"
       is_visible="true" />
    <inkscape:path-effect
       is_visible="true"
       id="path-effect3908"
       effect="spiro" />
    <inkscape:path-effect
       effect="spiro"
       id="path-effect3905"
       is_visible="true" />
    <inkscape:path-effect
       is_visible="true"
       id="path-effect3903"
       effect="spiro" />
    <inkscape:path-effect
       is_visible="true"
       id="path-effect3873"
       effect="spiro" />
    <inkscape:path-effect
       is_visible="true"
       id="path-effect3871"
       effect="spiro" />
    <inkscape:path-effect
       effect="spiro"
       id="path-effect3869"
       is_visible="true" />
    <inkscape:path-effect
       effect="spiro"
       id="path-effect3867"
       is_visible="true" />
    <inkscape:path-effect
       effect="spiro"
       id="path-effect3865"
       is_visible="true" />
    <inkscape:path-effect
       is_visible="true"
       id="path-effect3863"
       effect="spiro" />
    <inkscape:path-effect
       effect="spiro"
       id="path-effect3848"
       is_visible="true" />
    <inkscape:path-effect
       effect="spiro"
       id="path-effect3846"
       is_visible="true" />
    <inkscape:path-effect
       is_visible="true"
       id="path-effect3844"
       effect="spiro" />
    <inkscape:path-effect
       effect="spiro"
       id="path-effect3836"
       is_visible="true" />
    <inkscape:path-effect
       is_visible="true"
       id="path-effect3834"
       effect="spiro" />
    <inkscape:path-effect
       is_visible="true"
       id="path-effect3828"
       effect="spiro" />
    <inkscape:path-effect
       effect="spiro"
       id="path-effect3824"
       is_visible="true" />
    <inkscape:path-effect
       is_visible="true"
       id="path-effect3815"
       effect="spiro" />
    <inkscape:path-effect
       is_visible="true"
       id="path-effect3813"
       effect="spiro" />
    <inkscape:path-effect
       is_visible="true"
       id="path-effect3811"
       effect="spiro" />
    <inkscape:path-effect
       effect="spiro"
       id="path-effect3803"
       is_visible="true" />
    <inkscape:path-effect
       effect="spiro"
       id="path-effect3801"
       is_visible="true" />
    <inkscape:path-effect
       effect="spiro"
       id="path-effect3799"
       is_visible="true" />
    <inkscape:path-effect
       is_visible="true"
       id="path-effect3791"
       effect="spiro" />
    <inkscape:path-effect
       is_visible="true"
       id="path-effect3789"
       effect="spiro" />
    <inkscape:path-effect
       is_visible="true"
       id="path-effect3787"
       effect="spiro" />
    <inkscape:path-effect
       effect="spiro"
       id="path-effect3779"
       is_visible="true" />
    <inkscape:path-effect
       effect="spiro"
       id="path-effect3775"
       is_visible="true" />
    <inkscape:path-effect
       effect="spiro"
       id="path-effect3771"
       is_visible="true" />
    <filter
       inkscape:collect="always"
       id="filter3937">
      <feBlend
         inkscape:collect="always"
         mode="lighten"
         in2="BackgroundImage"
         id="feBlend3939" />
    </filter>
  </defs>
  <sodipodi:namedview
     id="base"
     pagecolor="#ffffff"
     bordercolor="#666666"
     borderopacity="1.0"
     inkscape:pageopacity="0.0"
     inkscape:pageshadow="2"
     inkscape:zoom="1.4631967"
     inkscape:cx="601.69068"
     inkscape:cy="255.43205"
     inkscape:document-units="px"
     inkscape:current-layer="layer1"
     showgrid="false"
     width="1024px"
     inkscape:window-width="1438"
     inkscape:window-height="844"
     inkscape:window-x="0"
     inkscape:window-y="27"
     inkscape:window-maximized="0" />
  <metadata
     id="metadata7">
    <rdf:RDF>
      <cc:Work
         rdf:about="">
        <dc:format>image/svg+xml</dc:format>
        <dc:type
           rdf:resource="http://purl.org/dc/dcmitype/StillImage" />
        <dc:title />
      </cc:Work>
    </rdf:RDF>
  </metadata>
  <g
     inkscape:label="Calque 1"
     inkscape:groupmode="layer"
     id="layer1"
     transform="translate(0,-284.36218)"
     style="display:inline">
    <rect
       style="color:#000000;fill:#000000;fill-opacity:1;fill-rule:evenodd;stroke:none;stroke-width:6;marker:none;visibility:visible;display:inline;overflow:visible;enable-background:accumulate"
       id="rect3753"
       width="1024"
       height="768"
       x="0"
       y="284.36218" />
  </g>
  <g
     inkscape:groupmode="layer"
     id="layer2"
     inkscape:label="Calque"
     style="filter:url(#filter3937)">
    <rect
       style="color:#000000;fill:none;stroke:none;stroke-width:0.49999997000000002;stroke-miterlimit:4;stroke-opacity:1;stroke-dasharray:none;marker:none;visibility:visible;display:inline;overflow:visible;enable-background:accumulate"
       id="rect2995"
       width="484.34882"
       height="222.95422"
       x="371.59036"
       y="342.59311" />
    <path
       inkscape:original-d="m 515.83011,370.32464 c -1.05074,2.22721 0.57632,4.0463 -0.91939,5.37151 -2.53824,2.24891 1.70745,2.48923 4.20295,2.88226 2.4955,0.39304 3.4149,-0.39303 4.46563,1.0481 1.05073,1.44113 0.6567,3.14429 0.26268,4.84745 -0.39403,1.70315 -1.44476,3.01328 -2.49549,4.1924 -1.05074,1.1791 -1.97014,3.01327 -0.13135,3.79934 1.83879,0.78607 2.75819,1.44114 4.20295,0.78607 1.44477,-0.65505 1.70745,-2.48923 1.70745,-2.48923 l 0.91939,4.19239 c 0,0 4.07162,-3.40631 4.99101,-4.3234 0.9194,-0.91709 6.96113,-0.65506 9.3253,-0.65506 2.36415,0 16.55184,5.89477 19.44137,8.25299 2.88952,2.35822 -0.31111,-0.29423 0.91666,1.70394"
       inkscape:path-effect="#path-effect3787"
       sodipodi:nodetypes="csssssssccsssc"
       inkscape:connector-curvature="0"
       id="path3781"
       d="m 515.83011,370.32464 c -0.69491,0.67801 -1.16836,1.57946 -1.33215,2.53642 -0.1638,0.95697 -0.0171,1.96456 0.41276,2.83509 0.39095,0.79173 1.00914,1.46413 1.74463,1.95275 0.73548,0.48861 1.58548,0.79595 2.45832,0.92951 0.76992,0.11781 1.55459,0.10285 2.3273,0.20078 0.7727,0.0979 1.56049,0.32505 2.13833,0.84732 0.32282,0.29177 0.56707,0.66627 0.72305,1.0725 0.15598,0.40622 0.22501,0.84355 0.22227,1.27868 -0.005,0.87026 -0.29386,1.71766 -0.68264,2.49627 -0.72709,1.45613 -1.80589,2.71815 -2.49549,4.1924 -0.28002,0.59864 -0.49504,1.23573 -0.54707,1.89457 -0.052,0.65885 0.0676,1.34296 0.41572,1.90477 0.41663,0.67247 1.14749,1.12889 1.928,1.25769 0.78052,0.12881 1.60005,-0.0589 2.27495,-0.47162 0.88428,-0.54071 1.52141,-1.46956 1.70745,-2.48923 l 0.91939,4.19239 c 1.12667,-1.93789 2.91225,-3.48463 4.99101,-4.3234 2.91877,-1.17772 6.19118,-0.94411 9.3253,-0.65506 3.63563,0.3353 7.30431,0.72791 10.75556,1.91918 3.45125,1.19127 6.7113,3.26272 8.68581,6.33381 0.34914,0.54305 0.65593,1.11332 0.91666,1.70394"
       style="fill:none;stroke:#ffffff;stroke-width:1.70000005;stroke-linecap:round;stroke-linejoin:round;stroke-miterlimit:4;stroke-opacity:1;stroke-dasharray:none" />
    <path
       sodipodi:nodetypes="cssssssccsssssssssc"
       inkscape:connector-curvature="0"
       inkscape:original-d="m 548.27163,434.52061 c -1.44476,-4.97846 -5.38502,-8.51578 -9.71931,-9.43287 -4.3343,-0.91709 -3.54624,1.04809 -6.96114,1.17911 -3.41491,0.131 -6.96114,-1.57215 -6.30443,-4.45441 0.65671,-2.88227 1.57611,-5.89556 0.52537,-8.5158 -1.05074,-2.62024 -4.07162,-5.3715 -4.85966,-6.55061 -0.78806,-1.17911 4.50935,-5.03086 1.97013,-3.79935 -1.41744,0.68744 3.28356,2.75125 4.99101,3.14429 l 1.5761,-5.63353 c 0,0 0.65671,5.10948 2.88953,5.10948 2.23282,0 6.04174,1.70316 5.64772,-1.0481 -0.39404,-2.75125 -2.10304,-2.35316 -3.94184,-2.48416 -1.83878,-0.13102 -3.54311,-3.28504 -1.967,-4.72617 0.78805,-0.72057 0.0106,-1.33599 1.5959,-2.119 1.5853,-0.78302 5.00643,-0.15681 4.70696,-0.49658 -2.29615,-2.60503 12.59676,0.25891 13.77884,0.38992 1.18208,0.13102 1.58001,-1.7086 4.21191,0.78374 1.24195,1.1761 0.65828,2.75671 1.18365,4.59087 0.52537,1.83418 4.99256,23.18916 5.78062,26.07143"
       inkscape:path-effect="#path-effect3789"
       id="path3783"
       d="m 548.27163,434.52061 c 0.0591,-2.53368 -0.98074,-5.07417 -2.79941,-6.83924 -1.81867,-1.76507 -4.38912,-2.7285 -6.9199,-2.59363 -2.3545,0.12547 -4.60352,1.1469 -6.96114,1.17911 -1.39702,0.0191 -2.81537,-0.327 -3.98033,-1.0983 -1.16497,-0.77129 -2.05677,-1.98477 -2.3241,-3.35611 -0.27538,-1.41267 0.10597,-2.85928 0.43011,-4.26156 0.16208,-0.70114 0.31083,-1.40853 0.35645,-2.12672 0.0456,-0.71818 -0.0149,-1.45136 -0.26119,-2.12752 -0.23616,-0.64824 -0.63627,-1.22631 -1.09397,-1.74254 -0.4577,-0.51624 -0.97448,-0.97606 -1.48038,-1.44517 -0.5059,-0.4691 -1.00453,-0.9514 -1.41798,-1.50371 -0.41346,-0.5523 -0.74121,-1.1809 -0.86733,-1.85919 -0.14038,-0.75499 -0.0203,-1.55562 0.3337,-2.23706 0.35404,-0.68145 0.93958,-1.23962 1.63643,-1.56229 1.05864,-0.49019 2.36304,-0.40625 3.35011,0.2156 0.98708,0.62185 1.62598,1.76216 1.6409,2.92869 l 1.5761,-5.63353 c 0.45289,1.93085 1.46825,3.72628 2.88953,5.10948 0.46841,0.45586 0.98414,0.87061 1.56762,1.16517 0.58348,0.29456 1.23935,0.46514 1.89134,0.41902 0.65199,-0.0461 1.29778,-0.32144 1.73278,-0.80929 0.21749,-0.24392 0.38016,-0.53785 0.46244,-0.85413 0.0823,-0.31628 0.0831,-0.65458 -0.006,-0.96887 -0.11045,-0.38757 -0.35454,-0.72884 -0.65639,-0.99584 -0.30186,-0.267 -0.66003,-0.46377 -1.03093,-0.62139 -0.7418,-0.31522 -1.54595,-0.48278 -2.25452,-0.86693 -0.81166,-0.44004 -1.46736,-1.16248 -1.82332,-2.01437 -0.35596,-0.85188 -0.40897,-1.82747 -0.14368,-2.7118 0.25971,-0.86574 0.82799,-1.64227 1.5959,-2.119 0.68358,-0.42437 1.49639,-0.60283 2.30009,-0.64061 0.80371,-0.0378 1.60692,0.0577 2.40687,0.14403 4.57399,0.49339 9.1881,0.68974 13.77884,0.38992 0.73269,-0.0478 1.46991,-0.10823 2.19937,-0.0246 0.72946,0.0837 1.46118,0.32341 2.01254,0.8083 0.61406,0.54003 0.95171,1.33832 1.09377,2.14362 0.14205,0.80531 0.10729,1.6297 0.0899,2.44725 -0.19139,8.98516 1.80945,18.00921 5.78062,26.07143"
       style="fill:none;stroke:#ffffff;stroke-width:1.70000005;stroke-linecap:round;stroke-linejoin:round;stroke-miterlimit:4;stroke-opacity:1;stroke-dasharray:none" />
    <path
       inkscape:connector-curvature="0"
       inkscape:original-d="m 535.04299,398.57619 18.74813,0 c 0,0 0.3952,17.44173 0,15.20791"
       inkscape:path-effect="#path-effect3791"
       id="path3785"
       d="m 535.04299,398.57619 18.74813,0 0,15.20791"
       style="fill:none;stroke:#ffffff;stroke-width:4.25;stroke-linecap:butt;stroke-linejoin:miter;stroke-miterlimit:4;stroke-opacity:1;stroke-dasharray:none"
       sodipodi:nodetypes="ccc" />
    <path
       style="fill:none;stroke:#ffffff;stroke-width:1.70000005;stroke-linecap:round;stroke-linejoin:round;stroke-miterlimit:4;stroke-opacity:1;stroke-dasharray:none"
       d="m 580.99075,370.32464 c -0.69491,0.67801 -1.16836,1.57946 -1.33216,2.53642 -0.1638,0.95696 -0.0171,1.96456 0.41276,2.83509 0.39095,0.79174 1.00914,1.46413 1.74463,1.95275 0.73549,0.48861 1.58549,0.79595 2.45833,0.92951 0.76992,0.11781 1.55459,0.10285 2.3273,0.20078 0.7727,0.0979 1.56049,0.32505 2.13833,0.84732 0.32282,0.29177 0.56707,0.66627 0.72305,1.0725 0.15598,0.40622 0.22501,0.84355 0.22227,1.27868 -0.005,0.87026 -0.29386,1.71766 -0.68264,2.49627 -0.72709,1.45613 -1.8059,2.71815 -2.4955,4.1924 -0.28002,0.59864 -0.49504,1.23573 -0.54707,1.89457 -0.052,0.65885 0.0677,1.34296 0.41573,1.90477 0.41663,0.67247 1.14749,1.12888 1.92801,1.25769 0.78051,0.1288 1.60004,-0.0589 2.27494,-0.47162 0.88428,-0.54071 1.52141,-1.46956 1.70745,-2.48923 l 0.91939,4.19239 c 1.12667,-1.93789 2.91225,-3.48463 4.99101,-4.3234 2.91877,-1.17772 6.19118,-0.94411 9.3253,-0.65506 3.63563,0.3353 7.30431,0.72791 10.75556,1.91918 3.45125,1.19127 6.7113,3.26272 8.68581,6.33381 0.34914,0.54305 0.65593,1.11332 0.91666,1.70394"
       id="path3793"
       inkscape:connector-curvature="0"
       sodipodi:nodetypes="csssssssccsssc"
       inkscape:path-effect="#path-effect3799"
       inkscape:original-d="m 580.99075,370.32464 c -1.05074,2.22721 0.57632,4.0463 -0.9194,5.37151 -2.53823,2.24891 1.70746,2.48923 4.20296,2.88226 2.4955,0.39304 3.41489,-0.39303 4.46563,1.0481 1.05074,1.44113 0.6567,3.14429 0.26268,4.84745 -0.39403,1.70315 -1.44476,3.01328 -2.4955,4.1924 -1.05073,1.1791 -1.97013,3.01327 -0.13134,3.79934 1.83879,0.78607 2.75819,1.44114 4.20295,0.78607 1.44477,-0.65505 1.70745,-2.48923 1.70745,-2.48923 l 0.91939,4.19239 c 0,0 4.07162,-3.40631 4.99101,-4.3234 0.9194,-0.91709 6.96113,-0.65506 9.3253,-0.65506 2.36415,0 16.55184,5.89477 19.44137,8.25299 2.88952,2.35822 -0.31111,-0.29423 0.91666,1.70394" />
    <path
       style="fill:none;stroke:#ffffff;stroke-width:1.70000005;stroke-linecap:round;stroke-linejoin:round;stroke-miterlimit:4;stroke-opacity:1;stroke-dasharray:none"
       d="m 613.43227,434.52061 c 0.0591,-2.53368 -0.98074,-5.07417 -2.79941,-6.83924 -1.81867,-1.76507 -4.38912,-2.7285 -6.9199,-2.59363 -2.3545,0.12547 -4.60352,1.1469 -6.96114,1.17911 -1.39702,0.0191 -2.81537,-0.327 -3.98033,-1.0983 -1.16497,-0.77129 -2.05677,-1.98477 -2.3241,-3.35611 -0.27538,-1.41267 0.10597,-2.85928 0.43011,-4.26156 0.16208,-0.70114 0.31083,-1.40853 0.35645,-2.12672 0.0456,-0.71818 -0.0149,-1.45136 -0.26119,-2.12752 -0.23616,-0.64824 -0.63627,-1.22631 -1.09397,-1.74254 -0.4577,-0.51624 -0.97448,-0.97606 -1.48038,-1.44517 -0.5059,-0.4691 -1.00453,-0.9514 -1.41798,-1.50371 -0.41346,-0.5523 -0.74121,-1.1809 -0.86733,-1.85919 -0.14038,-0.75499 -0.0203,-1.55562 0.3337,-2.23706 0.35404,-0.68145 0.93958,-1.23962 1.63643,-1.56229 1.05864,-0.49019 2.36304,-0.40624 3.35011,0.2156 0.98707,0.62185 1.62597,1.76216 1.64089,2.92869 l 1.57611,-5.63353 c 0.12993,2.02024 1.2252,3.95698 2.88953,5.10948 0.63866,0.44225 1.38973,0.78012 2.16545,0.73847 0.38786,-0.0208 0.7739,-0.13968 1.09037,-0.36488 0.31647,-0.2252 0.55935,-0.55982 0.64816,-0.93795 0.0675,-0.28742 0.0457,-0.59182 -0.0376,-0.87506 -0.0833,-0.28324 -0.22634,-0.54639 -0.39786,-0.78669 -0.34305,-0.4806 -0.79621,-0.86986 -1.19409,-1.30615 -0.92373,-1.01289 -1.54907,-2.29559 -1.77305,-3.64802 -0.22398,-1.35243 -0.0451,-2.76971 0.51255,-4.02202 0.43716,-0.98175 1.12045,-1.87532 2.03845,-2.4341 0.459,-0.27938 0.97275,-0.47207 1.50517,-0.54467 0.53241,-0.0726 1.08324,-0.0235 1.58833,0.15982 0.59369,0.21551 1.11095,0.61003 1.53716,1.07613 0.42621,0.4661 0.76687,1.00353 1.07931,1.55243 0.62487,1.09779 1.16899,2.28349 2.11533,3.12019 1.04218,0.92144 2.45435,1.3076 3.83548,1.47387 1.67402,0.20153 3.37198,0.12206 5.04691,0.31591 1.67493,0.19384 3.38875,0.70243 4.59846,1.87698 0.82347,0.79953 1.35814,1.85751 1.70036,2.95307 0.34222,1.09555 0.50456,2.23765 0.67862,3.37214 0.997,6.49808 2.42083,12.93065 4.25927,19.24248"
       id="path3795"
       inkscape:path-effect="#path-effect3801"
       inkscape:original-d="m 613.43227,434.52061 c -1.44476,-4.97846 -5.38502,-8.51578 -9.71931,-9.43287 -4.3343,-0.91709 -3.54624,1.04809 -6.96114,1.17911 -3.41491,0.131 -6.96114,-1.57215 -6.30443,-4.45441 0.65671,-2.88227 1.57611,-5.89556 0.52537,-8.5158 -1.05074,-2.62024 -4.07162,-5.3715 -4.85966,-6.55061 -0.78806,-1.17911 4.50936,-5.03086 1.97013,-3.79935 -1.41744,0.68744 3.28356,2.75125 4.991,3.14429 l 1.57611,-5.63353 c 0,0 0.65671,5.10948 2.88953,5.10948 2.23282,0 4.298,2.1869 3.90398,-0.56436 -0.39403,-2.75126 0.20922,-2.8369 -1.62957,-2.9679 -1.83879,-0.13102 -2.8366,-6.2289 -1.2605,-7.67004 0.78805,-0.72057 3.54668,-2.03594 5.13195,-2.81895 1.58531,-0.78301 5.24861,7.38926 4.7318,5.74875 -1.0425,-3.30919 2.6534,1.34287 3.83548,1.47387 1.18207,0.13101 7.01346,-0.29945 9.64537,2.19289 1.24195,1.17611 1.85362,4.49105 2.37898,6.32521 0.52537,1.83417 3.47121,16.36021 4.25927,19.24248"
       inkscape:connector-curvature="0"
       sodipodi:nodetypes="cssssssccsssssssssc" />
    <path
       sodipodi:nodetypes="ccc"
       style="fill:none;stroke:#ffffff;stroke-width:4.25;stroke-linecap:butt;stroke-linejoin:miter;stroke-miterlimit:4;stroke-opacity:1;stroke-dasharray:none"
       d="m 621.20255,409.01218 -18.74813,0 0,-15.20791"
       id="path3797"
       inkscape:path-effect="#path-effect3803"
       inkscape:original-d="m 621.20255,409.01218 -18.74813,0 c 0,0 -0.3952,-17.44172 0,-15.20791"
       inkscape:connector-curvature="0" />
    <path
       inkscape:original-d="m 648.0338,370.32464 c -1.05073,2.22721 0.57632,4.0463 -0.91939,5.37151 -2.53824,2.24891 1.70745,2.48923 4.20295,2.88226 2.4955,0.39304 3.4149,-0.39303 4.46564,1.0481 1.05072,1.44113 0.6567,3.14429 0.26267,4.84745 -0.39403,1.70315 -1.44475,3.01328 -2.49549,4.1924 -1.05074,1.1791 -1.97014,3.01327 -0.13135,3.79934 1.8388,0.78607 2.75819,1.44114 4.20295,0.78607 1.44477,-0.65505 1.70746,-2.48923 1.70746,-2.48923 l 0.91938,4.19239 c 0,0 4.07162,-3.40631 4.99102,-4.3234 0.91939,-0.91709 6.96112,-0.65506 9.32529,-0.65506 2.36415,0 16.55185,5.89477 19.44137,8.25299 2.88953,2.35822 -0.3111,-0.29423 0.91666,1.70394"
       inkscape:path-effect="#path-effect3811"
       sodipodi:nodetypes="csssssssccsssc"
       inkscape:connector-curvature="0"
       id="path3805"
       d="m 648.0338,370.32464 c -0.69491,0.67801 -1.16836,1.57946 -1.33215,2.53642 -0.1638,0.95697 -0.0171,1.96456 0.41276,2.83509 0.39095,0.79173 1.00914,1.46413 1.74463,1.95275 0.73548,0.48861 1.58548,0.79595 2.45832,0.92951 0.76993,0.11781 1.55459,0.10285 2.3273,0.20078 0.77271,0.0979 1.5605,0.32505 2.13834,0.84732 0.32282,0.29177 0.56707,0.66627 0.72305,1.0725 0.15597,0.40622 0.22501,0.84355 0.22226,1.27868 -0.005,0.87026 -0.29386,1.71766 -0.68264,2.49627 -0.72709,1.45613 -1.80589,2.71815 -2.49549,4.1924 -0.28002,0.59864 -0.49504,1.23573 -0.54707,1.89457 -0.052,0.65885 0.0676,1.34296 0.41572,1.90477 0.41663,0.67247 1.14749,1.12889 1.928,1.25769 0.78052,0.1288 1.60005,-0.0589 2.27495,-0.47162 0.88428,-0.54071 1.52142,-1.46956 1.70746,-2.48923 l 0.91938,4.19239 c 1.12667,-1.93789 2.91226,-3.48463 4.99102,-4.3234 2.91877,-1.17771 6.19117,-0.9441 9.32529,-0.65506 3.63563,0.3353 7.30431,0.72791 10.75556,1.91918 3.45125,1.19127 6.7113,3.26272 8.68581,6.33381 0.34914,0.54305 0.65593,1.11332 0.91666,1.70394"
       style="fill:none;stroke:#ffffff;stroke-width:1.70000005;stroke-linecap:round;stroke-linejoin:round;stroke-miterlimit:4;stroke-opacity:1;stroke-dasharray:none" />
    <path
       sodipodi:nodetypes="cssssssccsssssssssc"
       inkscape:connector-curvature="0"
       inkscape:original-d="m 680.47532,434.52061 c -1.44476,-4.97846 -5.38502,-8.51578 -9.71931,-9.43287 -4.33429,-0.91709 -3.54624,1.04809 -6.96114,1.17911 -3.41491,0.131 -6.96114,-1.57215 -6.30443,-4.45441 0.65672,-2.88227 1.57611,-5.89556 0.52537,-8.5158 -1.05074,-2.62024 -4.07161,-5.3715 -4.85966,-6.55061 -0.78805,-1.17911 4.50935,-5.03086 1.97013,-3.79935 -1.41744,0.68744 3.28356,2.75125 4.99101,3.14429 l 1.79705,-5.2662 c 0,0 0.43577,4.74215 2.66858,4.74215 2.23282,0 3.31765,1.13106 2.20706,-1.4178 -1.1444,-2.62651 0.83736,-2.23296 -1.00143,-2.36397 -1.8388,-0.13101 -5.3863,-2.52017 -3.8102,-3.96131 0.78806,-0.72057 -1.62795,-2.44528 -0.0427,-3.2283 1.5853,-0.78301 2.86256,1.34538 2.34574,-0.29514 -1.0425,-3.30918 13.83257,4.33689 15.01465,4.46789 1.18207,0.13101 7.01347,-0.29945 9.64537,2.19289 1.24195,1.17611 1.85362,4.49105 2.37899,6.32521 0.52537,1.83417 3.47121,16.36021 4.25926,19.24248"
       inkscape:path-effect="#path-effect3813"
       id="path3807"
       d="m 680.47532,434.52061 c 0.0591,-2.53368 -0.98074,-5.07417 -2.79941,-6.83924 -1.81867,-1.76507 -4.38912,-2.7285 -6.9199,-2.59363 -2.3545,0.12547 -4.60352,1.1469 -6.96114,1.17911 -1.39702,0.0191 -2.81537,-0.327 -3.98033,-1.0983 -1.16497,-0.77129 -2.05677,-1.98477 -2.3241,-3.35611 -0.27538,-1.41267 0.10597,-2.85928 0.43011,-4.26156 0.16208,-0.70114 0.31083,-1.40853 0.35645,-2.12672 0.0456,-0.71818 -0.0149,-1.45136 -0.26119,-2.12752 -0.23616,-0.64824 -0.63627,-1.22631 -1.09397,-1.74254 -0.4577,-0.51624 -0.97448,-0.97606 -1.48038,-1.44517 -0.5059,-0.4691 -1.00453,-0.9514 -1.41798,-1.50371 -0.41346,-0.5523 -0.74121,-1.1809 -0.86733,-1.85919 -0.14038,-0.75499 -0.0203,-1.55562 0.3337,-2.23706 0.35404,-0.68145 0.93958,-1.23962 1.63643,-1.56229 1.05864,-0.49019 2.36304,-0.40625 3.35011,0.2156 0.98708,0.62185 1.62598,1.76216 1.6409,2.92869 l 1.79705,-5.2662 c -0.2648,0.47424 -0.4056,1.01702 -0.4047,1.56018 9e-4,0.54316 0.1435,1.08548 0.40987,1.55884 0.26638,0.47336 0.65594,0.87669 1.11976,1.15935 0.46381,0.28266 1.00085,0.44401 1.54365,0.46378 0.47415,0.0173 0.95928,-0.0758 1.36798,-0.31684 0.4087,-0.24099 0.73415,-0.63825 0.83908,-1.10096 0.0987,-0.43528 -7e-4,-0.89812 -0.20034,-1.29732 -0.19963,-0.39919 -0.49382,-0.74292 -0.80109,-1.06665 -1.26435,-1.33208 -2.81413,-2.41831 -3.8102,-3.96131 -0.31964,-0.49516 -0.58081,-1.04534 -0.63144,-1.63253 -0.0253,-0.2936 0.003,-0.59346 0.10014,-0.87182 0.0967,-0.27835 0.26285,-0.53454 0.4886,-0.72395 0.31248,-0.26219 0.72376,-0.38507 1.13086,-0.41077 0.4071,-0.0257 0.81422,0.039 1.21488,0.11563 5.14103,0.9827 9.80823,3.93017 15.01465,4.46789 1.67869,0.17338 3.37727,0.0903 5.05307,0.28973 1.67579,0.19944 3.38651,0.72243 4.5923,1.90316 0.81978,0.80274 1.35287,1.86024 1.6956,2.95521 0.34274,1.09497 0.50737,2.23623 0.68339,3.37 1.0085,6.49605 2.43211,12.92763 4.25926,19.24248"
       style="fill:none;stroke:#ffffff;stroke-width:1.70000005;stroke-linecap:round;stroke-linejoin:round;stroke-miterlimit:4;stroke-opacity:1;stroke-dasharray:none" />
    <path
       style="color:#000000;fill:none;stroke:#ffffff;stroke-width:4.25;stroke-linecap:butt;stroke-linejoin:miter;stroke-miterlimit:4;stroke-opacity:1;stroke-dashoffset:0;marker:none;visibility:visible;display:inline;overflow:visible;enable-background:accumulate"
       d="m 657.55188,408.1757 7.06279,-9.54005 7.06278,9.54004"
       id="rect3817"
       inkscape:connector-curvature="0"
       sodipodi:nodetypes="ccc" />
    <path
       style="fill:none;stroke:#ffffff;stroke-width:1.70000005;stroke-linecap:round;stroke-linejoin:round;stroke-miterlimit:4;stroke-opacity:1;stroke-dasharray:none"
       d="m 453.93798,403.40409 c 3.93231,0.41065 7.96895,-0.2234 11.586,-1.81985 1.98357,-0.87548 3.8396,-2.03415 5.51714,-3.4078 1.33369,-1.09209 2.55585,-2.32031 3.64132,-3.65939 0.46828,0.14163 0.94881,0.24278 1.43445,0.30193 1.38881,0.16916 2.79396,-0.006 4.19303,-0.006 1.39907,0 2.80422,0.17516 4.19302,0.006 0.48564,-0.0591 0.96617,-0.1603 1.43445,-0.30193 1.08547,1.33908 2.30763,2.5673 3.64132,3.65939 1.67754,1.37365 3.53357,2.53232 5.51714,3.4078 3.61705,1.59645 7.65369,2.2305 11.58601,1.81985"
       id="path3853"
       inkscape:path-effect="#path-effect3865"
       inkscape:original-d="m 453.93798,403.40409 c 4.30337,-0.77297 9.15846,-0.17728 11.586,-1.81985 2.42754,-1.64257 3.08961,-3.31118 5.51714,-3.4078 2.42754,-0.0966 3.64132,-3.65939 3.64132,-3.65939 0,0 -1.10343,-0.13834 1.43445,0.30193 2.53788,0.44026 0.80243,-0.006 4.19303,-0.006 3.39059,0 1.65514,0.44667 4.19302,0.006 2.53788,-0.44027 1.43445,-0.30193 1.43445,-0.30193 -0.66975,1.00211 1.21378,3.56277 3.64132,3.65939 2.42754,0.0966 3.0896,1.76523 5.51714,3.4078 2.42754,1.64257 7.28263,1.04688 11.58601,1.81985"
       inkscape:connector-curvature="0"
       sodipodi:nodetypes="csscssscssc" />
    <g
       id="g3877"
       transform="matrix(0.81165786,0,0,0.80961854,-59.10081,7.4545099)">
      <path
         style="fill:none;stroke:#ffffff;stroke-width:2.0971148;stroke-linecap:round;stroke-linejoin:round;stroke-miterlimit:4;stroke-opacity:1;stroke-dasharray:none"
         d="m 632.08751,489.05696 c 1.26116,-0.99286 2.44422,-2.08491 3.53464,-3.26274 3.29119,-3.55502 5.6903,-7.83083 8.65514,-11.66225 1.48242,-1.91571 3.11704,-3.73007 5.01987,-5.22899 1.90283,-1.49891 4.08639,-2.67809 6.44521,-3.22898 2.93755,-0.68605 6.10194,-0.35838 8.83659,0.91501"
         id="path3851"
         inkscape:path-effect="#path-effect3863"
         inkscape:original-d="m 632.08751,489.05696 c 5.30195,-2.17516 0.5438,1.35947 3.53464,-3.26274 2.99084,-4.62221 17.12938,-19.84832 20.12022,-20.12022 2.99084,-0.27189 8.83659,0.91501 8.83659,0.91501"
         inkscape:connector-curvature="0"
         sodipodi:nodetypes="cssc" />
      <path
         sodipodi:nodetypes="cssc"
         inkscape:connector-curvature="0"
         inkscape:original-d="m 697.0704,489.05696 c -5.30195,-2.17516 -0.5438,1.35947 -3.53464,-3.26274 -2.99084,-4.62221 -17.12938,-19.84832 -20.12022,-20.12022 -2.99084,-0.27189 -8.83659,0.91501 -8.83659,0.91501"
         inkscape:path-effect="#path-effect3867"
         id="path3855"
         d="m 697.0704,489.05696 c -1.26116,-0.99286 -2.44422,-2.08491 -3.53464,-3.26274 -3.29119,-3.55502 -5.6903,-7.83083 -8.65514,-11.66225 -1.48242,-1.91571 -3.11704,-3.73007 -5.01987,-5.22899 -1.90283,-1.49891 -4.08639,-2.67809 -6.44521,-3.22898 -2.93755,-0.68605 -6.10194,-0.35838 -8.83659,0.91501"
         style="fill:none;stroke:#ffffff;stroke-width:2.0971148;stroke-linecap:round;stroke-linejoin:round;stroke-miterlimit:4;stroke-opacity:1;stroke-dasharray:none" />
    </g>
    <path
       sodipodi:nodetypes="csscssscssc"
       inkscape:connector-curvature="0"
       inkscape:original-d="m 453.93798,403.71214 c 4.30337,0.6761 9.15846,0.15506 11.586,1.59178 2.42754,1.43671 3.08961,2.89621 5.51714,2.98071 2.42754,0.0845 3.64132,3.03362 3.64132,3.03362 0,0 -1.10343,0.28816 1.43445,-0.0969 2.53788,-0.38509 0.80243,0.0754 4.19303,0.0754 3.39059,0 1.65514,-0.46046 4.19302,-0.0754 2.53788,0.38509 1.43445,0.0969 1.43445,0.0969 0,0 1.21378,-2.94911 3.64132,-3.03362 2.42754,-0.0845 3.0896,-1.544 5.51714,-2.98071 2.42754,-1.43672 7.28263,-0.91568 11.58601,-1.59178"
       inkscape:path-effect="#path-effect3871"
       id="path3859"
       d="m 453.93798,403.71214 c 3.91512,-0.39712 7.92304,0.15352 11.586,1.59178 1.95023,0.76576 3.80125,1.77842 5.51714,2.98071 1.29532,0.9076 2.51472,1.9235 3.64132,3.03362 0.47667,-0.0506 0.95529,-0.083 1.43445,-0.0969 1.39751,-0.0406 2.79493,0.0754 4.19303,0.0754 1.3981,0 2.79551,-0.116 4.19302,-0.0754 0.47916,0.0139 0.95778,0.0463 1.43445,0.0969 1.1266,-1.11012 2.346,-2.12602 3.64132,-3.03362 1.71589,-1.20229 3.56691,-2.21495 5.51714,-2.98071 3.66296,-1.43826 7.67089,-1.9889 11.58601,-1.59178"
       style="fill:none;stroke:#ffffff;stroke-width:1.70000005;stroke-linecap:round;stroke-linejoin:round;stroke-miterlimit:4;stroke-opacity:1;stroke-dasharray:none" />
    <g
       id="g3881"
       transform="matrix(0.81165786,0,0,0.80961854,-59.10081,7.4545099)">
      <path
         sodipodi:nodetypes="cssc"
         inkscape:connector-curvature="0"
         inkscape:original-d="m 632.08751,489.43745 c 5.30195,1.90255 0.5438,-1.1891 3.53464,2.85383 2.99084,4.04293 17.12938,17.36082 20.12022,17.59865 2.99084,0.23781 8.83659,-0.80034 8.83659,-0.80034"
         inkscape:path-effect="#path-effect3869"
         id="path3857"
         d="m 632.08751,489.43745 c 1.24401,0.8657 2.42621,1.8202 3.53464,2.85383 3.31332,3.08973 5.92722,6.8435 8.9772,10.19344 3.04998,3.34995 6.72718,6.39282 11.14302,7.40521 2.93124,0.67203 6.07379,0.3874 8.83659,-0.80034"
         style="fill:none;stroke:#ffffff;stroke-width:2.0971148;stroke-linecap:round;stroke-linejoin:round;stroke-miterlimit:4;stroke-opacity:1;stroke-dasharray:none" />
      <path
         style="fill:none;stroke:#ffffff;stroke-width:2.0971148;stroke-linecap:round;stroke-linejoin:round;stroke-miterlimit:4;stroke-opacity:1;stroke-dasharray:none"
         d="m 697.0704,489.43745 c -1.24401,0.8657 -2.42621,1.8202 -3.53464,2.85383 -3.31332,3.08973 -5.92722,6.8435 -8.9772,10.19344 -3.04998,3.34995 -6.72718,6.39282 -11.14302,7.40521 -2.93124,0.67203 -6.07379,0.3874 -8.83659,-0.80034"
         id="path3861"
         inkscape:path-effect="#path-effect3873"
         inkscape:original-d="m 697.0704,489.43745 c -5.30195,1.90255 -0.5438,-1.1891 -3.53464,2.85383 -2.99084,4.04293 -17.12938,17.36082 -20.12022,17.59865 -2.99084,0.23781 -8.83659,-0.80034 -8.83659,-0.80034"
         inkscape:connector-curvature="0"
         sodipodi:nodetypes="cssc" />
    </g>
    <rect
       style="color:#000000;fill:none;stroke:#ffffff;stroke-width:4.25;stroke-linecap:round;stroke-linejoin:round;stroke-miterlimit:4;stroke-opacity:1;stroke-dasharray:none;stroke-dashoffset:0;marker:none;visibility:visible;display:inline;overflow:visible;enable-background:accumulate"
       id="rect3875"
       width="11.982665"
       height="11.952559"
       x="474.31854"
       y="396.88071" />
    <path
       sodipodi:nodetypes="csscssscssc"
       inkscape:connector-curvature="0"
       inkscape:original-d="m 715.34916,403.29206 c 4.30337,-1.59115 5.91183,-0.36493 8.33937,-3.74613 2.42754,-3.38119 3.0896,-6.81598 5.51714,-7.01487 2.42753,-0.19889 6.88794,-8.44958 6.88794,-8.44958 0,0 -1.10343,0.0744 1.43445,0.98059 2.5379,0.90627 0.80245,1.13283 4.19303,1.13283 3.39059,0 1.65514,-0.22656 4.19303,-1.13283 2.53789,-0.90627 1.43446,-0.98059 1.43446,-0.98059 0,0 4.46041,8.25069 6.88794,8.44958 2.42754,0.19889 3.0896,3.63368 5.51714,7.01487 2.42754,3.3812 4.03601,2.15498 8.33937,3.74613"
       inkscape:path-effect="#path-effect3903"
       id="path3885"
       d="m 715.34916,403.29206 c 3.07458,-0.35892 6.02897,-1.68606 8.33937,-3.74613 2.22622,-1.985 3.81061,-4.56864 5.51714,-7.01487 2.081,-2.98302 4.38555,-5.81006 6.88794,-8.44958 0.44739,0.36908 0.92813,0.69772 1.43445,0.98059 1.2777,0.71383 2.72945,1.13283 4.19303,1.13283 1.46358,0 2.91533,-0.419 4.19303,-1.13283 0.50632,-0.28287 0.98707,-0.61151 1.43446,-0.98059 2.50239,2.63952 4.80694,5.46656 6.88794,8.44958 1.70653,2.44623 3.29092,5.02987 5.51714,7.01487 2.3104,2.06007 5.26479,3.38721 8.33937,3.74613"
       style="fill:none;stroke:#ffffff;stroke-width:1.90676808;stroke-linecap:round;stroke-linejoin:round;stroke-miterlimit:4;stroke-opacity:1;stroke-dasharray:none" />
    <path
       style="fill:none;stroke:#ffffff;stroke-width:1.79460537;stroke-linecap:round;stroke-linejoin:round;stroke-miterlimit:4;stroke-opacity:1;stroke-dasharray:none"
       d="m 715.34916,403.04637 c 1.09,-1.23562 2.053,-2.58322 2.86892,-4.0147 2.55476,-4.48217 3.60717,-9.6512 5.66432,-14.38245 1.02857,-2.36563 2.3259,-4.64346 4.09592,-6.51995 1.77002,-1.87648 4.04329,-3.33772 6.57049,-3.85485 2.42219,-0.49564 5.01847,-0.0881 7.17229,1.12589"
       id="path3889"
       inkscape:path-effect="#path-effect3911"
       inkscape:original-d="m 715.34916,403.04637 c 4.30337,-2.67646 0.44138,1.67277 2.86892,-4.0147 2.42754,-5.68747 13.9032,-24.42269 16.33073,-24.75725 2.42754,-0.33456 7.17229,1.12589 7.17229,1.12589"
       inkscape:connector-curvature="0"
       sodipodi:nodetypes="cssc" />
    <path
       sodipodi:nodetypes="cssc"
       inkscape:connector-curvature="0"
       inkscape:original-d="m 768.09303,403.04637 c -4.30336,-2.67646 -0.44138,1.67277 -2.86891,-4.0147 -2.42755,-5.68747 -13.9032,-24.42269 -16.33074,-24.75725 -2.42754,-0.33456 -7.17229,1.12589 -7.17229,1.12589"
       inkscape:path-effect="#path-effect3908"
       id="path3891"
       d="m 768.09303,403.04637 c -1.09,-1.23562 -2.05299,-2.58322 -2.86891,-4.0147 -2.55476,-4.48217 -3.60717,-9.6512 -5.66432,-14.38245 -1.02858,-2.36563 -2.32591,-4.64346 -4.09593,-6.51995 -1.77001,-1.87648 -4.04329,-3.33772 -6.57049,-3.85485 -2.42219,-0.49564 -5.01847,-0.0881 -7.17229,1.12589"
       style="fill:none;stroke:#ffffff;stroke-width:1.79460537;stroke-linecap:round;stroke-linejoin:round;stroke-miterlimit:4;stroke-opacity:1;stroke-dasharray:none" />
    <path
       style="fill:none;stroke:#ffffff;stroke-width:1.90676808;stroke-linecap:round;stroke-linejoin:round;stroke-miterlimit:4;stroke-opacity:1;stroke-dasharray:none"
       d="m 715.34916,403.79856 c 2.97936,0.21123 5.8959,1.24869 8.33937,2.96645 2.76686,1.9451 4.85985,4.67656 7.14046,7.1741 1.64423,1.80063 3.4039,3.49583 5.26462,5.07173 0.47579,-0.18008 0.954,-0.35376 1.43445,-0.521 1.35645,-0.47216 2.75675,-0.89704 4.19303,-0.89704 1.43627,0 2.83658,0.42489 4.19303,0.89704 0.48046,0.16724 0.95867,0.34093 1.43446,0.521 1.86072,-1.5759 3.62039,-3.2711 5.26462,-5.07173 2.28061,-2.49754 4.3736,-5.229 7.14046,-7.1741 2.44347,-1.71776 5.36001,-2.75522 8.33937,-2.96645"
       id="path3893"
       inkscape:path-effect="#path-effect3905"
       inkscape:original-d="m 715.34916,403.79856 c 4.30337,1.25998 5.91183,0.28897 8.33937,2.96645 2.42754,2.67746 4.71291,7.01661 7.14046,7.1741 2.42753,0.15748 5.26462,5.07173 5.26462,5.07173 0,0 -1.10343,0.19666 1.43445,-0.521 2.5379,-0.71764 0.80245,-0.89704 4.19303,-0.89704 3.39059,0 1.65514,0.1794 4.19303,0.89704 2.53789,0.71766 1.43446,0.521 1.43446,0.521 0,0 2.83709,-4.91425 5.26462,-5.07173 2.42755,-0.15749 4.71292,-4.49664 7.14046,-7.1741 2.42754,-2.67748 4.03601,-1.70647 8.33937,-2.96645"
       inkscape:connector-curvature="0"
       sodipodi:nodetypes="csscssscssc" />
    <path
       sodipodi:nodetypes="cssc"
       inkscape:connector-curvature="0"
       inkscape:original-d="m 715.34916,404.00857 c 4.30337,2.20382 0.44138,-1.37738 2.86892,3.30572 2.42754,4.68312 13.9032,20.10982 16.33073,20.38531 2.42754,0.27547 7.17229,-0.92707 7.17229,-0.92707"
       inkscape:path-effect="#path-effect3917"
       id="path3897"
       d="m 715.34916,404.00857 c 1.05399,1.01179 2.01559,2.11979 2.86892,3.30572 2.62335,3.64586 4.17279,7.94284 6.42318,11.83 1.1252,1.94358 2.43831,3.79834 4.08181,5.32885 1.64351,1.5305 3.63564,2.72944 5.82574,3.22646 2.40005,0.54467 4.98961,0.20995 7.17229,-0.92707"
       style="fill:none;stroke:#ffffff;stroke-width:1.79460537;stroke-linecap:round;stroke-linejoin:round;stroke-miterlimit:4;stroke-opacity:1;stroke-dasharray:none" />
    <path
       style="fill:none;stroke:#ffffff;stroke-width:1.79460537;stroke-linecap:round;stroke-linejoin:round;stroke-miterlimit:4;stroke-opacity:1;stroke-dasharray:none"
       d="m 768.09303,404.00857 c -1.05399,1.01179 -2.01558,2.11979 -2.86891,3.30572 -2.62335,3.64586 -4.17279,7.94285 -6.42318,11.83 -1.1252,1.94358 -2.43831,3.79835 -4.08182,5.32885 -1.64351,1.5305 -3.63564,2.72944 -5.82574,3.22646 -2.40005,0.54466 -4.98961,0.20995 -7.17229,-0.92707"
       id="path3899"
       inkscape:path-effect="#path-effect3914"
       inkscape:original-d="m 768.09303,404.00857 c -4.30336,2.20382 -0.44138,-1.37738 -2.86891,3.30572 -2.42755,4.68312 -13.9032,20.10982 -16.33074,20.38531 -2.42754,0.27547 -7.17229,-0.92707 -7.17229,-0.92707"
       inkscape:connector-curvature="0"
       sodipodi:nodetypes="cssc" />
    <path
       sodipodi:type="arc"
       style="color:#000000;fill:none;stroke:#ffffff;stroke-width:4.16294909;stroke-linecap:butt;stroke-linejoin:miter;stroke-miterlimit:4;stroke-opacity:1;stroke-dasharray:none;stroke-dashoffset:0;marker:none;visibility:visible;display:inline;overflow:visible;enable-background:accumulate"
       id="path3919"
       sodipodi:cx="751.16064"
       sodipodi:cy="490.14328"
       sodipodi:rx="7.2714291"
       sodipodi:ry="7.2714291"
       d="m 758.43207,490.14328 a 7.2714291,7.2714291 0 1 1 -14.54285,0 7.2714291,7.2714291 0 1 1 14.54285,0 z"
       transform="matrix(1.0330191,0,0,1.0304236,-34.242204,-102.73397)" />
    <path
       sodipodi:nodetypes="ccc"
       style="fill:none;stroke:#ffffff;stroke-width:4.25;stroke-linecap:butt;stroke-linejoin:miter;stroke-miterlimit:4;stroke-opacity:1;stroke-dasharray:none"
       d="m 536.66631,447.1533 14.57065,0 0,15.20791"
       id="path3941"
       inkscape:path-effect="#path-effect3951"
       inkscape:original-d="m 536.66631,447.1533 14.57065,0 c 0,0 0.30714,17.44172 0,15.20791"
       inkscape:connector-curvature="0" />
    <path
       inkscape:connector-curvature="0"
       inkscape:original-d="m 618.23754,459.20853 -14.57065,0 c 0,0 -0.30714,-17.44172 0,-15.20791"
       inkscape:path-effect="#path-effect3953"
       id="path3943"
       d="m 618.23754,459.20853 -14.57065,0 0,-15.20791"
       style="fill:none;stroke:#ffffff;stroke-width:4.25;stroke-linecap:butt;stroke-linejoin:miter;stroke-miterlimit:4;stroke-opacity:1;stroke-dasharray:none"
       sodipodi:nodetypes="ccc" />
    <path
       sodipodi:nodetypes="ccc"
       inkscape:connector-curvature="0"
       id="path3945"
       d="m 666.70653,460.93004 8.73789,-13.71729 8.73788,13.71728"
       style="color:#000000;fill:none;stroke:#ffffff;stroke-width:4.25;stroke-linecap:butt;stroke-linejoin:miter;stroke-miterlimit:4;stroke-opacity:1;stroke-dashoffset:0;marker:none;visibility:visible;display:inline;overflow:visible;enable-background:accumulate" />
    <rect
       y="444.92206"
       x="474.31854"
       height="11.952559"
       width="11.982665"
       id="rect3947"
       style="color:#000000;fill:none;stroke:#ffffff;stroke-width:4.25;stroke-linecap:butt;stroke-linejoin:miter;stroke-miterlimit:4;stroke-opacity:1;stroke-dasharray:none;stroke-dashoffset:0;marker:none;visibility:visible;display:inline;overflow:visible;enable-background:accumulate" />
    <path
       transform="matrix(1.0330191,0,0,1.0304236,-34.242204,-54.156865)"
       d="m 758.43207,490.14328 a 7.2714291,7.2714291 0 1 1 -14.54285,0 7.2714291,7.2714291 0 1 1 14.54285,0 z"
       sodipodi:ry="7.2714291"
       sodipodi:rx="7.2714291"
       sodipodi:cy="490.14328"
       sodipodi:cx="751.16064"
       id="path3949"
       style="color:#000000;fill:none;stroke:#ffffff;stroke-width:4.16294909;stroke-linecap:butt;stroke-linejoin:miter;stroke-miterlimit:4;stroke-opacity:1;stroke-dasharray:none;stroke-dashoffset:0;marker:none;visibility:visible;display:inline;overflow:visible;enable-background:accumulate"
       sodipodi:type="arc" />
    <path
       inkscape:connector-curvature="0"
       inkscape:original-d="m 536.66631,471.44186 14.57065,0 c 0,0 0.30714,17.44172 0,15.20791"
       inkscape:path-effect="#path-effect3957"
       id="path3955"
       d="m 536.66631,471.44186 14.57065,0 0,15.20791"
       style="fill:none;stroke:#ffffff;stroke-width:4.25;stroke-linecap:butt;stroke-linejoin:miter;stroke-miterlimit:4;stroke-opacity:1;stroke-dasharray:none"
       sodipodi:nodetypes="ccc" />
    <path
       sodipodi:nodetypes="cc"
       style="fill:none;stroke:#ffffff;stroke-width:4.25;stroke-linecap:butt;stroke-linejoin:miter;stroke-miterlimit:4;stroke-opacity:1;stroke-dasharray:none"
       d="m 536.66631,479.53804 14.57065,0"
       id="path3959"
       inkscape:path-effect="#path-effect3961"
       inkscape:original-d="m 536.66631,479.53804 14.57065,0"
       inkscape:connector-curvature="0" />
    <path
       inkscape:connector-curvature="0"
       inkscape:original-d="m 545.49757,495.73041 5.73939,0 c 0,0 0.30714,17.44173 0,15.20792"
       inkscape:path-effect="#path-effect3965"
       id="path3963"
       d="m 545.49757,495.73041 5.73939,0 0,15.20792"
       style="fill:none;stroke:#ffffff;stroke-width:4.25;stroke-linecap:butt;stroke-linejoin:miter;stroke-miterlimit:4;stroke-opacity:1;stroke-dasharray:none"
       sodipodi:nodetypes="ccc" />
    <path
       sodipodi:nodetypes="ccc"
       style="fill:none;stroke:#ffffff;stroke-width:4.25;stroke-linecap:butt;stroke-linejoin:miter;stroke-miterlimit:4;stroke-opacity:1;stroke-dasharray:none"
       d="m 536.66631,495.73041 5.7394,0 0,15.20792"
       id="path3967"
       inkscape:path-effect="#path-effect4024"
       inkscape:original-d="m 536.66631,495.73041 5.7394,0 c 0,0 0.30715,17.44173 0,15.20792"
       inkscape:connector-curvature="0" />
    <path
       sodipodi:nodetypes="cccc"
       style="fill:none;stroke:#ffffff;stroke-width:4.25;stroke-linecap:butt;stroke-linejoin:miter;stroke-miterlimit:4;stroke-opacity:1;stroke-dasharray:none"
       d="m 618.23754,485.11633 -14.57065,0 0,-14.25062 14.57065,-0.087"
       id="path3969"
       inkscape:path-effect="#path-effect3971"
       inkscape:original-d="m 618.23754,485.11633 -14.57065,0 c 0,0 -0.30714,-16.39742 0,-14.25062 7.16176,-11.49735 10.1921,-2.45506 14.57065,-0.087"
       inkscape:connector-curvature="0" />
    <path
       style="fill:none;stroke:#ffffff;stroke-width:4.25000000000000000;stroke-linecap:square;stroke-linejoin:miter;stroke-miterlimit:4;stroke-opacity:1"
       d="m 618.23754,511.02412 -14.57065,0"
       id="path3300" />
    <path
       style="fill:none;stroke:#ffffff;stroke-width:4.25000000000000000;stroke-linecap:square;stroke-linejoin:miter;stroke-miterlimit:4;stroke-opacity:1"
       d="m 603.66689,496.7735 14.57065,-0.087"
       id="path3977"
       inkscape:connector-curvature="0"
       sodipodi:nodetypes="cc" />
    <path
       style="fill:none;stroke:#ffffff;stroke-width:4.25000000000000000;stroke-linecap:square;stroke-linejoin:miter;stroke-miterlimit:4;stroke-opacity:1"
       d="m 603.71783,503.76602 14.57065,0"
       id="path3981"
       inkscape:connector-curvature="0"
       sodipodi:nodetypes="cc" />
    <path
       style="color:#000000;fill:none;stroke:#ffffff;stroke-width:4.25;stroke-linecap:butt;stroke-linejoin:miter;stroke-miterlimit:4;stroke-opacity:1;stroke-dashoffset:0;marker:none;visibility:visible;display:inline;overflow:visible;enable-background:accumulate"
       d="m 666.70653,511.12639 8.73789,-13.71729 8.73788,13.71728"
       id="path3985"
       inkscape:connector-curvature="0"
       sodipodi:nodetypes="ccc" />
    <path
       sodipodi:nodetypes="cc"
       style="fill:none;stroke:#ffffff;stroke-width:4.25;stroke-linecap:butt;stroke-linejoin:miter;stroke-miterlimit:4;stroke-opacity:1;stroke-dasharray:none"
       d="m 666.07036,495.77079 18.74812,0"
       id="path3987"
       inkscape:path-effect="#path-effect3989"
       inkscape:original-d="m 666.07036,495.77079 18.74812,0"
       inkscape:connector-curvature="0"
       inkscape:transform-center-x="43.552708"
       inkscape:transform-center-y="13.367161" />
    <path
       sodipodi:nodetypes="ccc"
       inkscape:connector-curvature="0"
       id="path3991"
       d="m 666.70653,485.21859 8.73789,-13.71728 8.73788,13.71728"
       style="color:#000000;fill:none;stroke:#ffffff;stroke-width:4.25;stroke-linecap:butt;stroke-linejoin:miter;stroke-miterlimit:4;stroke-opacity:1;stroke-dashoffset:0;marker:none;visibility:visible;display:inline;overflow:visible;enable-background:accumulate" />
    <path
       inkscape:transform-center-y="13.367156"
       inkscape:transform-center-x="43.552708"
       inkscape:connector-curvature="0"
       inkscape:original-d="m 666.07036,475.25748 18.74812,0"
       inkscape:path-effect="#path-effect3995"
       id="path3993"
       d="m 666.07036,475.25748 18.74812,0"
       style="fill:none;stroke:#ffffff;stroke-width:4.25;stroke-linecap:butt;stroke-linejoin:miter;stroke-miterlimit:4;stroke-opacity:1;stroke-dasharray:none"
       sodipodi:nodetypes="cc" />
    <g
       id="g4030"
       transform="matrix(0.81165786,0,0,0.80961854,-87.05708,78.734881)">
      <path
         id="rect3997"
         d="m 691.64075,487.61676 14.76318,0 0,9.4424 -14.76318,0 z"
         style="color:#000000;fill:none;stroke:#ffffff;stroke-width:5.24278688;stroke-linecap:butt;stroke-linejoin:miter;stroke-miterlimit:4;stroke-opacity:1;stroke-dashoffset:0;marker:none;visibility:visible;display:inline;overflow:visible;enable-background:accumulate"
         inkscape:connector-curvature="0" />
      <path
         sodipodi:nodetypes="cccc"
         inkscape:connector-curvature="0"
         style="color:#000000;fill:none;stroke:#ffffff;stroke-width:5.24278688;stroke-linecap:butt;stroke-linejoin:miter;stroke-miterlimit:4;stroke-opacity:1;stroke-dashoffset:0;marker:none;visibility:visible;display:inline;overflow:visible;enable-background:accumulate"
         d="m 706.40393,481.61676 0,9.4424 m -14.76318,0 0,-9.4424"
         id="path4022" />
    </g>
    <path
       sodipodi:nodetypes="cccc"
       inkscape:connector-curvature="0"
       style="color:#000000;fill:none;stroke:#ffffff;stroke-width:4.25;stroke-linecap:butt;stroke-linejoin:miter;stroke-miterlimit:4;stroke-opacity:1;stroke-dashoffset:0;marker:none;visibility:visible;display:inline;overflow:visible;enable-background:accumulate"
       d="m 483.86625,498.12614 0,8.90912 m -7.1127,0 0,-8.90912"
       id="path4026" />
    <path
       id="path4028"
       d="m 487.38852,507.56993 -14.15726,0 m 0,-11.95254 14.15726,0"
       style="color:#000000;fill:none;stroke:#ffffff;stroke-width:4.25;stroke-linecap:butt;stroke-linejoin:miter;stroke-miterlimit:4;stroke-opacity:1;stroke-dashoffset:0;marker:none;visibility:visible;display:inline;overflow:visible;enable-background:accumulate"
       inkscape:connector-curvature="0"
       sodipodi:nodetypes="cccc" />
    <path
       sodipodi:type="arc"
       style="color:#000000;fill:none;stroke:#ffffff;stroke-width:4.16294909;stroke-linecap:butt;stroke-linejoin:miter;stroke-miterlimit:4;stroke-opacity:1;stroke-dasharray:none;stroke-dashoffset:0;marker:none;visibility:visible;display:inline;overflow:visible;enable-background:accumulate"
       id="path4034"
       sodipodi:cx="751.16064"
       sodipodi:cy="490.14328"
       sodipodi:rx="7.2714291"
       sodipodi:ry="7.2714291"
       d="m 758.43207,490.14328 a 7.2714291,7.2714291 0 1 1 -14.54285,0 7.2714291,7.2714291 0 1 1 14.54285,0 z"
       transform="matrix(1.0330191,0,0,1.0304236,-34.242204,-20.152883)" />
    <path
       style="color:#000000;fill:none;stroke:#ffffff;stroke-width:4.25;stroke-linecap:butt;stroke-linejoin:miter;stroke-miterlimit:4;stroke-opacity:1;stroke-dashoffset:0;marker:none;visibility:visible;display:inline;overflow:visible;enable-background:accumulate"
       d="m 734.64247,473.16567 14.15726,0"
       id="path4036"
       inkscape:connector-curvature="0" />
    <path
       style="color:#000000;fill:none;stroke:#ffffff;stroke-width:4.25;stroke-linecap:butt;stroke-linejoin:miter;stroke-miterlimit:4;stroke-opacity:1;stroke-dashoffset:0;marker:none;visibility:visible;display:inline;overflow:visible;enable-background:accumulate"
       d="m 741.7211,472.87915 0,-4.07037"
       id="path4044"
       inkscape:connector-curvature="0" />
    <path
       style="fill:#ffffff;stroke:#ffffff;stroke-width:4.20000000000000018;stroke-linecap:square;stroke-linejoin:miter;stroke-opacity:1;fill-opacity:1;stroke-miterlimit:4;stroke-dasharray:none"
       d="m 618.26398,496.84591 0,6.9422"
       id="path3319"
       inkscape:path-effect="#path-effect3321"
       inkscape:original-d="m 618.26398,496.84591 0,6.9422"
       inkscape:connector-curvature="0" />
    <path
       inkscape:connector-curvature="0"
       inkscape:original-d="m 603.65555,503.93655 0,6.9422"
       inkscape:path-effect="#path-effect4093"
       id="path4091"
       d="m 603.65555,503.93655 0,6.9422"
       style="fill:#ffffff;fill-opacity:1;stroke:#ffffff;stroke-width:4.19999981;stroke-linecap:square;stroke-linejoin:miter;stroke-miterlimit:4;stroke-opacity:1;stroke-dasharray:none" />
  </g>
</svg>
