<?xml version="1.0" encoding="UTF-8" standalone="no"?>
<!-- Created with Inkscape (http://www.inkscape.org/) -->

<svg
   xmlns:dc="http://purl.org/dc/elements/1.1/"
   xmlns:cc="http://creativecommons.org/ns#"
   xmlns:rdf="http://www.w3.org/1999/02/22-rdf-syntax-ns#"
   xmlns:svg="http://www.w3.org/2000/svg"
   xmlns="http://www.w3.org/2000/svg"
   xmlns:sodipodi="http://sodipodi.sourceforge.net/DTD/sodipodi-0.dtd"
   xmlns:inkscape="http://www.inkscape.org/namespaces/inkscape"
   width="1024"
   height="768"
   id="svg2"
   version="1.1"
   inkscape:version="0.48.4 r9939"
   sodipodi:docname="2.svg"
   enable-background="new">
  <defs
     id="defs4">
    <inkscape:path-effect
       is_visible="true"
       id="path-effect4241"
       effect="spiro" />
    <inkscape:path-effect
       effect="spiro"
       id="path-effect4239"
       is_visible="true" />
    <inkscape:path-effect
       effect="spiro"
       id="path-effect4237"
       is_visible="true" />
    <inkscape:path-effect
       is_visible="true"
       id="path-effect4235"
       effect="spiro" />
    <inkscape:path-effect
       effect="spiro"
       id="path-effect4233"
       is_visible="true" />
    <inkscape:path-effect
       is_visible="true"
       id="path-effect4231"
       effect="spiro" />
    <inkscape:path-effect
       is_visible="true"
       id="path-effect4229"
       effect="spiro" />
    <inkscape:path-effect
       effect="spiro"
       id="path-effect4227"
       is_visible="true" />
    <inkscape:path-effect
       is_visible="true"
       id="path-effect4225"
       effect="spiro" />
    <inkscape:path-effect
       effect="spiro"
       id="path-effect4223"
       is_visible="true" />
    <inkscape:path-effect
       effect="spiro"
       id="path-effect4221"
       is_visible="true" />
    <inkscape:path-effect
       is_visible="true"
       id="path-effect4219"
       effect="spiro" />
    <inkscape:path-effect
       effect="spiro"
       id="path-effect4169"
       is_visible="true" />
    <inkscape:path-effect
       is_visible="true"
       id="path-effect4167"
       effect="spiro" />
    <inkscape:path-effect
       is_visible="true"
       id="path-effect4165"
       effect="spiro" />
    <inkscape:path-effect
       effect="spiro"
       id="path-effect4163"
       is_visible="true" />
    <inkscape:path-effect
       is_visible="true"
       id="path-effect4145"
       effect="spiro" />
    <inkscape:path-effect
       effect="spiro"
       id="path-effect4143"
       is_visible="true" />
    <inkscape:path-effect
       effect="spiro"
       id="path-effect4141"
       is_visible="true" />
    <inkscape:path-effect
       is_visible="true"
       id="path-effect4139"
       effect="spiro" />
    <inkscape:path-effect
       is_visible="true"
       id="path-effect4113"
       effect="spiro" />
    <inkscape:path-effect
       effect="spiro"
       id="path-effect4110"
       is_visible="true" />
    <inkscape:path-effect
       is_visible="true"
       id="path-effect4083"
       effect="spiro" />
    <inkscape:path-effect
       effect="spiro"
       id="path-effect4079"
       is_visible="true" />
    <inkscape:path-effect
       effect="spiro"
       id="path-effect4024"
       is_visible="true" />
    <inkscape:path-effect
       effect="spiro"
       id="path-effect4001"
       is_visible="true" />
    <inkscape:path-effect
       is_visible="true"
       id="path-effect3995"
       effect="spiro" />
    <inkscape:path-effect
       effect="spiro"
       id="path-effect3989"
       is_visible="true" />
    <inkscape:path-effect
       is_visible="true"
       id="path-effect3983"
       effect="spiro" />
    <inkscape:path-effect
       is_visible="true"
       id="path-effect3979"
       effect="spiro" />
    <inkscape:path-effect
       is_visible="true"
       id="path-effect3975"
       effect="spiro" />
    <inkscape:path-effect
       effect="spiro"
       id="path-effect3971"
       is_visible="true" />
    <inkscape:path-effect
       is_visible="true"
       id="path-effect3965"
       effect="spiro" />
    <inkscape:path-effect
       effect="spiro"
       id="path-effect3961"
       is_visible="true" />
    <inkscape:path-effect
       is_visible="true"
       id="path-effect3957"
       effect="spiro" />
    <inkscape:path-effect
       is_visible="true"
       id="path-effect3953"
       effect="spiro" />
    <inkscape:path-effect
       effect="spiro"
       id="path-effect3951"
       is_visible="true" />
    <inkscape:path-effect
       effect="spiro"
       id="path-effect3923"
       is_visible="true" />
    <inkscape:path-effect
       is_visible="true"
       id="path-effect3917"
       effect="spiro" />
    <inkscape:path-effect
       effect="spiro"
       id="path-effect3914"
       is_visible="true" />
    <inkscape:path-effect
       effect="spiro"
       id="path-effect3911"
       is_visible="true" />
    <inkscape:path-effect
       is_visible="true"
       id="path-effect3908"
       effect="spiro" />
    <inkscape:path-effect
       effect="spiro"
       id="path-effect3905"
       is_visible="true" />
    <inkscape:path-effect
       is_visible="true"
       id="path-effect3903"
       effect="spiro" />
    <inkscape:path-effect
       is_visible="true"
       id="path-effect3873"
       effect="spiro" />
    <inkscape:path-effect
       is_visible="true"
       id="path-effect3871"
       effect="spiro" />
    <inkscape:path-effect
       effect="spiro"
       id="path-effect3869"
       is_visible="true" />
    <inkscape:path-effect
       effect="spiro"
       id="path-effect3867"
       is_visible="true" />
    <inkscape:path-effect
       effect="spiro"
       id="path-effect3865"
       is_visible="true" />
    <inkscape:path-effect
       is_visible="true"
       id="path-effect3863"
       effect="spiro" />
    <inkscape:path-effect
       effect="spiro"
       id="path-effect3848"
       is_visible="true" />
    <inkscape:path-effect
       effect="spiro"
       id="path-effect3846"
       is_visible="true" />
    <inkscape:path-effect
       is_visible="true"
       id="path-effect3844"
       effect="spiro" />
    <inkscape:path-effect
       effect="spiro"
       id="path-effect3836"
       is_visible="true" />
    <inkscape:path-effect
       is_visible="true"
       id="path-effect3834"
       effect="spiro" />
    <inkscape:path-effect
       is_visible="true"
       id="path-effect3828"
       effect="spiro" />
    <inkscape:path-effect
       effect="spiro"
       id="path-effect3824"
       is_visible="true" />
    <inkscape:path-effect
       is_visible="true"
       id="path-effect3815"
       effect="spiro" />
    <inkscape:path-effect
       is_visible="true"
       id="path-effect3813"
       effect="spiro" />
    <inkscape:path-effect
       is_visible="true"
       id="path-effect3811"
       effect="spiro" />
    <inkscape:path-effect
       effect="spiro"
       id="path-effect3803"
       is_visible="true" />
    <inkscape:path-effect
       effect="spiro"
       id="path-effect3801"
       is_visible="true" />
    <inkscape:path-effect
       effect="spiro"
       id="path-effect3799"
       is_visible="true" />
    <inkscape:path-effect
       is_visible="true"
       id="path-effect3791"
       effect="spiro" />
    <inkscape:path-effect
       is_visible="true"
       id="path-effect3789"
       effect="spiro" />
    <inkscape:path-effect
       is_visible="true"
       id="path-effect3787"
       effect="spiro" />
    <inkscape:path-effect
       effect="spiro"
       id="path-effect3779"
       is_visible="true" />
    <inkscape:path-effect
       effect="spiro"
       id="path-effect3775"
       is_visible="true" />
    <inkscape:path-effect
       effect="spiro"
       id="path-effect3771"
       is_visible="true" />
  </defs>
  <sodipodi:namedview
     id="base"
     pagecolor="#ffffff"
     bordercolor="#666666"
     borderopacity="1.0"
     inkscape:pageopacity="0.0"
     inkscape:pageshadow="2"
     inkscape:zoom="0.65886582"
     inkscape:cx="649.25908"
     inkscape:cy="400.93923"
     inkscape:document-units="px"
     inkscape:current-layer="layer2"
     showgrid="false"
     width="1024px"
     inkscape:window-width="1438"
     inkscape:window-height="844"
     inkscape:window-x="0"
     inkscape:window-y="27"
     inkscape:window-maximized="0" />
  <metadata
     id="metadata7">
    <rdf:RDF>
      <cc:Work
         rdf:about="">
        <dc:format>image/svg+xml</dc:format>
        <dc:type
           rdf:resource="http://purl.org/dc/dcmitype/StillImage" />
        <dc:title></dc:title>
      </cc:Work>
    </rdf:RDF>
  </metadata>
  <g
     inkscape:label="Calque 1"
     inkscape:groupmode="layer"
     id="layer1"
     transform="translate(0,-284.36218)"
     style="display:inline"
     sodipodi:insensitive="true">
    <rect
       style="color:#000000;fill:#000000;fill-opacity:1;fill-rule:evenodd;stroke:none;stroke-width:6;marker:none;visibility:visible;display:inline;overflow:visible;enable-background:accumulate"
       id="rect3753"
       width="1024"
       height="768"
       x="0"
       y="284.36218" />
  </g>
  <g
     inkscape:groupmode="layer"
     id="layer2"
     inkscape:label="Calque">
    <rect
       style="color:#000000;fill:none;stroke:none;stroke-width:0.49999997000000002;stroke-miterlimit:4;stroke-opacity:1;stroke-dasharray:none;marker:none;visibility:visible;display:inline;overflow:visible;enable-background:accumulate"
       id="rect2995"
       width="484.34882"
       height="222.95422"
       x="371.59036"
       y="342.59311" />
    <path
       style="fill:none;stroke:#ffffff;stroke-width:5;stroke-linecap:square;stroke-linejoin:miter;stroke-miterlimit:4;stroke-opacity:1;stroke-dasharray:none"
       d="m 461.8469,397.07519 0,17.20416"
       id="path4077"
       inkscape:path-effect="#path-effect4079"
       inkscape:original-d="m 461.8469,397.07519 0,17.20416"
       inkscape:connector-curvature="0" />
    <path
       inkscape:connector-curvature="0"
       inkscape:original-d="m 461.8469,414.03682 0,17.20416"
       inkscape:path-effect="#path-effect4083"
       id="path4081"
       d="m 461.8469,414.03682 0,17.20416"
       style="fill:none;stroke:#ffffff;stroke-width:5;stroke-linecap:square;stroke-linejoin:miter;stroke-miterlimit:4;stroke-opacity:1;stroke-dasharray:none" />
    <g
       transform="translate(-557.04016,192.54263)"
       style="font-size:40px;font-style:normal;font-variant:normal;font-weight:500;font-stretch:normal;text-align:start;line-height:125%;letter-spacing:0px;word-spacing:0px;writing-mode:lr-tb;text-anchor:start;fill:#ffffff;fill-opacity:1;stroke:none;font-family:News Cycle;-inkscape-font-specification:News Cycle Medium"
       id="flowRoot4115">
      <path
         d="m 1066.625,208.84642 0,-2.92969 2.9297,0 0,2.92969 -2.9297,0 m 0.1758,23.20312 0,-20.60547 2.5781,0 0,20.60547 -2.5781,0"
         style="line-height:125%;fill:#ffffff;font-family:News Cycle;-inkscape-font-specification:News Cycle Medium"
         id="path4457" />
    </g>
    <path
       inkscape:connector-curvature="0"
       inkscape:original-d="m 581.8469,397.07519 0,17.20416"
       inkscape:path-effect="#path-effect4139"
       id="path4123"
       d="m 581.8469,397.07519 0,17.20416"
       style="fill:none;stroke:#ffffff;stroke-width:5;stroke-linecap:square;stroke-linejoin:miter;stroke-miterlimit:4;stroke-opacity:1;stroke-dasharray:none" />
    <path
       style="fill:none;stroke:#ffffff;stroke-width:5;stroke-linecap:square;stroke-linejoin:miter;stroke-miterlimit:4;stroke-opacity:1;stroke-dasharray:none"
       d="m 581.8469,414.03682 0,17.20416"
       id="path4125"
       inkscape:path-effect="#path-effect4141"
       inkscape:original-d="m 581.8469,414.03682 0,17.20416"
       inkscape:connector-curvature="0" />
    <path
       style="fill:none;stroke:#ffffff;stroke-width:5;stroke-linecap:square;stroke-linejoin:miter;stroke-miterlimit:4;stroke-opacity:1;stroke-dasharray:none"
       d="m 598.9298,414.15809 -17.20416,0"
       id="path4127"
       inkscape:path-effect="#path-effect4143"
       inkscape:original-d="m 598.9298,414.15809 -17.20416,0"
       inkscape:connector-curvature="0" />
    <g
       transform="translate(-442.72375,192.54263)"
       style="font-size:40px;font-style:normal;font-variant:normal;font-weight:500;font-stretch:normal;text-align:start;line-height:125%;letter-spacing:0px;word-spacing:0px;writing-mode:lr-tb;text-anchor:start;fill:#ffffff;fill-opacity:1;stroke:none;font-family:News Cycle;-inkscape-font-specification:News Cycle Medium"
       id="flowRoot4131">
      <path
         d="m 1065.6875,227.03001 c 0,-0.93749 0.1172,-1.7513 0.3516,-2.44141 0.2343,-0.70311 0.5989,-1.3216 1.0937,-1.85547 0.5078,-0.54686 1.0807,-1.02863 1.7188,-1.44531 0.638,-0.41665 1.4322,-0.79426 2.3828,-1.13281 1.7317,-0.61197 3.8476,-1.16535 6.3476,-1.66016 0,-2.05727 -0.3971,-3.43097 -1.1914,-4.12109 -0.7031,-0.61196 -1.7252,-0.91795 -3.0664,-0.91797 -1.6406,2e-5 -3.0534,0.62502 -4.2383,1.875 -0.5078,0.50783 -0.8593,0.96356 -1.0546,1.36719 l -1.8555,-1.23047 c 1.4583,-2.79946 3.9388,-4.1992 7.4414,-4.19922 3.138,2e-5 5.1432,1.20445 6.0156,3.61328 0.3516,0.97658 0.5273,2.16148 0.5274,3.55469 l 0,10.72266 c -10e-5,0.3776 0.072,0.89192 0.2148,1.54296 0.1432,0.65105 0.2734,1.10027 0.3906,1.34766 l -2.5976,0 c -0.3907,-0.19531 -0.586,-1.28906 -0.586,-3.28125 -1.8359,2.35677 -3.8607,3.53516 -6.0742,3.53516 -2.4479,0 -4.1471,-0.85938 -5.0976,-2.57813 -0.4818,-0.87239 -0.7227,-1.77083 -0.7227,-2.69531 m 3.0664,-2.24609 c -0.3255,0.59896 -0.4883,1.38021 -0.4883,2.34375 0,0.96354 0.3386,1.70573 1.0157,2.22656 0.677,0.50781 1.4257,0.76172 2.246,0.76172 0.8334,0 1.5625,-0.1237 2.1875,-0.3711 0.6381,-0.24739 1.2175,-0.5664 1.7383,-0.95703 0.9505,-0.71614 1.6602,-1.35416 2.1289,-1.91406 l 0,-6.19141 c -2.4739,0.63803 -3.9388,1.02866 -4.3945,1.17188 -2.2917,0.7422 -3.7695,1.71876 -4.4336,2.92969"
         style="line-height:125%;fill:#ffffff;font-family:News Cycle;-inkscape-font-specification:News Cycle Medium"
         id="path4460" />
    </g>
    <path
       style="fill:none;stroke:#ffffff;stroke-width:5;stroke-linecap:square;stroke-linejoin:miter;stroke-miterlimit:4;stroke-opacity:1;stroke-dasharray:none"
       d="m 701.8469,397.07519 0,17.20416"
       id="path4147"
       inkscape:path-effect="#path-effect4163"
       inkscape:original-d="m 701.8469,397.07519 0,17.20416"
       inkscape:connector-curvature="0" />
    <path
       inkscape:connector-curvature="0"
       inkscape:original-d="m 701.8469,414.03682 0,17.20416"
       inkscape:path-effect="#path-effect4165"
       id="path4149"
       d="m 701.8469,414.03682 0,17.20416"
       style="fill:none;stroke:#ffffff;stroke-width:5;stroke-linecap:square;stroke-linejoin:miter;stroke-miterlimit:4;stroke-opacity:1;stroke-dasharray:none" />
    <path
       style="fill:none;stroke:#ffffff;stroke-width:5;stroke-linecap:square;stroke-linejoin:miter;stroke-miterlimit:4;stroke-opacity:1;stroke-dasharray:none"
       d="m 701.96817,414.15809 -17.20416,0"
       id="path4153"
       inkscape:path-effect="#path-effect4169"
       inkscape:original-d="m 701.96817,414.15809 -17.20416,0"
       inkscape:connector-curvature="0" />
    <g
       transform="translate(-322.72375,192.54263)"
       style="font-size:40px;font-style:normal;font-variant:normal;font-weight:500;font-stretch:normal;text-align:start;line-height:125%;letter-spacing:0px;word-spacing:0px;writing-mode:lr-tb;text-anchor:start;fill:#ffffff;fill-opacity:1;stroke:none;font-family:News Cycle;-inkscape-font-specification:News Cycle Medium"
       id="flowRoot4155">
      <path
         d="m 1067.6992,229.15892 c -0.638,-0.95052 -1.1263,-2.01172 -1.4648,-3.1836 -0.3255,-1.17187 -0.4883,-2.40233 -0.4883,-3.6914 0,-1.28906 0.091,-2.46093 0.2734,-3.51563 0.1823,-1.06769 0.4232,-1.97264 0.7227,-2.71484 0.2995,-0.74217 0.664,-1.39973 1.0937,-1.97266 0.4297,-0.58592 0.8724,-1.05467 1.3282,-1.40625 0.4557,-0.35154 0.9505,-0.638 1.4843,-0.85937 0.9245,-0.39061 1.8034,-0.58592 2.6368,-0.58594 0.8333,2e-5 1.5429,0.0781 2.1289,0.23437 0.5859,0.14325 1.2109,0.44924 1.875,0.91797 0.677,0.45575 1.2565,1.06122 1.7382,1.81641 1.1198,1.77085 1.6797,4.38152 1.6797,7.83203 l -12.3828,0 c 0,3.47657 0.8789,5.84636 2.6367,7.10937 0.8724,0.62501 1.8425,0.93751 2.9102,0.9375 2.0052,1e-5 3.7109,-1.24348 5.1172,-3.73046 l 1.7773,1.23046 c -0.5078,0.93751 -1.1719,1.78386 -1.9922,2.53907 -1.5625,1.43229 -3.1054,2.14843 -4.6289,2.14843 -1.5234,0 -2.819,-0.27994 -3.8867,-0.83984 -1.0677,-0.55989 -1.9206,-1.3151 -2.5586,-2.26562 m 0.7422,-9.31641 9.6875,0 c 0,-1.94009 -0.4492,-3.54816 -1.3476,-4.82422 -0.7553,-1.06769 -1.8295,-1.60154 -3.2227,-1.60156 -2.2787,2e-5 -3.8021,1.0547 -4.5703,3.16406 -0.3646,0.9896 -0.5469,2.07684 -0.5469,3.26172"
         style="line-height:125%;fill:#ffffff;font-family:News Cycle;-inkscape-font-specification:News Cycle Medium"
         id="path4471" />
      <path
         d="m 1083.793,221.61985 c 0,-3.15102 0.7031,-5.67055 2.1093,-7.55859 1.4193,-1.888 3.3985,-2.83201 5.9375,-2.83203 2.5391,2e-5 4.5052,0.95054 5.8985,2.85156 1.4062,1.90106 2.1093,4.44012 2.1094,7.61719 -10e-5,3.17709 -0.7097,5.73568 -2.1289,7.67578 -1.4063,1.9401 -3.3659,2.91016 -5.879,2.91016 -2.5651,0 -4.5573,-1.00261 -5.9765,-3.00782 -1.3802,-1.96614 -2.0703,-4.51822 -2.0703,-7.65625 m 2.5781,0.11719 c 0,4.12761 1.0742,6.7448 3.2227,7.85156 0.651,0.33855 1.3997,0.50782 2.246,0.50782 0.8464,0 1.5951,-0.16927 2.2461,-0.50782 0.6641,-0.33854 1.1914,-0.77473 1.5821,-1.30859 0.3906,-0.53385 0.7096,-1.17838 0.957,-1.93359 0.4297,-1.3151 0.6445,-2.84505 0.6445,-4.58985 0,-5.55988 -1.8164,-8.33982 -5.4492,-8.33984 -3.6328,2e-5 -5.4492,2.77345 -5.4492,8.32031"
         style="line-height:125%;fill:#ffffff;font-family:News Cycle;-inkscape-font-specification:News Cycle Medium"
         id="path4473" />
    </g>
    <path
       inkscape:connector-curvature="0"
       inkscape:original-d="m 461.8469,477.07519 0,17.20416"
       inkscape:path-effect="#path-effect4219"
       id="path4171"
       d="m 461.8469,477.07519 0,17.20416"
       style="fill:none;stroke:#ffffff;stroke-width:5;stroke-linecap:square;stroke-linejoin:miter;stroke-miterlimit:4;stroke-opacity:1;stroke-dasharray:none" />
    <path
       style="fill:none;stroke:#ffffff;stroke-width:5;stroke-linecap:square;stroke-linejoin:miter;stroke-miterlimit:4;stroke-opacity:1;stroke-dasharray:none"
       d="m 478.9298,494.15809 -17.20416,0"
       id="path4175"
       inkscape:path-effect="#path-effect4223"
       inkscape:original-d="m 478.9298,494.15809 -17.20416,0"
       inkscape:connector-curvature="0" />
    <path
       inkscape:connector-curvature="0"
       inkscape:original-d="m 461.96817,494.15809 -17.20416,0"
       inkscape:path-effect="#path-effect4225"
       id="path4177"
       d="m 461.96817,494.15809 -17.20416,0"
       style="fill:none;stroke:#ffffff;stroke-width:5;stroke-linecap:square;stroke-linejoin:miter;stroke-miterlimit:4;stroke-opacity:1;stroke-dasharray:none" />
    <g
       transform="translate(-562.72375,272.54263)"
       style="font-size:40px;font-style:normal;font-variant:normal;font-weight:500;font-stretch:normal;text-align:start;line-height:125%;letter-spacing:0px;word-spacing:0px;writing-mode:lr-tb;text-anchor:start;fill:#ffffff;fill-opacity:1;stroke:none;font-family:News Cycle;-inkscape-font-specification:News Cycle Medium"
       id="flowRoot4179">
      <path
         d="m 1065.7461,221.61985 c 0,-3.15102 0.7031,-5.67055 2.1094,-7.55859 1.4192,-1.888 3.3984,-2.83201 5.9375,-2.83203 2.539,2e-5 4.5052,0.95054 5.8984,2.85156 1.4062,1.90106 2.1094,4.44012 2.1094,7.61719 0,3.17709 -0.7097,5.73568 -2.1289,7.67578 -1.4063,1.9401 -3.3659,2.91016 -5.8789,2.91016 -2.5651,0 -4.5573,-1.00261 -5.9766,-3.00782 -1.3802,-1.96614 -2.0703,-4.51822 -2.0703,-7.65625 m 2.5781,0.11719 c 0,4.12761 1.0742,6.7448 3.2227,7.85156 0.651,0.33855 1.3997,0.50782 2.2461,0.50782 0.8463,0 1.595,-0.16927 2.2461,-0.50782 0.664,-0.33854 1.1914,-0.77473 1.582,-1.30859 0.3906,-0.53385 0.7096,-1.17838 0.957,-1.93359 0.4297,-1.3151 0.6445,-2.84505 0.6446,-4.58985 -10e-5,-5.55988 -1.8165,-8.33982 -5.4493,-8.33984 -3.6328,2e-5 -5.4492,2.77345 -5.4492,8.32031"
         style="line-height:125%;fill:#ffffff;font-family:News Cycle;-inkscape-font-specification:News Cycle Medium"
         id="path4454" />
    </g>
    <path
       inkscape:connector-curvature="0"
       inkscape:original-d="m 581.8469,494.03682 0,17.20416"
       inkscape:path-effect="#path-effect4229"
       id="path4189"
       d="m 581.8469,494.03682 0,17.20416"
       style="fill:none;stroke:#ffffff;stroke-width:5;stroke-linecap:square;stroke-linejoin:miter;stroke-miterlimit:4;stroke-opacity:1;stroke-dasharray:none" />
    <path
       inkscape:connector-curvature="0"
       inkscape:original-d="m 598.9298,494.15809 -17.20416,0"
       inkscape:path-effect="#path-effect4231"
       id="path4191"
       d="m 598.9298,494.15809 -17.20416,0"
       style="fill:none;stroke:#ffffff;stroke-width:5;stroke-linecap:square;stroke-linejoin:miter;stroke-miterlimit:4;stroke-opacity:1;stroke-dasharray:none" />
    <path
       style="fill:none;stroke:#ffffff;stroke-width:5;stroke-linecap:square;stroke-linejoin:miter;stroke-miterlimit:4;stroke-opacity:1;stroke-dasharray:none"
       d="m 581.96817,494.15809 -17.20416,0"
       id="path4193"
       inkscape:path-effect="#path-effect4233"
       inkscape:original-d="m 581.96817,494.15809 -17.20416,0"
       inkscape:connector-curvature="0" />
    <g
       transform="translate(-442.72375,272.54263)"
       style="font-size:40px;font-style:normal;font-variant:normal;font-weight:500;font-stretch:normal;text-align:start;line-height:125%;letter-spacing:0px;word-spacing:0px;writing-mode:lr-tb;text-anchor:start;fill:#ffffff;fill-opacity:1;stroke:none;font-family:News Cycle;-inkscape-font-specification:News Cycle Medium"
       id="flowRoot4195">
      <path
         d="m 1066.8008,226.79563 0,-15.35156 2.5781,0 0,15.35156 c 0,0.97657 0.3451,1.77084 1.0352,2.38282 0.7031,0.59896 1.4583,0.89844 2.2656,0.89843 1.9271,1e-5 3.9258,-1.12629 5.9961,-3.3789 l 0,-15.25391 2.5781,0 0,20.60547 -2.5781,0 0,-3.39844 c -1.849,1.8099 -3.431,2.91667 -4.7461,3.32032 -0.638,0.19531 -1.3021,0.29296 -1.9922,0.29296 -1.4974,0 -2.7279,-0.45572 -3.6914,-1.36718 -0.9636,-0.91146 -1.4453,-2.27865 -1.4453,-4.10157"
         style="line-height:125%;fill:#ffffff;font-family:News Cycle;-inkscape-font-specification:News Cycle Medium"
         id="path4463" />
    </g>
    <path
       style="fill:none;stroke:#ffffff;stroke-width:5;stroke-linecap:square;stroke-linejoin:miter;stroke-miterlimit:4;stroke-opacity:1;stroke-dasharray:none"
       d="m 718.9298,494.15809 -17.20416,0"
       id="path4207"
       inkscape:path-effect="#path-effect4239"
       inkscape:original-d="m 718.9298,494.15809 -17.20416,0"
       inkscape:connector-curvature="0" />
    <path
       inkscape:connector-curvature="0"
       inkscape:original-d="m 701.96817,494.15809 -17.20416,0"
       inkscape:path-effect="#path-effect4241"
       id="path4209"
       d="m 701.96817,494.15809 -17.20416,0"
       style="fill:none;stroke:#ffffff;stroke-width:5;stroke-linecap:square;stroke-linejoin:miter;stroke-miterlimit:4;stroke-opacity:1;stroke-dasharray:none" />
    <g
       transform="translate(-322.72375,272.54263)"
       style="font-size:40px;font-style:normal;font-variant:normal;font-weight:500;font-stretch:normal;text-align:start;line-height:125%;letter-spacing:0px;word-spacing:0px;writing-mode:lr-tb;text-anchor:start;fill:#ffffff;fill-opacity:1;stroke:none;font-family:News Cycle;-inkscape-font-specification:News Cycle Medium"
       id="flowRoot4211">
      <path
         d="m 1067.6992,229.15892 c -0.638,-0.95052 -1.1263,-2.01172 -1.4648,-3.1836 -0.3255,-1.17187 -0.4883,-2.40233 -0.4883,-3.6914 0,-1.28906 0.091,-2.46093 0.2734,-3.51563 0.1823,-1.06769 0.4232,-1.97264 0.7227,-2.71484 0.2995,-0.74217 0.664,-1.39973 1.0937,-1.97266 0.4297,-0.58592 0.8724,-1.05467 1.3282,-1.40625 0.4557,-0.35154 0.9505,-0.638 1.4843,-0.85937 0.9245,-0.39061 1.8034,-0.58592 2.6368,-0.58594 0.8333,2e-5 1.5429,0.0781 2.1289,0.23437 0.5859,0.14325 1.2109,0.44924 1.875,0.91797 0.677,0.45575 1.2565,1.06122 1.7382,1.81641 1.1198,1.77085 1.6797,4.38152 1.6797,7.83203 l -12.3828,0 c 0,3.47657 0.8789,5.84636 2.6367,7.10937 0.8724,0.62501 1.8425,0.93751 2.9102,0.9375 2.0052,1e-5 3.7109,-1.24348 5.1172,-3.73046 l 1.7773,1.23046 c -0.5078,0.93751 -1.1719,1.78386 -1.9922,2.53907 -1.5625,1.43229 -3.1054,2.14843 -4.6289,2.14843 -1.5234,0 -2.819,-0.27994 -3.8867,-0.83984 -1.0677,-0.55989 -1.9206,-1.3151 -2.5586,-2.26562 m 0.7422,-9.31641 9.6875,0 c 0,-1.94009 -0.4492,-3.54816 -1.3476,-4.82422 -0.7553,-1.06769 -1.8295,-1.60154 -3.2227,-1.60156 -2.2787,2e-5 -3.8021,1.0547 -4.5703,3.16406 -0.3646,0.9896 -0.5469,2.07684 -0.5469,3.26172"
         style="line-height:125%;fill:#ffffff;font-family:News Cycle;-inkscape-font-specification:News Cycle Medium"
         id="path4466" />
      <path
         d="m 1084.8477,226.79563 0,-15.35156 2.5781,0 0,15.35156 c 0,0.97657 0.345,1.77084 1.0351,2.38282 0.7032,0.59896 1.4584,0.89844 2.2657,0.89843 1.927,1e-5 3.9257,-1.12629 5.9961,-3.3789 l 0,-15.25391 2.5781,0 0,20.60547 -2.5781,0 0,-3.39844 c -1.849,1.8099 -3.431,2.91667 -4.7461,3.32032 -0.6381,0.19531 -1.3021,0.29296 -1.9922,0.29296 -1.4974,0 -2.7279,-0.45572 -3.6914,-1.36718 -0.9636,-0.91146 -1.4453,-2.27865 -1.4453,-4.10157"
         style="line-height:125%;fill:#ffffff;font-family:News Cycle;-inkscape-font-specification:News Cycle Medium"
         id="path4468" />
    </g>
  </g>
</svg>
