<?xml version="1.0" encoding="UTF-8" standalone="no"?>
<!-- Created with Inkscape (http://www.inkscape.org/) -->

<svg
   xmlns:dc="http://purl.org/dc/elements/1.1/"
   xmlns:cc="http://creativecommons.org/ns#"
   xmlns:rdf="http://www.w3.org/1999/02/22-rdf-syntax-ns#"
   xmlns:svg="http://www.w3.org/2000/svg"
   xmlns="http://www.w3.org/2000/svg"
   xmlns:sodipodi="http://sodipodi.sourceforge.net/DTD/sodipodi-0.dtd"
   xmlns:inkscape="http://www.inkscape.org/namespaces/inkscape"
   width="1024"
   height="768"
   id="svg2"
   version="1.1"
   inkscape:version="0.48.4 r9939"
   sodipodi:docname="3.svg"
   enable-background="new">
  <defs
     id="defs4">
    <inkscape:path-effect
       is_visible="true"
       id="path-effect4241"
       effect="spiro" />
    <inkscape:path-effect
       effect="spiro"
       id="path-effect4239"
       is_visible="true" />
    <inkscape:path-effect
       effect="spiro"
       id="path-effect4237"
       is_visible="true" />
    <inkscape:path-effect
       is_visible="true"
       id="path-effect4235"
       effect="spiro" />
    <inkscape:path-effect
       effect="spiro"
       id="path-effect4233"
       is_visible="true" />
    <inkscape:path-effect
       is_visible="true"
       id="path-effect4231"
       effect="spiro" />
    <inkscape:path-effect
       is_visible="true"
       id="path-effect4229"
       effect="spiro" />
    <inkscape:path-effect
       effect="spiro"
       id="path-effect4227"
       is_visible="true" />
    <inkscape:path-effect
       is_visible="true"
       id="path-effect4225"
       effect="spiro" />
    <inkscape:path-effect
       effect="spiro"
       id="path-effect4223"
       is_visible="true" />
    <inkscape:path-effect
       effect="spiro"
       id="path-effect4221"
       is_visible="true" />
    <inkscape:path-effect
       is_visible="true"
       id="path-effect4219"
       effect="spiro" />
    <inkscape:path-effect
       effect="spiro"
       id="path-effect4169"
       is_visible="true" />
    <inkscape:path-effect
       is_visible="true"
       id="path-effect4167"
       effect="spiro" />
    <inkscape:path-effect
       is_visible="true"
       id="path-effect4165"
       effect="spiro" />
    <inkscape:path-effect
       effect="spiro"
       id="path-effect4163"
       is_visible="true" />
    <inkscape:path-effect
       is_visible="true"
       id="path-effect4145"
       effect="spiro" />
    <inkscape:path-effect
       effect="spiro"
       id="path-effect4143"
       is_visible="true" />
    <inkscape:path-effect
       effect="spiro"
       id="path-effect4141"
       is_visible="true" />
    <inkscape:path-effect
       is_visible="true"
       id="path-effect4139"
       effect="spiro" />
    <inkscape:path-effect
       is_visible="true"
       id="path-effect4113"
       effect="spiro" />
    <inkscape:path-effect
       effect="spiro"
       id="path-effect4110"
       is_visible="true" />
    <inkscape:path-effect
       is_visible="true"
       id="path-effect4083"
       effect="spiro" />
    <inkscape:path-effect
       effect="spiro"
       id="path-effect4079"
       is_visible="true" />
    <inkscape:path-effect
       effect="spiro"
       id="path-effect4024"
       is_visible="true" />
    <inkscape:path-effect
       effect="spiro"
       id="path-effect4001"
       is_visible="true" />
    <inkscape:path-effect
       is_visible="true"
       id="path-effect3995"
       effect="spiro" />
    <inkscape:path-effect
       effect="spiro"
       id="path-effect3989"
       is_visible="true" />
    <inkscape:path-effect
       is_visible="true"
       id="path-effect3983"
       effect="spiro" />
    <inkscape:path-effect
       is_visible="true"
       id="path-effect3979"
       effect="spiro" />
    <inkscape:path-effect
       is_visible="true"
       id="path-effect3975"
       effect="spiro" />
    <inkscape:path-effect
       effect="spiro"
       id="path-effect3971"
       is_visible="true" />
    <inkscape:path-effect
       is_visible="true"
       id="path-effect3965"
       effect="spiro" />
    <inkscape:path-effect
       effect="spiro"
       id="path-effect3961"
       is_visible="true" />
    <inkscape:path-effect
       is_visible="true"
       id="path-effect3957"
       effect="spiro" />
    <inkscape:path-effect
       is_visible="true"
       id="path-effect3953"
       effect="spiro" />
    <inkscape:path-effect
       effect="spiro"
       id="path-effect3951"
       is_visible="true" />
    <inkscape:path-effect
       effect="spiro"
       id="path-effect3923"
       is_visible="true" />
    <inkscape:path-effect
       is_visible="true"
       id="path-effect3917"
       effect="spiro" />
    <inkscape:path-effect
       effect="spiro"
       id="path-effect3914"
       is_visible="true" />
    <inkscape:path-effect
       effect="spiro"
       id="path-effect3911"
       is_visible="true" />
    <inkscape:path-effect
       is_visible="true"
       id="path-effect3908"
       effect="spiro" />
    <inkscape:path-effect
       effect="spiro"
       id="path-effect3905"
       is_visible="true" />
    <inkscape:path-effect
       is_visible="true"
       id="path-effect3903"
       effect="spiro" />
    <inkscape:path-effect
       is_visible="true"
       id="path-effect3873"
       effect="spiro" />
    <inkscape:path-effect
       is_visible="true"
       id="path-effect3871"
       effect="spiro" />
    <inkscape:path-effect
       effect="spiro"
       id="path-effect3869"
       is_visible="true" />
    <inkscape:path-effect
       effect="spiro"
       id="path-effect3867"
       is_visible="true" />
    <inkscape:path-effect
       effect="spiro"
       id="path-effect3865"
       is_visible="true" />
    <inkscape:path-effect
       is_visible="true"
       id="path-effect3863"
       effect="spiro" />
    <inkscape:path-effect
       effect="spiro"
       id="path-effect3848"
       is_visible="true" />
    <inkscape:path-effect
       effect="spiro"
       id="path-effect3846"
       is_visible="true" />
    <inkscape:path-effect
       is_visible="true"
       id="path-effect3844"
       effect="spiro" />
    <inkscape:path-effect
       effect="spiro"
       id="path-effect3836"
       is_visible="true" />
    <inkscape:path-effect
       is_visible="true"
       id="path-effect3834"
       effect="spiro" />
    <inkscape:path-effect
       is_visible="true"
       id="path-effect3828"
       effect="spiro" />
    <inkscape:path-effect
       effect="spiro"
       id="path-effect3824"
       is_visible="true" />
    <inkscape:path-effect
       is_visible="true"
       id="path-effect3815"
       effect="spiro" />
    <inkscape:path-effect
       is_visible="true"
       id="path-effect3813"
       effect="spiro" />
    <inkscape:path-effect
       is_visible="true"
       id="path-effect3811"
       effect="spiro" />
    <inkscape:path-effect
       effect="spiro"
       id="path-effect3803"
       is_visible="true" />
    <inkscape:path-effect
       effect="spiro"
       id="path-effect3801"
       is_visible="true" />
    <inkscape:path-effect
       effect="spiro"
       id="path-effect3799"
       is_visible="true" />
    <inkscape:path-effect
       is_visible="true"
       id="path-effect3791"
       effect="spiro" />
    <inkscape:path-effect
       is_visible="true"
       id="path-effect3789"
       effect="spiro" />
    <inkscape:path-effect
       is_visible="true"
       id="path-effect3787"
       effect="spiro" />
    <inkscape:path-effect
       effect="spiro"
       id="path-effect3779"
       is_visible="true" />
    <inkscape:path-effect
       effect="spiro"
       id="path-effect3775"
       is_visible="true" />
    <inkscape:path-effect
       effect="spiro"
       id="path-effect3771"
       is_visible="true" />
    <inkscape:path-effect
       is_visible="true"
       id="path-effect3995-1"
       effect="spiro" />
    <inkscape:path-effect
       effect="spiro"
       id="path-effect3989-2"
       is_visible="true" />
    <inkscape:path-effect
       is_visible="true"
       id="path-effect3983-8"
       effect="spiro" />
    <inkscape:path-effect
       is_visible="true"
       id="path-effect3979-9"
       effect="spiro" />
    <inkscape:path-effect
       effect="spiro"
       id="path-effect3971-7"
       is_visible="true" />
    <inkscape:path-effect
       effect="spiro"
       id="path-effect4024-5"
       is_visible="true" />
    <inkscape:path-effect
       is_visible="true"
       id="path-effect3965-4"
       effect="spiro" />
    <inkscape:path-effect
       effect="spiro"
       id="path-effect3961-1"
       is_visible="true" />
    <inkscape:path-effect
       is_visible="true"
       id="path-effect3957-1"
       effect="spiro" />
    <inkscape:path-effect
       is_visible="true"
       id="path-effect3953-5"
       effect="spiro" />
    <inkscape:path-effect
       effect="spiro"
       id="path-effect3951-9"
       is_visible="true" />
  </defs>
  <sodipodi:namedview
     id="base"
     pagecolor="#ffffff"
     bordercolor="#666666"
     borderopacity="1.0"
     inkscape:pageopacity="0.0"
     inkscape:pageshadow="2"
     inkscape:zoom="0.48322475"
     inkscape:cx="592.43103"
     inkscape:cy="265.48234"
     inkscape:document-units="px"
     inkscape:current-layer="layer2"
     showgrid="false"
     width="1024px"
     inkscape:window-width="1438"
     inkscape:window-height="844"
     inkscape:window-x="0"
     inkscape:window-y="27"
     inkscape:window-maximized="0" />
  <metadata
     id="metadata7">
    <rdf:RDF>
      <cc:Work
         rdf:about="">
        <dc:format>image/svg+xml</dc:format>
        <dc:type
           rdf:resource="http://purl.org/dc/dcmitype/StillImage" />
        <dc:title />
      </cc:Work>
    </rdf:RDF>
  </metadata>
  <g
     inkscape:label="Calque 1"
     inkscape:groupmode="layer"
     id="layer1"
     transform="translate(0,-284.36218)"
     style="display:inline"
     sodipodi:insensitive="true">
    <rect
       style="color:#000000;fill:#000000;fill-opacity:1;fill-rule:evenodd;stroke:none;stroke-width:6;marker:none;visibility:visible;display:inline;overflow:visible;enable-background:accumulate"
       id="rect3753"
       width="1024"
       height="768"
       x="0"
       y="284.36218" />
  </g>
  <g
     inkscape:groupmode="layer"
     id="layer2"
     inkscape:label="Calque">
    <path
       style="color:#000000;fill:none;stroke:none;stroke-width:0.49999997;marker:none;visibility:visible;display:inline;overflow:visible;enable-background:accumulate"
       d="m 371.59036,342.59311 484.34882,0 0,222.95422 -484.34882,0 z"
       id="rect2995" />
    <g
       transform="matrix(0.5,0,0,0.5,71.593033,464.31545)"
       style="font-size:12px;font-style:normal;font-variant:normal;font-weight:500;font-stretch:normal;line-height:125%;letter-spacing:0px;word-spacing:0px;fill:#ffffff;fill-opacity:1;stroke:none;font-family:News Cycle;-inkscape-font-specification:News Cycle Medium"
       id="flowRoot4718">
      <path
         d="m 909.64375,-81.21 -12,0 0,3.28 c -10e-6,0.453342 0.23999,0.680008 0.72,0.68 l 10.56,0 c 0.47998,8e-6 0.71998,-0.226658 0.72,-0.68 l 0,-3.28 m 4.68,5.08 c -3e-5,0.933339 -0.21336,1.626672 -0.64,2.08 -0.4267,0.426671 -1.22669,0.640004 -2.4,0.64 l -15.24,0 c -1.20001,4e-6 -2.01334,-0.199996 -2.44,-0.6 -0.42668,-0.399995 -0.64001,-1.146661 -0.64,-2.24 l 0,-12.88 c -10e-6,-0.133313 0.0533,-0.23998 0.16,-0.32 0.10666,-0.106646 0.22666,-0.15998 0.36,-0.16 l 3.6,0 c 0.13332,2e-5 0.25332,0.05335 0.36,0.16 0.13332,0.08002 0.19999,0.186687 0.2,0.32 l 0,4.12 12,0 0,-4.28 c -2e-5,-0.133313 0.0533,-0.253313 0.16,-0.36 0.10664,-0.106646 0.22664,-0.159979 0.36,-0.16 l 3.64,0 c 0.1333,2.1e-5 0.2533,0.05335 0.36,0.16 0.10664,0.106687 0.15997,0.226687 0.16,0.36 l 0,13.16"
         style="font-size:40px;font-weight:bold;fill:#ffffff;-inkscape-font-specification:News Cycle Bold"
         id="path4302"
         inkscape:connector-curvature="0" />
      <path
         d="m 909.08375,-33.01 c -2e-5,0.18668 -0.08,0.333347 -0.24,0.44 -0.13336,0.10668 -0.26669,0.160013 -0.4,0.16 l -5.48,0 0,19.32 c -2e-5,0.34666 -0.20002,0.519993 -0.6,0.52 l -3.56,0 c -0.16001,-7e-6 -0.30668,-0.05334 -0.44,-0.16 -0.10668,-0.08001 -0.16001,-0.200006 -0.16,-0.36 l 0,-37.64 c -10e-6,-0.133302 0.0533,-0.253302 0.16,-0.36 0.13332,-0.106635 0.27999,-0.159968 0.44,-0.16 l 3.56,0 c 0.39998,3.2e-5 0.59998,0.173365 0.6,0.52 l 0,14.4 5.48,0 c 0.13331,1.7e-5 0.26664,0.05335 0.4,0.16 0.15998,0.08002 0.23998,0.186683 0.24,0.32 l 0,2.84"
         style="font-size:40px;font-weight:bold;fill:#ffffff;-inkscape-font-specification:News Cycle Bold"
         id="path4304"
         inkscape:connector-curvature="0" />
      <path
         d="m 901.52375,15.324541 -8.6,0 0,7.48 c -1e-5,0.453342 0.23999,0.680008 0.72,0.68 l 7.16,0 c 0.47998,8e-6 0.71998,-0.226658 0.72,-0.68 l 0,-7.48 m 4.6,9.24 c -2e-5,0.880006 -0.21335,1.546672 -0.64,2 -0.42669,0.453338 -1.21335,0.680004 -2.36,0.68 l -11.76,0 c -1.17334,4e-6 -1.97334,-0.199995 -2.4,-0.6 -0.42667,-0.399995 -0.64,-1.133327 -0.64,-2.2 l 0,-21.6000003 c 0,-0.1333041 0.0533,-0.2399707 0.16,-0.32 0.10666,-0.1066372 0.22666,-0.1599705 0.36,-0.16 l 3.52,0 c 0.13333,2.95e-5 0.25333,0.053363 0.36,0.16 0.13333,0.080029 0.19999,0.1866959 0.2,0.32 l 0,8.7600003 8.6,0 0,-8.8000003 c -2e-5,-0.1333041 0.0533,-0.253304 0.16,-0.36 0.10665,-0.1066371 0.22665,-0.1599704 0.36,-0.16 l 3.56,0 c 0.13331,2.96e-5 0.25331,0.053363 0.36,0.16 0.10665,0.106696 0.15998,0.2266959 0.16,0.36 l 0,21.7600003 m 16,-6.36 c -4e-5,0.160013 -0.0667,0.293346 -0.2,0.4 -0.1067,0.10668 -0.2267,0.160013 -0.36,0.16 l -5.44,0 0,18.96 c -3e-5,0.34666 -0.17336,0.519993 -0.52,0.52 l -3.56,0 c -0.34669,-7e-6 -0.52003,-0.17334 -0.52,-0.52 l 0,-36.92000032 c -3e-5,-0.3466352 0.17331,-0.51996836 0.52,-0.52 l 3.56,0 c 0.34664,3.164e-5 0.51997,0.1733648 0.52,0.52 l 0,14.12000032 5.44,0 c 0.1333,1.7e-5 0.2533,0.05335 0.36,0.16 0.1333,0.08002 0.19996,0.186683 0.2,0.32 l 0,2.8"
         style="font-size:40px;font-weight:bold;fill:#ffffff;-inkscape-font-specification:News Cycle Bold"
         id="path4306"
         inkscape:connector-curvature="0" />
    </g>
    <g
       transform="matrix(0.5,0,0,0.5,113.13867,463.00765)"
       style="font-size:12px;font-style:normal;font-variant:normal;font-weight:500;font-stretch:normal;line-height:125%;letter-spacing:0px;word-spacing:0px;fill:#ffffff;fill-opacity:1;stroke:none;font-family:News Cycle;-inkscape-font-specification:News Cycle Medium"
       id="flowRoot5057">
      <path
         d="m 914.76375,-74.29 c -3e-5,0.186672 -0.0667,0.320005 -0.2,0.4 -0.1067,0.08 -0.2267,0.120005 -0.36,0.12 l -18.6,0 c -1.22668,5e-6 -2.05334,-0.226662 -2.48,-0.68 -0.40001,-0.453328 -0.60001,-1.213327 -0.6,-2.28 l 0,-11.8 c -10e-6,-0.159981 0.0533,-0.306647 0.16,-0.44 0.13333,-0.133313 0.26666,-0.19998 0.4,-0.2 l 3.52,0 c 0.15999,2e-5 0.29332,0.06669 0.4,0.2 0.13332,0.106686 0.19999,0.253353 0.2,0.44 l 0,10.16 c -10e-6,0.293342 0.0533,0.480009 0.16,0.56 0.10665,0.08001 0.29332,0.120008 0.56,0.12 l 16.28,0 c 0.1333,8e-6 0.2533,0.05334 0.36,0.16 0.1333,0.08001 0.19997,0.186675 0.2,0.32 l 0,2.92"
         style="font-size:40px;font-weight:bold;fill:#ffffff;-inkscape-font-specification:News Cycle Bold"
         id="path4291"
         inkscape:connector-curvature="0" />
      <path
         d="m 909.72375,-26.77 c 0.0533,0.186674 0.0133,0.360007 -0.12,0.52 -0.13336,0.160007 -0.32002,0.266673 -0.56,0.32 -0.98669,0.266673 -2.24002,0.533339 -3.76,0.8 -1.52002,0.240006 -3.10668,0.453339 -4.76,0.64 -1.65335,0.186672 -3.28001,0.320005 -4.88,0.4 -1.57334,0.05334 -2.92001,0.02667 -4.04,-0.08 -1.04001,-0.106662 -1.78667,-0.413328 -2.24,-0.92 -0.45334,-0.50666 -0.68,-1.213326 -0.68,-2.12 l 0,-20.8 c 0,-0.133304 0.0533,-0.253304 0.16,-0.36 0.13333,-0.133304 0.26666,-0.199971 0.4,-0.2 l 3.44,0 c 0.15999,2.9e-5 0.29333,0.0667 0.4,0.2 0.13332,0.106696 0.19999,0.226696 0.2,0.36 l 0,19.28 c -1e-5,0.266676 0.0533,0.440009 0.16,0.52 0.10666,0.05334 0.29332,0.09334 0.56,0.12 0.95999,0.08001 2.03999,0.106675 3.24,0.08 1.22665,-0.05332 2.47999,-0.146658 3.76,-0.28 1.30665,-0.159991 2.58665,-0.346657 3.84,-0.56 1.27998,-0.23999 2.46664,-0.493323 3.56,-0.76 0.29331,-0.05332 0.49331,10e-6 0.6,0.16 0.13331,0.133343 0.22664,0.28001 0.28,0.44 l 0.44,2.24 m 12.4,-6.2 c -4e-5,0.160014 -0.0667,0.293347 -0.2,0.4 -0.1067,0.10668 -0.2267,0.160013 -0.36,0.16 l -5.44,0 0,18.96 c -3e-5,0.346661 -0.17336,0.519994 -0.52,0.52 l -3.56,0 c -0.34669,-6e-6 -0.52003,-0.173339 -0.52,-0.52 l 0,-36.92 c -3e-5,-0.346635 0.17331,-0.519968 0.52,-0.52 l 3.56,0 c 0.34664,3.2e-5 0.51997,0.173365 0.52,0.52 l 0,14.12 5.44,0 c 0.1333,1.7e-5 0.2533,0.05335 0.36,0.16 0.1333,0.08002 0.19996,0.186683 0.2,0.32 l 0,2.8"
         style="font-size:40px;font-weight:bold;fill:#ffffff;-inkscape-font-specification:News Cycle Bold"
         id="path4293"
         inkscape:connector-curvature="0" />
      <path
         d="m 901.52375,15.324541 -8.6,0 0,7.48 c -1e-5,0.453342 0.23999,0.680008 0.72,0.68 l 7.16,0 c 0.47998,8e-6 0.71998,-0.226658 0.72,-0.68 l 0,-7.48 m 4.6,9.24 c -2e-5,0.880006 -0.21335,1.546672 -0.64,2 -0.42669,0.453338 -1.21335,0.680004 -2.36,0.68 l -11.76,0 c -1.17334,4e-6 -1.97334,-0.199995 -2.4,-0.6 -0.42667,-0.399995 -0.64,-1.133327 -0.64,-2.2 l 0,-21.6000003 c 0,-0.1333041 0.0533,-0.2399707 0.16,-0.32 0.10666,-0.1066372 0.22666,-0.1599705 0.36,-0.16 l 3.52,0 c 0.13333,2.95e-5 0.25333,0.053363 0.36,0.16 0.13333,0.080029 0.19999,0.1866959 0.2,0.32 l 0,8.7600003 8.6,0 0,-8.8000003 c -2e-5,-0.1333041 0.0533,-0.253304 0.16,-0.36 0.10665,-0.1066371 0.22665,-0.1599704 0.36,-0.16 l 3.56,0 c 0.13331,2.96e-5 0.25331,0.053363 0.36,0.16 0.10665,0.106696 0.15998,0.2266959 0.16,0.36 l 0,21.7600003 m 16,-6.36 c -4e-5,0.160013 -0.0667,0.293346 -0.2,0.4 -0.1067,0.10668 -0.2267,0.160013 -0.36,0.16 l -5.44,0 0,18.96 c -3e-5,0.34666 -0.17336,0.519993 -0.52,0.52 l -3.56,0 c -0.34669,-7e-6 -0.52003,-0.17334 -0.52,-0.52 l 0,-36.92000032 c -3e-5,-0.3466352 0.17331,-0.51996836 0.52,-0.52 l 3.56,0 c 0.34664,3.164e-5 0.51997,0.1733648 0.52,0.52 l 0,14.12000032 5.44,0 c 0.1333,1.7e-5 0.2533,0.05335 0.36,0.16 0.1333,0.08002 0.19996,0.186683 0.2,0.32 l 0,2.8"
         style="font-size:40px;font-weight:bold;fill:#ffffff;-inkscape-font-specification:News Cycle Bold"
         id="path4295"
         inkscape:connector-curvature="0" />
      <path
         d="m 947.30187,24.404541 c 0.0533,0.186674 0.0133,0.360007 -0.12,0.52 -0.13335,0.160007 -0.32002,0.266673 -0.55999,0.32 -0.98669,0.266673 -2.24003,0.533339 -3.76,0.8 -1.52002,0.240005 -3.10669,0.453338 -4.76001,0.64 -1.65334,0.186671 -3.28001,0.320005 -4.88,0.4 -1.57334,0.05334 -2.92,0.02667 -4.04,-0.08 -1.04,-0.106662 -1.78667,-0.413328 -2.24,-0.92 -0.45333,-0.506661 -0.68,-1.213327 -0.67999,-2.12 l 0,-20.8000003 c -10e-6,-0.1333045 0.0533,-0.2533043 0.15999,-0.36 0.13333,-0.1333041 0.26667,-0.1999707 0.4,-0.2 l 3.44001,0 c 0.15999,2.93e-5 0.29332,0.066696 0.39999,0.2 0.13333,0.1066957 0.2,0.2266955 0.20001,0.36 l 0,19.2800003 c -1e-5,0.266676 0.0533,0.440009 0.16,0.52 0.10665,0.05334 0.29332,0.09334 0.55999,0.12 0.95999,0.08001 2.03999,0.106675 3.24,0.08 1.22666,-0.05333 2.47999,-0.146658 3.76,-0.28 1.30665,-0.159991 2.58665,-0.346658 3.84,-0.56 1.27998,-0.23999 2.46665,-0.493324 3.56,-0.76 0.29331,-0.05332 0.49331,1e-5 0.6,0.16 0.13331,0.133343 0.22665,0.28001 0.28001,0.44 l 0.43999,2.24 m 12.4,-6.2 c -3e-5,0.160013 -0.0667,0.293346 -0.19999,0.4 -0.10671,0.10668 -0.22671,0.160013 -0.36,0.16 l -5.44001,0 0,18.96 c -3e-5,0.34666 -0.17336,0.519993 -0.52,0.52 l -3.55999,0 c -0.3467,-7e-6 -0.52003,-0.17334 -0.52001,-0.52 l 0,-36.92000032 c -2e-5,-0.3466352 0.17331,-0.51996836 0.52001,-0.52 l 3.55999,0 c 0.34664,3.164e-5 0.51997,0.1733648 0.52,0.52 l 0,14.12000032 5.44001,0 c 0.13329,1.7e-5 0.25329,0.05335 0.36,0.16 0.13329,0.08002 0.19996,0.186683 0.19999,0.32 l 0,2.8"
         style="font-size:40px;font-weight:bold;fill:#ffffff;-inkscape-font-specification:News Cycle Bold"
         id="path4297"
         inkscape:connector-curvature="0" />
      <path
         d="m 984.88,24.404541 c 0.0533,0.186674 0.0133,0.360007 -0.12,0.52 -0.13336,0.160007 -0.32002,0.266673 -0.56,0.32 -0.98669,0.266673 -2.24002,0.533339 -3.76,0.8 -1.52002,0.240005 -3.10668,0.453338 -4.76,0.64 -1.65335,0.186671 -3.28001,0.320005 -4.88,0.4 -1.57334,0.05334 -2.92001,0.02667 -4.04,-0.08 -1.04001,-0.106662 -1.78667,-0.413328 -2.24,-0.92 -0.45334,-0.506661 -0.68,-1.213327 -0.68,-2.12 l 0,-20.8000003 c 0,-0.1333045 0.0533,-0.2533043 0.16,-0.36 0.13333,-0.1333041 0.26666,-0.1999707 0.4,-0.2 l 3.44,0 c 0.15999,2.93e-5 0.29333,0.066696 0.4,0.2 0.13332,0.1066957 0.19999,0.2266955 0.2,0.36 l 0,19.2800003 c -1e-5,0.266676 0.0533,0.440009 0.16,0.52 0.10666,0.05334 0.29332,0.09334 0.56,0.12 0.95999,0.08001 2.03999,0.106675 3.24,0.08 1.22665,-0.05333 2.47999,-0.146658 3.76,-0.28 1.30665,-0.159991 2.58665,-0.346658 3.84,-0.56 1.27998,-0.23999 2.46664,-0.493324 3.56,-0.76 0.29331,-0.05332 0.49331,1e-5 0.6,0.16 0.13331,0.133343 0.22664,0.28001 0.28,0.44 l 0.44,2.24 m 12.4,-6.2 c -4e-5,0.160013 -0.0667,0.293346 -0.2,0.4 -0.1067,0.10668 -0.2267,0.160013 -0.36,0.16 l -5.44,0 0,18.96 c -3e-5,0.34666 -0.17336,0.519993 -0.52,0.52 l -3.56,0 c -0.34669,-7e-6 -0.52003,-0.17334 -0.52,-0.52 l 0,-36.92000032 c -3e-5,-0.3466352 0.17331,-0.51996836 0.52,-0.52 l 3.56,0 c 0.34664,3.164e-5 0.51997,0.1733648 0.52,0.52 l 0,14.12000032 5.44,0 c 0.1333,1.7e-5 0.2533,0.05335 0.36,0.16 0.1333,0.08002 0.19996,0.186683 0.2,0.32 l 0,2.8"
         style="font-size:40px;font-weight:bold;fill:#ffffff;-inkscape-font-specification:News Cycle Bold"
         id="path4299"
         inkscape:connector-curvature="0" />
    </g>
    <g
       transform="matrix(0.5,0,0,0.5,185.14666,465.62324)"
       style="font-size:12px;font-style:normal;font-variant:normal;font-weight:500;font-stretch:normal;line-height:125%;letter-spacing:0px;word-spacing:0px;fill:#ffffff;fill-opacity:1;stroke:none;font-family:News Cycle;-inkscape-font-specification:News Cycle Medium"
       id="flowRoot5089">
      <path
         d="m 891.11328,-87.001241 c -0.13021,0.768248 -0.22136,1.490903 -0.27344,2.167969 -0.0521,0.6771 -0.0781,1.373713 -0.0781,2.089844 -1e-5,0.703139 0.026,1.399753 0.0781,2.089844 0.0521,0.690116 0.14323,1.419282 0.27344,2.1875 0.14322,0.768238 0.31901,1.477873 0.52734,2.128906 0.20833,0.651049 0.48828,1.282559 0.83985,1.894531 0.36457,0.598964 0.76822,1.113287 1.21094,1.542969 1.00259,0.937504 2.26561,1.406253 3.78906,1.40625 4.23175,3e-6 6.34764,-3.763014 6.34765,-11.289063 -10e-6,-6.132791 -1.4323,-9.830704 -4.29687,-11.09375 -0.62501,-0.273411 -1.32163,-0.41013 -2.08984,-0.410156 -0.75522,2.6e-5 -1.45835,0.136745 -2.10938,0.410156 -0.63803,0.273463 -1.1849,0.638046 -1.64062,1.09375 -0.44272,0.442733 -0.84637,0.983097 -1.21094,1.621094 -0.35157,0.638043 -0.63152,1.295595 -0.83985,1.972656 -0.20833,0.677104 -0.38412,1.40627 -0.52734,2.1875 m -4.82422,7.1875 c -0.13021,-0.98957 -0.19531,-1.972642 -0.19531,-2.949218 0,-0.976547 0.0586,-1.959619 0.17578,-2.949219 0.11719,-0.989565 0.3125,-1.992168 0.58594,-3.007813 0.27343,-1.028624 0.61198,-1.998675 1.01562,-2.910156 0.40365,-0.911434 0.91146,-1.770808 1.52344,-2.578125 0.625,-0.820285 1.32161,-1.52341 2.08984,-2.109375 1.65364,-1.262991 3.66536,-1.894501 6.03516,-1.894531 3.25519,3e-5 5.85936,1.341175 7.8125,4.023437 2.10935,2.91669 3.16404,6.72528 3.16406,11.425782 -2e-5,4.791676 -1.01564,8.567714 -3.04687,11.328125 -1.90106,2.578125 -4.54429,3.867187 -7.92969,3.867187 -3.21615,0 -5.85287,-1.295572 -7.91016,-3.886719 -1.74479,-2.187494 -2.85156,-4.97395 -3.32031,-8.359375"
         style="font-size:40px;font-weight:bold;fill:#ffffff;-inkscape-font-specification:News Cycle Bold"
         id="path4282"
         inkscape:connector-curvature="0" />
      <path
         d="m 922.12375,-32.97 c -4e-5,0.160014 -0.0667,0.293347 -0.2,0.4 -0.1067,0.10668 -0.2267,0.160013 -0.36,0.16 l -5.4,0 0,18.96 c -3e-5,0.159994 -0.0667,0.279994 -0.2,0.36 -0.1067,0.10666 -0.2267,0.159994 -0.36,0.16 l -3.52,0 c -0.37336,-6e-6 -0.56003,-0.173339 -0.56,-0.52 l 0,-36.92 c -3e-5,-0.346635 0.18664,-0.519968 0.56,-0.52 l 3.52,0 c 0.1333,3.2e-5 0.2533,0.05336 0.36,0.16 0.1333,0.106698 0.19997,0.226698 0.2,0.36 l 0,14.12 5.4,0 c 0.1333,1.7e-5 0.2533,0.05335 0.36,0.16 0.1333,0.08002 0.19996,0.186683 0.2,0.32 l 0,2.8 m -19.48,-2.44 c -2e-5,-1.226649 -0.12002,-2.386648 -0.36,-3.48 -0.24002,-1.093313 -0.58668,-2.039978 -1.04,-2.84 -0.45335,-0.826643 -1.01335,-1.479976 -1.68,-1.96 -0.66668,-0.479975 -1.42668,-0.719975 -2.28,-0.72 -0.82668,2.5e-5 -1.57334,0.240025 -2.24,0.72 -0.64001,0.480024 -1.18668,1.133357 -1.64,1.96 -0.45334,0.800022 -0.80001,1.746687 -1.04,2.84 -0.24001,1.093352 -0.36001,2.253351 -0.36,3.48 -10e-6,1.200015 0.11999,2.34668 0.36,3.44 0.23999,1.093345 0.58666,2.053344 1.04,2.88 0.45332,0.826676 0.99999,1.493342 1.64,2 0.66666,0.480007 1.41332,0.720007 2.24,0.72 0.85332,7e-6 1.61332,-0.239993 2.28,-0.72 0.66665,-0.506658 1.22665,-1.173324 1.68,-2 0.45332,-0.826656 0.79998,-1.786655 1.04,-2.88 0.23998,-1.09332 0.35998,-2.239985 0.36,-3.44 m -5.36,13.12 c -1.52001,3e-6 -2.89334,-0.306663 -4.12,-0.92 -1.22667,-0.639995 -2.26667,-1.533328 -3.12,-2.68 -0.82667,-1.146659 -1.46667,-2.519991 -1.92,-4.12 -0.45334,-1.599988 -0.68,-3.373319 -0.68,-5.32 0,-1.999982 0.22666,-3.813313 0.68,-5.44 0.45333,-1.626644 1.09333,-2.999975 1.92,-4.12 0.85333,-1.14664 1.89333,-2.026639 3.12,-2.64 1.22666,-0.639971 2.59999,-0.959971 4.12,-0.96 1.54665,2.9e-5 2.91998,0.306696 4.12,0.92 1.22665,0.613361 2.26665,1.49336 3.12,2.64 0.85331,1.120025 1.50665,2.493357 1.96,4.12 0.45331,1.60002 0.67998,3.400018 0.68,5.4 -2e-5,2.000014 -0.22669,3.813346 -0.68,5.44 -0.45335,1.600009 -1.10669,2.973341 -1.96,4.12 -0.85335,1.146672 -1.89335,2.026671 -3.12,2.64 -1.20002,0.613337 -2.57335,0.920003 -4.12,0.92"
         style="font-size:40px;font-weight:bold;fill:#ffffff;-inkscape-font-specification:News Cycle Bold"
         id="path4284"
         inkscape:connector-curvature="0" />
      <path
         d="m 922.12375,18.204541 c -4e-5,0.160013 -0.0667,0.293346 -0.2,0.4 -0.1067,0.10668 -0.2267,0.160013 -0.36,0.16 l -5.4,0 0,18.96 c -3e-5,0.159994 -0.0667,0.279994 -0.2,0.36 -0.1067,0.10666 -0.2267,0.159993 -0.36,0.16 l -3.52,0 c -0.37336,-7e-6 -0.56003,-0.17334 -0.56,-0.52 l 0,-36.92000032 c -3e-5,-0.3466352 0.18664,-0.51996836 0.56,-0.52 l 3.52,0 c 0.1333,3.164e-5 0.2533,0.0533649 0.36,0.16 0.1333,0.10669804 0.19997,0.22669792 0.2,0.36 l 0,14.12000032 5.4,0 c 0.1333,1.7e-5 0.2533,0.05335 0.36,0.16 0.1333,0.08002 0.19996,0.186683 0.2,0.32 l 0,2.8 m -19.48,-2.44 c -2e-5,-1.22665 -0.12002,-2.386648 -0.36,-3.48 -0.24002,-1.093313 -0.58668,-2.039979 -1.04,-2.8400003 -0.45335,-0.8266434 -1.01335,-1.4799761 -1.68,-1.96 -0.66668,-0.4799751 -1.42668,-0.7199749 -2.28,-0.72 -0.82668,2.51e-5 -1.57334,0.2400249 -2.24,0.72 -0.64001,0.4800239 -1.18668,1.1333566 -1.64,1.96 -0.45334,0.8000213 -0.80001,1.7466873 -1.04,2.8400003 -0.24001,1.093352 -0.36001,2.25335 -0.36,3.48 -10e-6,1.200015 0.11999,2.34668 0.36,3.44 0.23999,1.093345 0.58666,2.053344 1.04,2.88 0.45332,0.826675 0.99999,1.493341 1.64,2 0.66666,0.480007 1.41332,0.720007 2.24,0.72 0.85332,7e-6 1.61332,-0.239993 2.28,-0.72 0.66665,-0.506659 1.22665,-1.173325 1.68,-2 0.45332,-0.826656 0.79998,-1.786655 1.04,-2.88 0.23998,-1.09332 0.35998,-2.239985 0.36,-3.44 m -5.36,13.12 c -1.52001,3e-6 -2.89334,-0.306664 -4.12,-0.92 -1.22667,-0.639996 -2.26667,-1.533328 -3.12,-2.68 -0.82667,-1.146659 -1.46667,-2.519991 -1.92,-4.12 -0.45334,-1.599988 -0.68,-3.37332 -0.68,-5.32 0,-1.999982 0.22666,-3.813314 0.68,-5.44 0.45333,-1.6266438 1.09333,-2.9999758 1.92,-4.1200003 0.85333,-1.1466399 1.89333,-2.026639 3.12,-2.64 1.22666,-0.6399711 2.59999,-0.9599708 4.12,-0.96 1.54665,2.92e-5 2.91998,0.3066956 4.12,0.92 1.22665,0.613361 2.26665,1.4933601 3.12,2.64 0.85331,1.1200245 1.50665,2.4933565 1.96,4.1200003 0.45331,1.60002 0.67998,3.400018 0.68,5.4 -2e-5,2.000014 -0.22669,3.813345 -0.68,5.44 -0.45335,1.600009 -1.10669,2.973341 -1.96,4.12 -0.85335,1.146672 -1.89335,2.026671 -3.12,2.64 -1.20002,0.613336 -2.57335,0.920003 -4.12,0.92"
         style="font-size:40px;font-weight:bold;fill:#ffffff;-inkscape-font-specification:News Cycle Bold"
         id="path4286"
         inkscape:connector-curvature="0" />
      <path
         d="m 939.10187,15.324541 -8.59999,0 0,7.48 c -10e-6,0.453342 0.23999,0.680008 0.71999,0.68 l 7.16001,0 c 0.47998,8e-6 0.71998,-0.226658 0.71999,-0.68 l 0,-7.48 m 4.6,9.24 c -2e-5,0.880006 -0.21335,1.546672 -0.64,2 -0.42668,0.453338 -1.21335,0.680004 -2.36,0.68 l -11.76,0 c -1.17333,4e-6 -1.97333,-0.199995 -2.4,-0.6 -0.42667,-0.399995 -0.64,-1.133327 -0.63999,-2.2 l 0,-21.6000003 c -10e-6,-0.1333041 0.0533,-0.2399707 0.15999,-0.32 0.10667,-0.1066372 0.22667,-0.1599705 0.36,-0.16 l 3.52,0 c 0.13333,2.95e-5 0.25333,0.053363 0.36,0.16 0.13333,0.080029 0.2,0.1866959 0.20001,0.32 l 0,8.7600003 8.59999,0 0,-8.8000003 c -10e-6,-0.1333041 0.0533,-0.253304 0.16001,-0.36 0.10664,-0.1066371 0.22664,-0.1599704 0.36,-0.16 l 3.55999,0 c 0.13332,2.96e-5 0.25332,0.053363 0.36,0.16 0.10665,0.106696 0.15998,0.2266959 0.16,0.36 l 0,21.7600003 m 16,-6.36 c -3e-5,0.160013 -0.0667,0.293346 -0.19999,0.4 -0.10671,0.10668 -0.22671,0.160013 -0.36,0.16 l -5.44001,0 0,18.96 c -3e-5,0.34666 -0.17336,0.519993 -0.52,0.52 l -3.55999,0 c -0.3467,-7e-6 -0.52003,-0.17334 -0.52001,-0.52 l 0,-36.92000032 c -2e-5,-0.3466352 0.17331,-0.51996836 0.52001,-0.52 l 3.55999,0 c 0.34664,3.164e-5 0.51997,0.1733648 0.52,0.52 l 0,14.12000032 5.44001,0 c 0.13329,1.7e-5 0.25329,0.05335 0.36,0.16 0.13329,0.08002 0.19996,0.186683 0.19999,0.32 l 0,2.8"
         style="font-size:40px;font-weight:bold;fill:#ffffff;-inkscape-font-specification:News Cycle Bold"
         id="path4288"
         inkscape:connector-curvature="0" />
    </g>
    <g
       transform="matrix(0.5,0,0,0.5,233.69629,463.70119)"
       style="font-size:12px;font-style:normal;font-variant:normal;font-weight:500;font-stretch:normal;line-height:125%;letter-spacing:0px;word-spacing:0px;fill:#ffffff;fill-opacity:1;stroke:none;font-family:News Cycle;-inkscape-font-specification:News Cycle Medium"
       id="flowRoot5121">
      <path
         d="m 901.64375,-88.89 -8.48,0 0,4.6 c -1e-5,0.453348 0.23999,0.680014 0.72,0.68 l 7.04,0 c 0.47998,1.4e-5 0.71998,-0.226652 0.72,-0.68 l 0,-4.6 m 4.56,6.36 c -2e-5,0.906679 -0.21335,1.586678 -0.64,2.04 -0.42669,0.426677 -1.21335,0.640011 -2.36,0.64 l -11.56,0 c -1.17334,1.1e-5 -1.97334,-0.199989 -2.4,-0.6 -0.42667,-0.399988 -0.64,-1.133321 -0.64,-2.2 l 0,-16.08 c 0,-0.133304 0.0533,-0.23997 0.16,-0.32 0.10666,-0.106637 0.22666,-0.15997 0.36,-0.16 l 3.48,0 c 0.13333,3e-5 0.25333,0.05336 0.36,0.16 0.13333,0.08003 0.19999,0.186696 0.2,0.32 l 0,6.12 8.48,0 0,-6.16 c -2e-5,-0.133304 0.0533,-0.253304 0.16,-0.36 0.10665,-0.106637 0.22665,-0.15997 0.36,-0.16 l 3.52,0 c 0.13331,3e-5 0.25331,0.05336 0.36,0.16 0.10665,0.106696 0.15998,0.226696 0.16,0.36 l 0,16.24 m 11.48,18.44 c -3e-5,0.159995 -0.0667,0.279995 -0.2,0.36 -0.1067,0.07999 -0.2267,0.119994 -0.36,0.12 l -21.16,0 c -1.20001,-6e-6 -2.01334,-0.213339 -2.44,-0.64 -0.40001,-0.426671 -0.60001,-1.160004 -0.6,-2.2 l 0,-8.44 c -1e-5,-0.133328 0.0533,-0.266661 0.16,-0.4 0.13332,-0.133327 0.26666,-0.199994 0.4,-0.2 l 3.44,0 c 0.15999,6e-6 0.29332,0.06667 0.4,0.2 0.13332,0.106673 0.19999,0.240006 0.2,0.4 l 0,6.8 c -10e-6,0.266665 0.0533,0.439998 0.16,0.52 0.10665,0.08 0.30665,0.119998 0.6,0.12 l 18.84,0 c 0.1333,-2e-6 0.2533,0.05333 0.36,0.16 0.1333,0.106665 0.19997,0.226664 0.2,0.36 l 0,2.84 m 4.44,-20.92 c -4e-5,0.133349 -0.0667,0.253349 -0.2,0.36 -0.1067,0.08002 -0.2267,0.120015 -0.36,0.12 l -5.44,0 0,10.08 c -3e-5,0.346672 -0.17336,0.520005 -0.52,0.52 l -3.56,0 c -0.34669,5e-6 -0.52003,-0.173328 -0.52,-0.52 l 0,-25.92 c -3e-5,-0.34664 0.17331,-0.51997 0.52,-0.52 l 3.56,0 c 0.34664,3e-5 0.51997,0.17336 0.52,0.52 l 0,12 5.44,0 c 0.1333,1.9e-5 0.2533,0.05335 0.36,0.16 0.1333,0.08002 0.19996,0.186685 0.2,0.32 l 0,2.88"
         style="font-size:40px;font-weight:bold;fill:#ffffff;-inkscape-font-specification:News Cycle Bold"
         id="path4275"
         inkscape:connector-curvature="0" />
      <path
         d="m 907.12375,-39.61 c -2e-5,1.333352 -0.24002,2.586684 -0.72,3.76 -0.48002,1.173349 -1.16002,2.200014 -2.04,3.08 -0.85335,0.853346 -1.88002,1.533345 -3.08,2.04 -1.20002,0.480011 -2.52001,0.720011 -3.96,0.72 -1.44001,1.1e-5 -2.74668,-0.239989 -3.92,-0.72 -1.17334,-0.506655 -2.18667,-1.186654 -3.04,-2.04 -0.82667,-0.879986 -1.48,-1.906651 -1.96,-3.08 -0.45334,-1.173316 -0.68,-2.426648 -0.68,-3.76 0,-1.279978 0.22666,-2.49331 0.68,-3.64 0.48,-1.173308 1.13333,-2.199974 1.96,-3.08 0.85333,-0.879972 1.86666,-1.573305 3.04,-2.08 1.17332,-0.533304 2.47999,-0.79997 3.92,-0.8 1.43999,3e-5 2.75998,0.266696 3.96,0.8 1.19998,0.506695 2.22665,1.200028 3.08,2.08 0.87998,0.880026 1.55998,1.906692 2.04,3.08 0.47998,1.14669 0.71998,2.360022 0.72,3.64 m -4.56,0.08 c -2e-5,-0.773312 -0.13335,-1.493312 -0.4,-2.16 -0.24002,-0.69331 -0.60002,-1.279976 -1.08,-1.76 -0.45335,-0.506642 -1.00002,-0.906642 -1.64,-1.2 -0.64001,-0.293308 -1.34668,-0.439974 -2.12,-0.44 -0.77335,2.6e-5 -1.48001,0.146692 -2.12,0.44 -0.61334,0.293358 -1.14668,0.693358 -1.6,1.2 -0.45334,0.480024 -0.81334,1.06669 -1.08,1.76 -0.24001,0.666688 -0.36001,1.386688 -0.36,2.16 -1e-5,0.800019 0.11999,1.546685 0.36,2.24 0.26666,0.693351 0.62666,1.29335 1.08,1.8 0.45332,0.480016 0.98666,0.866682 1.6,1.16 0.63999,0.293348 1.34665,0.440015 2.12,0.44 0.77332,1.5e-5 1.47999,-0.146652 2.12,-0.44 0.63998,-0.293318 1.18665,-0.679984 1.64,-1.16 0.47998,-0.50665 0.83998,-1.106649 1.08,-1.8 0.26665,-0.693315 0.39998,-1.439981 0.4,-2.24 m 19.56,3.96 c -4e-5,0.13335 -0.0667,0.253349 -0.2,0.36 -0.1067,0.106683 -0.2267,0.160016 -0.36,0.16 l -5.44,0 0,10.6 c -3e-5,0.346672 -0.17336,0.520005 -0.52,0.52 l -3.56,0 c -0.34669,5e-6 -0.52003,-0.173328 -0.52,-0.52 l 0,-25.92 c -3e-5,-0.346635 0.17331,-0.519968 0.52,-0.52 l 3.56,0 c 0.34664,3.2e-5 0.51997,0.173365 0.52,0.52 l 0,11.48 5.44,0 c 0.1333,2e-5 0.2533,0.05335 0.36,0.16 0.1333,0.08002 0.19996,0.186686 0.2,0.32 l 0,2.84 m -4.44,21.48 c -3e-5,0.159995 -0.0667,0.279995 -0.2,0.36 -0.1067,0.07999 -0.2267,0.119994 -0.36,0.12 l -21.12,0 c -1.22668,-6e-6 -2.05334,-0.213339 -2.48,-0.64 -0.40001,-0.426671 -0.60001,-1.160004 -0.6,-2.2 l 0,-8.8 c -1e-5,-0.133327 0.0533,-0.253327 0.16,-0.36 0.13332,-0.133327 0.26666,-0.199993 0.4,-0.2 l 3.44,0 c 0.15999,7e-6 0.29332,0.06667 0.4,0.2 0.13332,0.106673 0.19999,0.226673 0.2,0.36 l 0,7.16 c -10e-6,0.266665 0.0533,0.439998 0.16,0.52 0.10665,0.08 0.30665,0.119998 0.6,0.12 l 18.84,0 c 0.1333,-2e-6 0.2533,0.05333 0.36,0.16 0.1333,0.106665 0.19997,0.226664 0.2,0.36 l 0,2.84"
         style="font-size:40px;font-weight:bold;fill:#ffffff;-inkscape-font-specification:News Cycle Bold"
         id="path4277"
         inkscape:connector-curvature="0" />
      <path
         d="m 947.30187,-26.77 c 0.0533,0.186674 0.0133,0.360007 -0.12,0.52 -0.13335,0.160007 -0.32002,0.266673 -0.55999,0.32 -0.98669,0.266673 -2.24003,0.533339 -3.76,0.8 -1.52002,0.240006 -3.10669,0.453339 -4.76001,0.64 -1.65334,0.186672 -3.28001,0.320005 -4.88,0.4 -1.57334,0.05334 -2.92,0.02667 -4.04,-0.08 -1.04,-0.106662 -1.78667,-0.413328 -2.24,-0.92 -0.45333,-0.50666 -0.68,-1.213326 -0.67999,-2.12 l 0,-20.8 c -10e-6,-0.133304 0.0533,-0.253304 0.15999,-0.36 0.13333,-0.133304 0.26667,-0.199971 0.4,-0.2 l 3.44001,0 c 0.15999,2.9e-5 0.29332,0.0667 0.39999,0.2 0.13333,0.106696 0.2,0.226696 0.20001,0.36 l 0,19.28 c -1e-5,0.266676 0.0533,0.440009 0.16,0.52 0.10665,0.05334 0.29332,0.09334 0.55999,0.12 0.95999,0.08001 2.03999,0.106675 3.24,0.08 1.22666,-0.05332 2.47999,-0.146658 3.76,-0.28 1.30665,-0.159991 2.58665,-0.346657 3.84,-0.56 1.27998,-0.23999 2.46665,-0.493323 3.56,-0.76 0.29331,-0.05332 0.49331,10e-6 0.6,0.16 0.13331,0.133343 0.22665,0.28001 0.28001,0.44 l 0.43999,2.24 m 12.4,-6.2 c -3e-5,0.160014 -0.0667,0.293347 -0.19999,0.4 -0.10671,0.10668 -0.22671,0.160013 -0.36,0.16 l -5.44001,0 0,18.96 c -3e-5,0.346661 -0.17336,0.519994 -0.52,0.52 l -3.55999,0 c -0.3467,-6e-6 -0.52003,-0.173339 -0.52001,-0.52 l 0,-36.92 c -2e-5,-0.346635 0.17331,-0.519968 0.52001,-0.52 l 3.55999,0 c 0.34664,3.2e-5 0.51997,0.173365 0.52,0.52 l 0,14.12 5.44001,0 c 0.13329,1.7e-5 0.25329,0.05335 0.36,0.16 0.13329,0.08002 0.19996,0.186683 0.19999,0.32 l 0,2.8"
         style="font-size:40px;font-weight:bold;fill:#ffffff;-inkscape-font-specification:News Cycle Bold"
         id="path4279"
         inkscape:connector-curvature="0" />
    </g>
    <flowRoot
       xml:space="preserve"
       id="flowRoot5199"
       style="fill:black;stroke:none;stroke-opacity:1;stroke-width:1px;stroke-linejoin:miter;stroke-linecap:butt;fill-opacity:1;font-family:News Cycle;font-style:normal;font-weight:500;font-size:12px;line-height:125%;letter-spacing:0px;word-spacing:0px;-inkscape-font-specification:News Cycle Medium;font-stretch:normal;font-variant:normal"><flowRegion
         id="flowRegion5201"><rect
           id="rect5203"
           width="65.38974"
           height="78.46769"
           x="282.48367"
           y="386.12393" /></flowRegion><flowPara
         id="flowPara5205" /></flowRoot>  </g>
</svg>
