<?xml version="1.0" encoding="UTF-8" standalone="no"?>
<!-- Created with Inkscape (http://www.inkscape.org/) -->

<svg
   xmlns:dc="http://purl.org/dc/elements/1.1/"
   xmlns:cc="http://creativecommons.org/ns#"
   xmlns:rdf="http://www.w3.org/1999/02/22-rdf-syntax-ns#"
   xmlns:svg="http://www.w3.org/2000/svg"
   xmlns="http://www.w3.org/2000/svg"
   xmlns:sodipodi="http://sodipodi.sourceforge.net/DTD/sodipodi-0.dtd"
   xmlns:inkscape="http://www.inkscape.org/namespaces/inkscape"
   width="1024"
   height="768"
   id="svg2"
   version="1.1"
   inkscape:version="0.48.4 r9939"
   sodipodi:docname="4.svg"
   enable-background="new">
  <defs
     id="defs4">
    <inkscape:path-effect
       is_visible="true"
       id="path-effect4241"
       effect="spiro" />
    <inkscape:path-effect
       effect="spiro"
       id="path-effect4239"
       is_visible="true" />
    <inkscape:path-effect
       effect="spiro"
       id="path-effect4237"
       is_visible="true" />
    <inkscape:path-effect
       is_visible="true"
       id="path-effect4235"
       effect="spiro" />
    <inkscape:path-effect
       effect="spiro"
       id="path-effect4233"
       is_visible="true" />
    <inkscape:path-effect
       is_visible="true"
       id="path-effect4231"
       effect="spiro" />
    <inkscape:path-effect
       is_visible="true"
       id="path-effect4229"
       effect="spiro" />
    <inkscape:path-effect
       effect="spiro"
       id="path-effect4227"
       is_visible="true" />
    <inkscape:path-effect
       is_visible="true"
       id="path-effect4225"
       effect="spiro" />
    <inkscape:path-effect
       effect="spiro"
       id="path-effect4223"
       is_visible="true" />
    <inkscape:path-effect
       effect="spiro"
       id="path-effect4221"
       is_visible="true" />
    <inkscape:path-effect
       is_visible="true"
       id="path-effect4219"
       effect="spiro" />
    <inkscape:path-effect
       effect="spiro"
       id="path-effect4169"
       is_visible="true" />
    <inkscape:path-effect
       is_visible="true"
       id="path-effect4167"
       effect="spiro" />
    <inkscape:path-effect
       is_visible="true"
       id="path-effect4165"
       effect="spiro" />
    <inkscape:path-effect
       effect="spiro"
       id="path-effect4163"
       is_visible="true" />
    <inkscape:path-effect
       is_visible="true"
       id="path-effect4145"
       effect="spiro" />
    <inkscape:path-effect
       effect="spiro"
       id="path-effect4143"
       is_visible="true" />
    <inkscape:path-effect
       effect="spiro"
       id="path-effect4141"
       is_visible="true" />
    <inkscape:path-effect
       is_visible="true"
       id="path-effect4139"
       effect="spiro" />
    <inkscape:path-effect
       is_visible="true"
       id="path-effect4113"
       effect="spiro" />
    <inkscape:path-effect
       effect="spiro"
       id="path-effect4110"
       is_visible="true" />
    <inkscape:path-effect
       is_visible="true"
       id="path-effect4083"
       effect="spiro" />
    <inkscape:path-effect
       effect="spiro"
       id="path-effect4079"
       is_visible="true" />
    <inkscape:path-effect
       effect="spiro"
       id="path-effect4024"
       is_visible="true" />
    <inkscape:path-effect
       effect="spiro"
       id="path-effect4001"
       is_visible="true" />
    <inkscape:path-effect
       is_visible="true"
       id="path-effect3995"
       effect="spiro" />
    <inkscape:path-effect
       effect="spiro"
       id="path-effect3989"
       is_visible="true" />
    <inkscape:path-effect
       is_visible="true"
       id="path-effect3983"
       effect="spiro" />
    <inkscape:path-effect
       is_visible="true"
       id="path-effect3979"
       effect="spiro" />
    <inkscape:path-effect
       is_visible="true"
       id="path-effect3975"
       effect="spiro" />
    <inkscape:path-effect
       effect="spiro"
       id="path-effect3971"
       is_visible="true" />
    <inkscape:path-effect
       is_visible="true"
       id="path-effect3965"
       effect="spiro" />
    <inkscape:path-effect
       effect="spiro"
       id="path-effect3961"
       is_visible="true" />
    <inkscape:path-effect
       is_visible="true"
       id="path-effect3957"
       effect="spiro" />
    <inkscape:path-effect
       is_visible="true"
       id="path-effect3953"
       effect="spiro" />
    <inkscape:path-effect
       effect="spiro"
       id="path-effect3951"
       is_visible="true" />
    <inkscape:path-effect
       effect="spiro"
       id="path-effect3923"
       is_visible="true" />
    <inkscape:path-effect
       is_visible="true"
       id="path-effect3917"
       effect="spiro" />
    <inkscape:path-effect
       effect="spiro"
       id="path-effect3914"
       is_visible="true" />
    <inkscape:path-effect
       effect="spiro"
       id="path-effect3911"
       is_visible="true" />
    <inkscape:path-effect
       is_visible="true"
       id="path-effect3908"
       effect="spiro" />
    <inkscape:path-effect
       effect="spiro"
       id="path-effect3905"
       is_visible="true" />
    <inkscape:path-effect
       is_visible="true"
       id="path-effect3903"
       effect="spiro" />
    <inkscape:path-effect
       is_visible="true"
       id="path-effect3873"
       effect="spiro" />
    <inkscape:path-effect
       is_visible="true"
       id="path-effect3871"
       effect="spiro" />
    <inkscape:path-effect
       effect="spiro"
       id="path-effect3869"
       is_visible="true" />
    <inkscape:path-effect
       effect="spiro"
       id="path-effect3867"
       is_visible="true" />
    <inkscape:path-effect
       effect="spiro"
       id="path-effect3865"
       is_visible="true" />
    <inkscape:path-effect
       is_visible="true"
       id="path-effect3863"
       effect="spiro" />
    <inkscape:path-effect
       effect="spiro"
       id="path-effect3848"
       is_visible="true" />
    <inkscape:path-effect
       effect="spiro"
       id="path-effect3846"
       is_visible="true" />
    <inkscape:path-effect
       is_visible="true"
       id="path-effect3844"
       effect="spiro" />
    <inkscape:path-effect
       effect="spiro"
       id="path-effect3836"
       is_visible="true" />
    <inkscape:path-effect
       is_visible="true"
       id="path-effect3834"
       effect="spiro" />
    <inkscape:path-effect
       is_visible="true"
       id="path-effect3828"
       effect="spiro" />
    <inkscape:path-effect
       effect="spiro"
       id="path-effect3824"
       is_visible="true" />
    <inkscape:path-effect
       is_visible="true"
       id="path-effect3815"
       effect="spiro" />
    <inkscape:path-effect
       is_visible="true"
       id="path-effect3813"
       effect="spiro" />
    <inkscape:path-effect
       is_visible="true"
       id="path-effect3811"
       effect="spiro" />
    <inkscape:path-effect
       effect="spiro"
       id="path-effect3803"
       is_visible="true" />
    <inkscape:path-effect
       effect="spiro"
       id="path-effect3801"
       is_visible="true" />
    <inkscape:path-effect
       effect="spiro"
       id="path-effect3799"
       is_visible="true" />
    <inkscape:path-effect
       is_visible="true"
       id="path-effect3791"
       effect="spiro" />
    <inkscape:path-effect
       is_visible="true"
       id="path-effect3789"
       effect="spiro" />
    <inkscape:path-effect
       is_visible="true"
       id="path-effect3787"
       effect="spiro" />
    <inkscape:path-effect
       effect="spiro"
       id="path-effect3779"
       is_visible="true" />
    <inkscape:path-effect
       effect="spiro"
       id="path-effect3775"
       is_visible="true" />
    <inkscape:path-effect
       effect="spiro"
       id="path-effect3771"
       is_visible="true" />
    <inkscape:path-effect
       is_visible="true"
       id="path-effect3995-1"
       effect="spiro" />
    <inkscape:path-effect
       effect="spiro"
       id="path-effect3989-2"
       is_visible="true" />
    <inkscape:path-effect
       is_visible="true"
       id="path-effect3983-8"
       effect="spiro" />
    <inkscape:path-effect
       is_visible="true"
       id="path-effect3979-9"
       effect="spiro" />
    <inkscape:path-effect
       effect="spiro"
       id="path-effect3971-7"
       is_visible="true" />
    <inkscape:path-effect
       effect="spiro"
       id="path-effect4024-5"
       is_visible="true" />
    <inkscape:path-effect
       is_visible="true"
       id="path-effect3965-4"
       effect="spiro" />
    <inkscape:path-effect
       effect="spiro"
       id="path-effect3961-1"
       is_visible="true" />
    <inkscape:path-effect
       is_visible="true"
       id="path-effect3957-1"
       effect="spiro" />
    <inkscape:path-effect
       is_visible="true"
       id="path-effect3953-5"
       effect="spiro" />
    <inkscape:path-effect
       effect="spiro"
       id="path-effect3951-9"
       is_visible="true" />
  </defs>
  <sodipodi:namedview
     id="base"
     pagecolor="#ffffff"
     bordercolor="#666666"
     borderopacity="1.0"
     inkscape:pageopacity="0.0"
     inkscape:pageshadow="2"
     inkscape:zoom="0.48322475"
     inkscape:cx="1070.5778"
     inkscape:cy="-26.873017"
     inkscape:document-units="px"
     inkscape:current-layer="layer2"
     showgrid="false"
     width="1024px"
     inkscape:window-width="1438"
     inkscape:window-height="844"
     inkscape:window-x="0"
     inkscape:window-y="27"
     inkscape:window-maximized="0" />
  <metadata
     id="metadata7">
    <rdf:RDF>
      <cc:Work
         rdf:about="">
        <dc:format>image/svg+xml</dc:format>
        <dc:type
           rdf:resource="http://purl.org/dc/dcmitype/StillImage" />
        <dc:title />
      </cc:Work>
    </rdf:RDF>
  </metadata>
  <g
     inkscape:label="Calque 1"
     inkscape:groupmode="layer"
     id="layer1"
     transform="translate(0,-284.36218)"
     style="display:inline"
     sodipodi:insensitive="true">
    <rect
       style="color:#000000;fill:#000000;fill-opacity:1;fill-rule:evenodd;stroke:none;stroke-width:6;marker:none;visibility:visible;display:inline;overflow:visible;enable-background:accumulate"
       id="rect3753"
       width="1024"
       height="768"
       x="0"
       y="284.36218" />
  </g>
  <g
     inkscape:groupmode="layer"
     id="layer2"
     inkscape:label="Calque">
    <rect
       style="color:#000000;fill:none;stroke:none;stroke-width:0.49999997000000002;stroke-miterlimit:4;stroke-opacity:1;stroke-dasharray:none;marker:none;visibility:visible;display:inline;overflow:visible;enable-background:accumulate"
       id="rect2995"
       width="484.34882"
       height="222.95422"
       x="371.59036"
       y="342.59311" />
    <g
       transform="translate(-430.00696,461.63004)"
       style="font-size:12px;font-style:normal;font-variant:normal;font-weight:500;font-stretch:normal;line-height:125%;letter-spacing:0px;word-spacing:0px;fill:#ffffff;fill-opacity:1;stroke:none;font-family:News Cycle;-inkscape-font-specification:News Cycle Medium"
       id="flowRoot4718">
      <path
         d="m 909.72375,-84.65 c -2e-5,-0.213318 -0.04,-0.346651 -0.12,-0.4 -0.0534,-0.07998 -0.18669,-0.119984 -0.4,-0.12 l -11.16,0 c -0.21335,1.6e-5 -0.36001,0.02668 -0.44,0.08 -0.0534,0.05335 -0.08,0.186682 -0.08,0.4 l 0,6.56 c -10e-6,0.240009 0.0267,0.386675 0.08,0.44 0.08,0.05334 0.22665,0.08001 0.44,0.08 l 11.16,0 c 0.21331,8e-6 0.34664,-0.02666 0.4,-0.08 0.08,-0.05333 0.11998,-0.199991 0.12,-0.44 l 0,-6.52 m 4.64,7.88 c -3e-5,1.040006 -0.2267,1.786672 -0.68,2.24 -0.45336,0.453338 -1.18669,0.680005 -2.2,0.68 l -15.52,0 c -1.22668,5e-6 -2.05334,-0.226662 -2.48,-0.68 -0.40001,-0.453328 -0.60001,-1.213327 -0.6,-2.28 l 0,-9.16 c -10e-6,-1.039982 0.22666,-1.786648 0.68,-2.24 0.45332,-0.479981 1.18666,-0.71998 2.2,-0.72 l 15.52,0 c 1.22664,2e-5 2.03997,0.226686 2.44,0.68 0.42664,0.453352 0.63997,1.226684 0.64,2.32 l 0,9.16"
         style="font-size:40px;font-weight:bold;-inkscape-font-specification:News Cycle Bold;fill:#ffffff"
         id="path4258" />
      <path
         d="m 922.12375,-31.875459 c -4e-5,0.160013 -0.0667,0.293347 -0.2,0.4 -0.1067,0.10668 -0.2267,0.160013 -0.36,0.16 l -5.44,0 0,19.04 c -3e-5,0.34666 -0.17336,0.519993 -0.52,0.52 l -3.56,0 c -0.34669,-7e-6 -0.52003,-0.17334 -0.52,-0.52 l 0,-36.92 c -3e-5,-0.346636 0.17331,-0.519969 0.52,-0.52 l 3.56,0 c 0.34664,3.1e-5 0.51997,0.173364 0.52,0.52 l 0,14.04 5.44,0 c 0.1333,1.7e-5 0.2533,0.05335 0.36,0.16 0.1333,0.08002 0.19996,0.186683 0.2,0.32 l 0,2.8 m -15.48,6.12 c -2e-5,1.040006 -0.21335,1.773339 -0.64,2.2 -0.42669,0.400005 -1.14669,0.600005 -2.16,0.6 l -12.56,0 c -1.12001,5e-6 -1.89334,-0.199995 -2.32,-0.6 -0.42667,-0.426661 -0.64,-1.159994 -0.64,-2.2 l 0,-18.32 c 0,-1.013307 0.2,-1.706639 0.6,-2.08 0.42666,-0.399972 1.14666,-0.599972 2.16,-0.6 l 12.76,0 c 1.01331,2.8e-5 1.73331,0.186695 2.16,0.56 0.42665,0.346694 0.63998,1.05336 0.64,2.12 l 0,18.32 m -4.6,-16.72 c -2e-5,-0.213309 -0.04,-0.346642 -0.12,-0.4 -0.0534,-0.07997 -0.18668,-0.119975 -0.4,-0.12 l -8.12,0 c -0.21334,2.5e-5 -0.36001,0.02669 -0.44,0.08 -0.0533,0.05336 -0.08,0.186691 -0.08,0.4 l 0,15.28 c -10e-6,0.240009 0.0267,0.386675 0.08,0.44 0.08,0.05334 0.22666,0.08001 0.44,0.08 l 8.12,0 c 0.21332,8e-6 0.34665,-0.02666 0.4,-0.08 0.08,-0.05332 0.11998,-0.199991 0.12,-0.44 l 0,-15.24"
         style="font-size:40px;font-weight:bold;-inkscape-font-specification:News Cycle Bold;fill:#ffffff"
         id="path4260" />
      <path
         d="m 947.30187,-25.595459 c 0.0533,0.186674 0.0133,0.360007 -0.12,0.52 -0.13335,0.160007 -0.32002,0.266673 -0.55999,0.32 -0.98669,0.266673 -2.24003,0.533339 -3.76,0.8 -1.52002,0.240005 -3.10669,0.453338 -4.76001,0.64 -1.65334,0.186671 -3.28001,0.320005 -4.88,0.4 -1.57334,0.05334 -2.92,0.02667 -4.04,-0.08 -1.04,-0.106662 -1.78667,-0.413328 -2.24,-0.92 -0.45333,-0.506661 -0.68,-1.213327 -0.67999,-2.12 l 0,-20.8 c -10e-6,-0.133305 0.0533,-0.253305 0.15999,-0.36 0.13333,-0.133304 0.26667,-0.199971 0.4,-0.2 l 3.44001,0 c 0.15999,2.9e-5 0.29332,0.0667 0.39999,0.2 0.13333,0.106695 0.2,0.226695 0.20001,0.36 l 0,19.28 c -1e-5,0.266676 0.0533,0.440009 0.16,0.52 0.10665,0.05334 0.29332,0.09334 0.55999,0.12 0.95999,0.08001 2.03999,0.106675 3.24,0.08 1.22666,-0.05333 2.47999,-0.146658 3.76,-0.28 1.30665,-0.159991 2.58665,-0.346658 3.84,-0.56 1.27998,-0.23999 2.46665,-0.493324 3.56,-0.76 0.29331,-0.05332 0.49331,1e-5 0.6,0.16 0.13331,0.133343 0.22665,0.28001 0.28001,0.44 l 0.43999,2.24 m 12.4,-6.2 c -3e-5,0.160013 -0.0667,0.293346 -0.19999,0.4 -0.10671,0.10668 -0.22671,0.160013 -0.36,0.16 l -5.44001,0 0,18.96 c -3e-5,0.34666 -0.17336,0.519993 -0.52,0.52 l -3.55999,0 c -0.3467,-7e-6 -0.52003,-0.17334 -0.52001,-0.52 l 0,-36.92 c -2e-5,-0.346636 0.17331,-0.519969 0.52001,-0.52 l 3.55999,0 c 0.34664,3.1e-5 0.51997,0.173364 0.52,0.52 l 0,14.12 5.44001,0 c 0.13329,1.7e-5 0.25329,0.05335 0.36,0.16 0.13329,0.08002 0.19996,0.186683 0.19999,0.32 l 0,2.8"
         style="font-size:40px;font-weight:bold;-inkscape-font-specification:News Cycle Bold;fill:#ffffff"
         id="path4262" />
      <path
         d="m 997.28,-31.875459 c -4e-5,0.160013 -0.0667,0.293347 -0.2,0.4 -0.1067,0.10668 -0.2267,0.160013 -0.36,0.16 l -5.44,0 0,19.04 c -3e-5,0.34666 -0.17336,0.519993 -0.52,0.52 l -3.56,0 c -0.34669,-7e-6 -0.52003,-0.17334 -0.52,-0.52 l 0,-36.92 c -3e-5,-0.346636 0.17331,-0.519969 0.52,-0.52 l 3.56,0 c 0.34664,3.1e-5 0.51997,0.173364 0.52,0.52 l 0,14.04 5.44,0 c 0.1333,1.7e-5 0.2533,0.05335 0.36,0.16 0.1333,0.08002 0.19996,0.186683 0.2,0.32 l 0,2.8 m -15.48,6.12 c -2e-5,1.040006 -0.21335,1.773339 -0.64,2.2 -0.42669,0.400005 -1.14669,0.600005 -2.16,0.6 l -12.56,0 c -1.12001,5e-6 -1.89334,-0.199995 -2.32,-0.6 -0.42667,-0.426661 -0.64,-1.159994 -0.64,-2.2 l 0,-18.32 c 0,-1.013307 0.2,-1.706639 0.6,-2.08 0.42666,-0.399972 1.14666,-0.599972 2.16,-0.6 l 12.76,0 c 1.01331,2.8e-5 1.73331,0.186695 2.16,0.56 0.42665,0.346694 0.63998,1.05336 0.64,2.12 l 0,18.32 m -4.6,-16.72 c -2e-5,-0.213309 -0.04,-0.346642 -0.12,-0.4 -0.0534,-0.07997 -0.18668,-0.119975 -0.4,-0.12 l -8.12,0 c -0.21334,2.5e-5 -0.36001,0.02669 -0.44,0.08 -0.0533,0.05336 -0.08,0.186691 -0.08,0.4 l 0,15.28 c -10e-6,0.240009 0.0267,0.386675 0.08,0.44 0.08,0.05334 0.22666,0.08001 0.44,0.08 l 8.12,0 c 0.21332,8e-6 0.34665,-0.02666 0.4,-0.08 0.08,-0.05332 0.11998,-0.199991 0.12,-0.44 l 0,-15.24"
         style="font-size:40px;font-weight:bold;-inkscape-font-specification:News Cycle Bold;fill:#ffffff"
         id="path4264" />
      <path
         d="m 907.12375,12.739082 c -2e-5,1.333353 -0.24002,2.586685 -0.72,3.76 -0.48002,1.173349 -1.16002,2.200015 -2.04,3.08 -0.85335,0.853346 -1.88002,1.533345 -3.08,2.04 -1.20002,0.480011 -2.52001,0.720011 -3.96,0.72 -1.44001,1.1e-5 -2.74668,-0.239989 -3.92,-0.72 -1.17334,-0.506655 -2.18667,-1.186654 -3.04,-2.04 -0.82667,-0.879985 -1.48,-1.906651 -1.96,-3.08 -0.45334,-1.173315 -0.68,-2.426647 -0.68,-3.76 0,-1.279978 0.22666,-2.49331 0.68,-3.6399998 0.48,-1.1733082 1.13333,-2.1999738 1.96,-3.08 0.85333,-0.8799721 1.86666,-1.5733047 3.04,-2.08 1.17332,-0.5333037 2.47999,-0.7999701 3.92,-0.8 1.43999,2.99e-5 2.75998,0.2666963 3.96,0.8 1.19998,0.5066953 2.22665,1.2000279 3.08,2.08 0.87998,0.8800262 1.55998,1.9066918 2.04,3.08 0.47998,1.1466898 0.71998,2.3600218 0.72,3.6399998 m -4.56,0.08 c -2e-5,-0.773312 -0.13335,-1.493311 -0.4,-2.16 -0.24002,-0.69331 -0.60002,-1.2799761 -1.08,-1.7599998 -0.45335,-0.506642 -1.00002,-0.9066416 -1.64,-1.2 -0.64001,-0.2933077 -1.34668,-0.4399742 -2.12,-0.44 -0.77335,2.58e-5 -1.48001,0.1466923 -2.12,0.44 -0.61334,0.2933584 -1.14668,0.693358 -1.6,1.2 -0.45334,0.4800237 -0.81334,1.0666898 -1.08,1.7599998 -0.24001,0.666689 -0.36001,1.386688 -0.36,2.16 -1e-5,0.80002 0.11999,1.546686 0.36,2.24 0.26666,0.693351 0.62666,1.29335 1.08,1.8 0.45332,0.480016 0.98666,0.866682 1.6,1.16 0.63999,0.293348 1.34665,0.440015 2.12,0.44 0.77332,1.5e-5 1.47999,-0.146652 2.12,-0.44 0.63998,-0.293318 1.18665,-0.679984 1.64,-1.16 0.47998,-0.50665 0.83998,-1.106649 1.08,-1.8 0.26665,-0.693314 0.39998,-1.43998 0.4,-2.24 m 19.56,3.96 c -4e-5,0.13335 -0.0667,0.25335 -0.2,0.36 -0.1067,0.106683 -0.2267,0.160016 -0.36,0.16 l -5.44,0 0,10.6 c -3e-5,0.346672 -0.17336,0.520005 -0.52,0.52 l -3.56,0 c -0.34669,5e-6 -0.52003,-0.173328 -0.52,-0.52 l 0,-25.9199998 c -3e-5,-0.3466352 0.17331,-0.5199684 0.52,-0.52 l 3.56,0 c 0.34664,3.16e-5 0.51997,0.1733648 0.52,0.52 l 0,11.4799998 5.44,0 c 0.1333,2e-5 0.2533,0.05335 0.36,0.16 0.1333,0.08002 0.19996,0.186686 0.2,0.32 l 0,2.84 m -4.44,21.48 c -3e-5,0.159995 -0.0667,0.279995 -0.2,0.36 -0.1067,0.08 -0.2267,0.119995 -0.36,0.12 l -21.12,0 c -1.22668,-5e-6 -2.05334,-0.213339 -2.48,-0.64 -0.40001,-0.426671 -0.60001,-1.160004 -0.6,-2.2 l 0,-8.8 c -1e-5,-0.133327 0.0533,-0.253327 0.16,-0.36 0.13332,-0.133327 0.26666,-0.199993 0.4,-0.2 l 3.44,0 c 0.15999,7e-6 0.29332,0.06667 0.4,0.2 0.13332,0.106673 0.19999,0.226673 0.2,0.36 l 0,7.16 c -10e-6,0.266665 0.0533,0.439999 0.16,0.52 0.10665,0.08 0.30665,0.119998 0.6,0.12 l 18.84,0 c 0.1333,-2e-6 0.2533,0.05333 0.36,0.16 0.1333,0.106665 0.19997,0.226665 0.2,0.36 l 0,2.84"
         style="font-size:40px;font-weight:bold;-inkscape-font-specification:News Cycle Bold;fill:#ffffff"
         id="path4266" />
      <path
         d="m 959.70187,14.299082 c -3e-5,0.133352 -0.0667,0.253352 -0.19999,0.36 -0.10671,0.106685 -0.22671,0.160018 -0.36,0.16 l -5.44001,0 0,7.36 c -3e-5,0.346677 -0.17336,0.520011 -0.52,0.52 l -3.55999,0 c -0.3467,1.1e-5 -0.52003,-0.186656 -0.52001,-0.56 l 0,-20.1599998 c -2e-5,-0.3466352 0.17331,-0.5199684 0.52001,-0.52 l 3.55999,0 c 0.34664,3.16e-5 0.51997,0.1733648 0.52,0.52 l 0,9.0399998 5.44001,0 c 0.13329,2.2e-5 0.25329,0.05336 0.36,0.16 0.13329,0.08002 0.19996,0.186689 0.19999,0.32 l 0,2.8 m -10.52,14.6 c -2e-5,-0.213329 -0.04,-0.346662 -0.12,-0.4 -0.0534,-0.08 -0.18669,-0.119995 -0.4,-0.12 l -13.36,0 c -0.21334,5e-6 -0.36001,0.02667 -0.43999,0.08 -0.0534,0.05334 -0.08,0.186671 -0.08,0.4 l 0,5.76 c -2e-5,0.239998 0.0267,0.386665 0.08,0.44 0.08,0.05333 0.22665,0.08 0.43999,0.08 l 13.36,0 c 0.21331,-2e-6 0.34665,-0.02667 0.4,-0.08 0.08,-0.05333 0.11998,-0.200002 0.12,-0.44 l 0,-5.72 m 4.56001,7.12 c -4e-5,1.01333 -0.2267,1.733329 -0.68001,2.16 -0.42669,0.426661 -1.14669,0.639994 -2.15999,0.64 l -17.64,0 c -1.20001,-6e-6 -2.01335,-0.213339 -2.44001,-0.64 -0.4,-0.426671 -0.6,-1.160004 -0.6,-2.2 l 0,-8.4 c 0,-1.013327 0.21333,-1.746659 0.64001,-2.2 0.45332,-0.453325 1.18665,-0.679991 2.19999,-0.68 l 17.64,0 c 1.19998,9e-6 1.99997,0.226675 2.4,0.68 0.42664,0.426674 0.63997,1.17334 0.64001,2.24 l 0,8.4 m -6.52001,-17.76 c 0.0267,0.160015 -0.0133,0.293348 -0.12,0.4 -0.08,0.08001 -0.18669,0.133348 -0.31999,0.16 -1.20003,0.320014 -2.56003,0.586681 -4.08001,0.8 -1.52001,0.213347 -3.06668,0.38668 -4.64,0.52 -1.54668,0.133346 -3.06667,0.22668 -4.55999,0.28 -1.49335,0.02668 -2.82668,0.01335 -4,-0.04 -1.14668,-0.05332 -1.92001,-0.306653 -2.32001,-0.76 -0.37333,-0.479986 -0.56,-1.186652 -0.55999,-2.12 l 0,-14.1199998 c -1e-5,-0.1333035 0.0533,-0.2533034 0.16,-0.36 0.13332,-0.1333032 0.26666,-0.1999698 0.39999,-0.2 l 3.44001,0 c 0.15999,3.02e-5 0.29332,0.066697 0.4,0.2 0.13332,0.1066966 0.19999,0.2266965 0.19999,0.36 l 0,12.4799998 c 0,0.266684 0.0533,0.440017 0.16001,0.52 0.10665,0.05335 0.30665,0.09335 0.59999,0.12 0.85333,0.05335 1.83999,0.06668 2.96,0.04 1.11999,-0.02665 2.29332,-0.07998 3.52,-0.16 1.25332,-0.10665 2.51999,-0.239983 3.80001,-0.4 1.30664,-0.186649 2.58664,-0.413316 3.83999,-0.68 0.13331,-0.02665 0.27998,1.8e-5 0.44,0.08 0.15998,0.05335 0.25331,0.146684 0.28,0.28 l 0.4,2.6"
         style="font-size:40px;font-weight:bold;-inkscape-font-specification:News Cycle Bold;fill:#ffffff"
         id="path4268" />
      <path
         d="m 911.60375,79.099083 c -3e-5,-0.213329 -0.04,-0.346662 -0.12,-0.4 -0.0534,-0.08 -0.18669,-0.119996 -0.4,-0.12 l -13.36,0 c -0.21335,4e-6 -0.36001,0.02667 -0.44,0.08 -0.0534,0.05334 -0.08,0.186671 -0.08,0.4 l 0,5.56 c -10e-6,0.239998 0.0267,0.386665 0.08,0.44 0.08,0.05333 0.22665,0.08 0.44,0.08 l 13.36,0 c 0.21331,-2e-6 0.34664,-0.02667 0.4,-0.08 0.08,-0.05334 0.11997,-0.200002 0.12,-0.44 l 0,-5.52 m 4.6,6.92 c -3e-5,1.013329 -0.2267,1.733329 -0.68,2.16 -0.45336,0.426661 -1.1867,0.639994 -2.2,0.64 l -17.64,0 c -1.20001,-6e-6 -2.01334,-0.213339 -2.44,-0.64 -0.40001,-0.426671 -0.60001,-1.160004 -0.6,-2.2 l 0,-8.2 c -10e-6,-1.013327 0.21333,-1.74666 0.64,-2.2 0.45332,-0.453325 1.18666,-0.679992 2.2,-0.68 l 17.64,0 c 1.19997,8e-6 2.0133,0.226675 2.44,0.68 0.42664,0.426674 0.63997,1.17334 0.64,2.24 l 0,8.2 m 5.92,-21.72 c -4e-5,0.133352 -0.0667,0.253352 -0.2,0.36 -0.1067,0.106685 -0.2267,0.160018 -0.36,0.16 l -5.44,0 0,7.56 c -3e-5,0.346677 -0.17336,0.52001 -0.52,0.52 l -3.56,0 c -0.34669,10e-6 -0.52003,-0.186656 -0.52,-0.56 l 0,-20.36 c -3e-5,-0.346635 0.17331,-0.519968 0.52,-0.52 l 3.56,0 c 0.34664,3.2e-5 0.51997,0.173365 0.52,0.52 l 0,9.04 5.44,0 c 0.1333,2.2e-5 0.2533,0.05335 0.36,0.16 0.1333,0.08002 0.19996,0.186688 0.2,0.32 l 0,2.8 m -15,-2.24 c -2e-5,1.333353 -0.24002,2.573352 -0.72,3.72 -0.48002,1.120016 -1.16002,2.093349 -2.04,2.92 -0.85335,0.82668 -1.88002,1.46668 -3.08,1.92 -1.20002,0.453345 -2.52001,0.680012 -3.96,0.68 -1.44001,1.2e-5 -2.74668,-0.226655 -3.92,-0.68 -1.17334,-0.45332 -2.18667,-1.09332 -3.04,-1.92 -0.82667,-0.826651 -1.48,-1.799984 -1.96,-2.92 -0.45334,-1.146648 -0.68,-2.386647 -0.68,-3.72 0,-1.279978 0.22666,-2.479977 0.68,-3.6 0.48,-1.119974 1.13333,-2.093307 1.96,-2.92 0.85333,-0.853305 1.86666,-1.519971 3.04,-2 1.17332,-0.47997 2.47999,-0.71997 3.92,-0.72 1.43999,3e-5 2.75998,0.24003 3.96,0.72 1.19998,0.480029 2.22665,1.146695 3.08,2 0.87998,0.826693 1.55998,1.800026 2.04,2.92 0.47998,1.120023 0.71998,2.320022 0.72,3.6 m -4.56,0.08 c -2e-5,-1.573311 -0.48002,-2.826643 -1.44,-3.76 -0.96002,-0.959974 -2.22668,-1.439974 -3.8,-1.44 -1.52001,2.6e-5 -2.76001,0.480026 -3.72,1.44 -0.96001,0.933357 -1.44001,2.186689 -1.44,3.76 -1e-5,1.600019 0.47999,2.880018 1.44,3.84 0.95999,0.960016 2.19999,1.440016 3.72,1.44 1.57332,1.6e-5 2.83998,-0.479984 3.8,-1.44 0.95998,-0.959982 1.43998,-2.239981 1.44,-3.84"
         style="font-size:40px;font-weight:bold;-inkscape-font-specification:News Cycle Bold;fill:#ffffff"
         id="path4270" />
      <path
         d="m 943.82187,69.379083 c -2e-5,1.013346 -0.21335,1.720012 -0.64,2.12 -0.40002,0.400011 -1.10668,0.600011 -2.12,0.6 l -12,0 c -0.93333,1.1e-5 -1.62667,-0.199989 -2.08,-0.6 -0.45333,-0.399988 -0.68,-1.106654 -0.68,-2.12 l 0,-13.2 c 0,-1.013305 0.2,-1.706638 0.60001,-2.08 0.42666,-0.399971 1.14666,-0.59997 2.15999,-0.6 l 12,0 c 1.01332,3e-5 1.71998,0.200029 2.12,0.6 0.42665,0.400029 0.63998,1.106695 0.64,2.12 l 0,13.16 m -4.55999,-11.6 c -2e-5,-0.213308 -0.04,-0.346641 -0.12,-0.4 -0.0534,-0.07997 -0.18669,-0.119974 -0.4,-0.12 l -7.36,0 c -0.21335,2.6e-5 -0.36001,0.02669 -0.44001,0.08 -0.0533,0.05336 -0.08,0.186692 -0.08,0.4 l 0,10.08 c -1e-5,0.240015 0.0266,0.386682 0.08,0.44 0.08,0.05335 0.22666,0.08002 0.44001,0.08 l 7.36,0 c 0.21331,1.5e-5 0.34664,-0.02665 0.4,-0.08 0.08,-0.05332 0.11998,-0.199985 0.12,-0.44 l 0,-10.04 m 16,30.48 c -4e-5,0.159995 -0.0667,0.279995 -0.20001,0.36 -0.10669,0.07999 -0.22669,0.119994 -0.36,0.12 l -21.16,0 c -1.2,-6e-6 -2.01334,-0.213339 -2.44,-0.64 -0.4,-0.426671 -0.6,-1.160004 -0.59999,-2.2 l 0,-8.8 c -10e-6,-0.133327 0.0533,-0.253327 0.15999,-0.36 0.13333,-0.133327 0.26666,-0.199993 0.4,-0.2 l 3.44001,0 c 0.15998,7e-6 0.29332,0.06667 0.4,0.2 0.13332,0.106673 0.19998,0.226673 0.19999,0.36 l 0,7.16 c -10e-6,0.266665 0.0533,0.439998 0.16001,0.52 0.10665,0.08 0.29332,0.119998 0.55999,0.12 l 18.88,0 c 0.13331,-2e-6 0.25331,0.05333 0.36,0.16 0.13331,0.106665 0.19997,0.226664 0.20001,0.36 l 0,2.84 m 4.43999,-21.44 c -3e-5,0.133349 -0.0667,0.253349 -0.19999,0.36 -0.10671,0.106682 -0.22671,0.160016 -0.36,0.16 l -5.44001,0 0,10.56 c -3e-5,0.346671 -0.17336,0.520005 -0.52,0.52 l -3.55999,0 c -0.3467,5e-6 -0.52003,-0.173329 -0.52001,-0.52 l 0,-25.92 c -2e-5,-0.346635 0.17331,-0.519968 0.52001,-0.52 l 3.55999,0 c 0.34664,3.2e-5 0.51997,0.173365 0.52,0.52 l 0,11.52 5.44001,0 c 0.13329,2e-5 0.25329,0.05335 0.36,0.16 0.13329,0.08002 0.19996,0.186686 0.19999,0.32 l 0,2.84"
         style="font-size:40px;font-weight:bold;-inkscape-font-specification:News Cycle Bold;fill:#ffffff"
         id="path4272" />
    </g>
    <flowRoot
       xml:space="preserve"
       id="flowRoot5199"
       style="fill:black;stroke:none;stroke-opacity:1;stroke-width:1px;stroke-linejoin:miter;stroke-linecap:butt;fill-opacity:1;font-family:News Cycle;font-style:normal;font-weight:500;font-size:12px;line-height:125%;letter-spacing:0px;word-spacing:0px;-inkscape-font-specification:News Cycle Medium;font-stretch:normal;font-variant:normal"><flowRegion
         id="flowRegion5201"><rect
           id="rect5203"
           width="65.38974"
           height="78.46769"
           x="282.48367"
           y="386.12393" /></flowRegion><flowPara
         id="flowPara5205" /></flowRoot>    <g
       transform="translate(-239.61936,461.63004)"
       style="font-size:12px;font-style:normal;font-variant:normal;font-weight:500;font-stretch:normal;line-height:125%;letter-spacing:0px;word-spacing:0px;fill:#ffffff;fill-opacity:1;stroke:none;font-family:News Cycle;-inkscape-font-specification:News Cycle Medium"
       id="flowRoot5464">
      <path
         d="m 905.96375,-63.09 c -2e-5,0.34666 -0.17335,0.519993 -0.52,0.52 l -3.64,0 c -0.34668,-7e-6 -0.52002,-0.17334 -0.52,-0.52 l 0,-37.64 c -2e-5,-0.34663 0.17332,-0.51997 0.52,-0.52 l 3.64,0 c 0.34665,3e-5 0.51998,0.17337 0.52,0.52 l 0,37.64"
         style="font-size:40px;font-weight:bold;-inkscape-font-specification:News Cycle Bold;fill:#ffffff"
         id="path4245" />
      <path
         d="m 909.72375,-25.595459 c 0.0533,0.186674 0.0133,0.360007 -0.12,0.52 -0.13336,0.160007 -0.32002,0.266673 -0.56,0.32 -0.98669,0.266673 -2.24002,0.533339 -3.76,0.8 -1.52002,0.240005 -3.10668,0.453338 -4.76,0.64 -1.65335,0.186671 -3.28001,0.320005 -4.88,0.4 -1.57334,0.05334 -2.92001,0.02667 -4.04,-0.08 -1.04001,-0.106662 -1.78667,-0.413328 -2.24,-0.92 -0.45334,-0.506661 -0.68,-1.213327 -0.68,-2.12 l 0,-20.8 c 0,-0.133305 0.0533,-0.253305 0.16,-0.36 0.13333,-0.133304 0.26666,-0.199971 0.4,-0.2 l 3.44,0 c 0.15999,2.9e-5 0.29333,0.0667 0.4,0.2 0.13332,0.106695 0.19999,0.226695 0.2,0.36 l 0,19.28 c -1e-5,0.266676 0.0533,0.440009 0.16,0.52 0.10666,0.05334 0.29332,0.09334 0.56,0.12 0.95999,0.08001 2.03999,0.106675 3.24,0.08 1.22665,-0.05333 2.47999,-0.146658 3.76,-0.28 1.30665,-0.159991 2.58665,-0.346658 3.84,-0.56 1.27998,-0.23999 2.46664,-0.493324 3.56,-0.76 0.29331,-0.05332 0.49331,1e-5 0.6,0.16 0.13331,0.133343 0.22664,0.28001 0.28,0.44 l 0.44,2.24 m 12.4,-6.2 c -4e-5,0.160013 -0.0667,0.293346 -0.2,0.4 -0.1067,0.10668 -0.2267,0.160013 -0.36,0.16 l -5.44,0 0,18.96 c -3e-5,0.34666 -0.17336,0.519993 -0.52,0.52 l -3.56,0 c -0.34669,-7e-6 -0.52003,-0.17334 -0.52,-0.52 l 0,-36.92 c -3e-5,-0.346636 0.17331,-0.519969 0.52,-0.52 l 3.56,0 c 0.34664,3.1e-5 0.51997,0.173364 0.52,0.52 l 0,14.12 5.44,0 c 0.1333,1.7e-5 0.2533,0.05335 0.36,0.16 0.1333,0.08002 0.19996,0.186683 0.2,0.32 l 0,2.8"
         style="font-size:40px;font-weight:bold;-inkscape-font-specification:News Cycle Bold;fill:#ffffff"
         id="path4247" />
      <path
         d="m 955.38188,-12.275459 c -4e-5,0.34666 -0.17337,0.519993 -0.52,0.52 l -3.56001,0 c -0.34669,-7e-6 -0.52002,-0.17334 -0.51999,-0.52 l 0,-36.92 c -3e-5,-0.346636 0.1733,-0.519969 0.51999,-0.52 l 3.56001,0 c 0.34663,3.1e-5 0.51996,0.173364 0.52,0.52 l 0,36.92 m -10.68001,-13.48 c -2e-5,1.040006 -0.21335,1.773339 -0.64,2.2 -0.42668,0.400005 -1.13335,0.600005 -2.12,0.6 l -12.6,0 c -1.12,5e-6 -1.89333,-0.199995 -2.31999,-0.6 -0.42668,-0.426661 -0.64001,-1.159994 -0.64,-2.2 l 0,-18.32 c -10e-6,-1.013307 0.19999,-1.706639 0.59999,-2.08 0.42667,-0.399972 1.14667,-0.599972 2.16001,-0.6 l 12.79999,0 c 0.98665,2.8e-5 1.69332,0.186695 2.12,0.56 0.42665,0.346694 0.63998,1.05336 0.64,2.12 l 0,18.32 m -4.55999,-16.72 c -2e-5,-0.213309 -0.04,-0.346642 -0.12,-0.4 -0.08,-0.07997 -0.22669,-0.119975 -0.44001,-0.12 l -8.12,0 c -0.21334,2.5e-5 -0.36,0.02669 -0.43999,0.08 -0.0534,0.05336 -0.08,0.186691 -0.08,0.4 l 0,15.28 c 0,0.240009 0.0267,0.386675 0.08,0.44 0.08,0.05334 0.22665,0.08001 0.43999,0.08 l 8.12,0 c 0.23999,8e-6 0.38665,-0.02666 0.44001,-0.08 0.08,-0.05332 0.11998,-0.199991 0.12,-0.44 l 0,-15.24"
         style="font-size:40px;font-weight:bold;-inkscape-font-specification:News Cycle Bold;fill:#ffffff"
         id="path4249" />
      <path
         d="m 992.96,-12.275459 c -3e-5,0.34666 -0.17337,0.519993 -0.52,0.52 l -3.56,0 c -0.3467,-7e-6 -0.52003,-0.17334 -0.52,-0.52 l 0,-36.92 c -3e-5,-0.346636 0.1733,-0.519969 0.52,-0.52 l 3.56,0 c 0.34663,3.1e-5 0.51997,0.173364 0.52,0.52 l 0,36.92 m -15.6,-22.4 -8.84,0 0,7.48 c -10e-6,0.453342 0.23999,0.680008 0.72,0.68 l 7.4,0 c 0.47998,8e-6 0.71998,-0.226658 0.72,-0.68 l 0,-7.48 m 4.64,9.24 c -2e-5,0.880006 -0.22669,1.546672 -0.68,2 -0.42669,0.453338 -1.21335,0.680004 -2.36,0.68 l -12,0 c -1.17334,4e-6 -1.97334,-0.199995 -2.4,-0.6 -0.42667,-0.399995 -0.64,-1.133327 -0.64,-2.2 l 0,-21.6 c 0,-0.133304 0.0533,-0.239971 0.16,-0.32 0.10666,-0.106637 0.22666,-0.159971 0.36,-0.16 l 3.52,0 c 0.13333,2.9e-5 0.25333,0.05336 0.36,0.16 0.13332,0.08003 0.19999,0.186696 0.2,0.32 l 0,8.76 8.84,0 0,-8.8 c -2e-5,-0.133304 0.0533,-0.253304 0.16,-0.36 0.13332,-0.106637 0.26665,-0.159971 0.4,-0.16 l 3.52,0 c 0.13331,2.9e-5 0.25331,0.05336 0.36,0.16 0.13331,0.106696 0.19998,0.226696 0.2,0.36 l 0,21.76"
         style="font-size:40px;font-weight:bold;-inkscape-font-specification:News Cycle Bold;fill:#ffffff"
         id="path4251" />
      <path
         d="m 1034.8581,-31.795459 c 0,0.160013 -0.067,0.293346 -0.2,0.4 -0.1067,0.10668 -0.2267,0.160013 -0.36,0.16 l -5.4,0 0,18.96 c 0,0.159994 -0.067,0.279994 -0.2,0.36 -0.1067,0.10666 -0.2267,0.159993 -0.36,0.16 l -3.52,0 c -0.3733,-7e-6 -0.56,-0.17334 -0.56,-0.52 l 0,-36.92 c 0,-0.346636 0.1867,-0.519969 0.56,-0.52 l 3.52,0 c 0.1333,3.1e-5 0.2533,0.05336 0.36,0.16 0.1333,0.106698 0.2,0.226698 0.2,0.36 l 0,14.12 5.4,0 c 0.1333,1.7e-5 0.2533,0.05335 0.36,0.16 0.1333,0.08002 0.2,0.186683 0.2,0.32 l 0,2.8 m -19.48,-2.44 c 0,-1.22665 -0.12,-2.386648 -0.36,-3.48 -0.24,-1.093313 -0.5867,-2.039979 -1.04,-2.84 -0.4533,-0.826644 -1.0133,-1.479976 -1.68,-1.96 -0.6667,-0.479975 -1.4267,-0.719975 -2.28,-0.72 -0.8267,2.5e-5 -1.5733,0.240025 -2.24,0.72 -0.64,0.480024 -1.1867,1.133356 -1.64,1.96 -0.4533,0.800021 -0.8,1.746687 -1.04,2.84 -0.24,1.093352 -0.36,2.25335 -0.36,3.48 0,1.200015 0.12,2.34668 0.36,3.44 0.24,1.093345 0.5867,2.053344 1.04,2.88 0.4533,0.826675 1,1.493341 1.64,2 0.6667,0.480007 1.4133,0.720007 2.24,0.72 0.8533,7e-6 1.6133,-0.239993 2.28,-0.72 0.6667,-0.506659 1.2267,-1.173325 1.68,-2 0.4533,-0.826656 0.8,-1.786655 1.04,-2.88 0.24,-1.09332 0.36,-2.239985 0.36,-3.44 m -5.36,13.12 c -1.52,3e-6 -2.8933,-0.306664 -4.12,-0.92 -1.2266,-0.639996 -2.2666,-1.533328 -3.12,-2.68 -0.8266,-1.146659 -1.4666,-2.519991 -1.92,-4.12 -0.4533,-1.599988 -0.68,-3.37332 -0.68,-5.32 0,-1.999982 0.2267,-3.813314 0.68,-5.44 0.4534,-1.626644 1.0934,-2.999976 1.92,-4.12 0.8534,-1.14664 1.8934,-2.026639 3.12,-2.64 1.2267,-0.639971 2.6,-0.959971 4.12,-0.96 1.5467,2.9e-5 2.92,0.306695 4.12,0.92 1.2267,0.613361 2.2667,1.49336 3.12,2.64 0.8533,1.120024 1.5067,2.493356 1.96,4.12 0.4533,1.60002 0.68,3.400018 0.68,5.4 0,2.000014 -0.2267,3.813345 -0.68,5.44 -0.4533,1.600009 -1.1067,2.973341 -1.96,4.12 -0.8533,1.146672 -1.8933,2.026671 -3.12,2.64 -1.2,0.613336 -2.5733,0.920003 -4.12,0.92"
         style="font-size:40px;font-weight:bold;-inkscape-font-specification:News Cycle Bold;fill:#ffffff"
         id="path4253" />
      <path
         d="m 918.64375,38.259082 c -3e-5,0.159995 -0.0667,0.279995 -0.2,0.36 -0.1067,0.08 -0.2267,0.119995 -0.36,0.12 l -20.92,0 c -1.20001,-5e-6 -2.01334,-0.213339 -2.44,-0.64 -0.42668,-0.426671 -0.64001,-1.160004 -0.64,-2.2 l 0,-8.72 c -10e-6,-0.133327 0.0533,-0.253327 0.16,-0.36 0.13332,-0.133327 0.27999,-0.199993 0.44,-0.2 l 3.44,0 c 0.15999,7e-6 0.30665,0.06667 0.44,0.2 0.13332,0.106673 0.19999,0.226673 0.2,0.36 l 0,7.08 c -10e-6,0.266665 0.0533,0.439999 0.16,0.52 0.10665,0.08 0.29332,0.119998 0.56,0.12 l 18.6,0 c 0.1333,-2e-6 0.2533,0.05333 0.36,0.16 0.1333,0.106665 0.19997,0.226665 0.2,0.36 l 0,2.84 m -1.2,-10.32 c -3e-5,0.346672 -0.1867,0.520005 -0.56,0.52 l -3.52,0 c -0.13336,5e-6 -0.26669,-0.05333 -0.4,-0.16 -0.10669,-0.106662 -0.16003,-0.239995 -0.16,-0.4 l 0,-25.9199998 c -3e-5,-0.1333021 0.0533,-0.253302 0.16,-0.36 0.13331,-0.1066351 0.26664,-0.1599684 0.4,-0.16 l 3.52,0 c 0.3733,3.16e-5 0.55997,0.1733648 0.56,0.52 l 0,25.9599998 m -15.36,-14.48 -8.68,0 0,4.6 c -10e-6,0.453348 0.23999,0.680015 0.72,0.68 l 7.24,0 c 0.47998,1.5e-5 0.71998,-0.226652 0.72,-0.68 l 0,-4.6 m 4.56,6.36 c -2e-5,0.906679 -0.21335,1.586679 -0.64,2.04 -0.42669,0.426678 -1.21335,0.640011 -2.36,0.64 l -11.76,0 c -1.17334,1.1e-5 -1.97334,-0.199989 -2.4,-0.6 -0.42667,-0.399988 -0.64,-1.133321 -0.64,-2.2 l 0,-16.0799998 c 0,-0.1333038 0.0533,-0.2399703 0.16,-0.32 0.10666,-0.1066368 0.22666,-0.1599701 0.36,-0.16 l 3.48,0 c 0.13333,2.99e-5 0.25333,0.053363 0.36,0.16 0.13332,0.08003 0.19999,0.1866962 0.2,0.32 l 0,6.12 8.68,0 0,-6.16 c -2e-5,-0.1333037 0.0533,-0.2533036 0.16,-0.36 0.10665,-0.1066367 0.22665,-0.15997 0.36,-0.16 l 3.52,0 c 0.13331,3e-5 0.25331,0.053363 0.36,0.16 0.10664,0.1066964 0.15998,0.2266963 0.16,0.36 l 0,16.2399998"
         style="font-size:40px;font-weight:bold;-inkscape-font-specification:News Cycle Bold;fill:#ffffff"
         id="path4255" />
    </g>
  </g>
</svg>
