<?xml version="1.0" encoding="UTF-8" standalone="no"?>
<!-- Created with Inkscape (http://www.inkscape.org/) -->

<svg
   xmlns:dc="http://purl.org/dc/elements/1.1/"
   xmlns:cc="http://creativecommons.org/ns#"
   xmlns:rdf="http://www.w3.org/1999/02/22-rdf-syntax-ns#"
   xmlns:svg="http://www.w3.org/2000/svg"
   xmlns="http://www.w3.org/2000/svg"
   xmlns:sodipodi="http://sodipodi.sourceforge.net/DTD/sodipodi-0.dtd"
   xmlns:inkscape="http://www.inkscape.org/namespaces/inkscape"
   width="1024"
   height="768"
   id="svg2"
   version="1.1"
   inkscape:version="0.48.4 r9939"
   sodipodi:docname="5.svg"
   enable-background="new">
  <defs
     id="defs4">
    <inkscape:path-effect
       is_visible="true"
       id="path-effect4241"
       effect="spiro" />
    <inkscape:path-effect
       effect="spiro"
       id="path-effect4239"
       is_visible="true" />
    <inkscape:path-effect
       effect="spiro"
       id="path-effect4237"
       is_visible="true" />
    <inkscape:path-effect
       is_visible="true"
       id="path-effect4235"
       effect="spiro" />
    <inkscape:path-effect
       effect="spiro"
       id="path-effect4233"
       is_visible="true" />
    <inkscape:path-effect
       is_visible="true"
       id="path-effect4231"
       effect="spiro" />
    <inkscape:path-effect
       is_visible="true"
       id="path-effect4229"
       effect="spiro" />
    <inkscape:path-effect
       effect="spiro"
       id="path-effect4227"
       is_visible="true" />
    <inkscape:path-effect
       is_visible="true"
       id="path-effect4225"
       effect="spiro" />
    <inkscape:path-effect
       effect="spiro"
       id="path-effect4223"
       is_visible="true" />
    <inkscape:path-effect
       effect="spiro"
       id="path-effect4221"
       is_visible="true" />
    <inkscape:path-effect
       is_visible="true"
       id="path-effect4219"
       effect="spiro" />
    <inkscape:path-effect
       effect="spiro"
       id="path-effect4169"
       is_visible="true" />
    <inkscape:path-effect
       is_visible="true"
       id="path-effect4167"
       effect="spiro" />
    <inkscape:path-effect
       is_visible="true"
       id="path-effect4165"
       effect="spiro" />
    <inkscape:path-effect
       effect="spiro"
       id="path-effect4163"
       is_visible="true" />
    <inkscape:path-effect
       is_visible="true"
       id="path-effect4145"
       effect="spiro" />
    <inkscape:path-effect
       effect="spiro"
       id="path-effect4143"
       is_visible="true" />
    <inkscape:path-effect
       effect="spiro"
       id="path-effect4141"
       is_visible="true" />
    <inkscape:path-effect
       is_visible="true"
       id="path-effect4139"
       effect="spiro" />
    <inkscape:path-effect
       is_visible="true"
       id="path-effect4113"
       effect="spiro" />
    <inkscape:path-effect
       effect="spiro"
       id="path-effect4110"
       is_visible="true" />
    <inkscape:path-effect
       is_visible="true"
       id="path-effect4083"
       effect="spiro" />
    <inkscape:path-effect
       effect="spiro"
       id="path-effect4079"
       is_visible="true" />
    <inkscape:path-effect
       effect="spiro"
       id="path-effect4024"
       is_visible="true" />
    <inkscape:path-effect
       effect="spiro"
       id="path-effect4001"
       is_visible="true" />
    <inkscape:path-effect
       is_visible="true"
       id="path-effect3995"
       effect="spiro" />
    <inkscape:path-effect
       effect="spiro"
       id="path-effect3989"
       is_visible="true" />
    <inkscape:path-effect
       is_visible="true"
       id="path-effect3983"
       effect="spiro" />
    <inkscape:path-effect
       is_visible="true"
       id="path-effect3979"
       effect="spiro" />
    <inkscape:path-effect
       is_visible="true"
       id="path-effect3975"
       effect="spiro" />
    <inkscape:path-effect
       effect="spiro"
       id="path-effect3971"
       is_visible="true" />
    <inkscape:path-effect
       is_visible="true"
       id="path-effect3965"
       effect="spiro" />
    <inkscape:path-effect
       effect="spiro"
       id="path-effect3961"
       is_visible="true" />
    <inkscape:path-effect
       is_visible="true"
       id="path-effect3957"
       effect="spiro" />
    <inkscape:path-effect
       is_visible="true"
       id="path-effect3953"
       effect="spiro" />
    <inkscape:path-effect
       effect="spiro"
       id="path-effect3951"
       is_visible="true" />
    <inkscape:path-effect
       effect="spiro"
       id="path-effect3923"
       is_visible="true" />
    <inkscape:path-effect
       is_visible="true"
       id="path-effect3917"
       effect="spiro" />
    <inkscape:path-effect
       effect="spiro"
       id="path-effect3914"
       is_visible="true" />
    <inkscape:path-effect
       effect="spiro"
       id="path-effect3911"
       is_visible="true" />
    <inkscape:path-effect
       is_visible="true"
       id="path-effect3908"
       effect="spiro" />
    <inkscape:path-effect
       effect="spiro"
       id="path-effect3905"
       is_visible="true" />
    <inkscape:path-effect
       is_visible="true"
       id="path-effect3903"
       effect="spiro" />
    <inkscape:path-effect
       is_visible="true"
       id="path-effect3873"
       effect="spiro" />
    <inkscape:path-effect
       is_visible="true"
       id="path-effect3871"
       effect="spiro" />
    <inkscape:path-effect
       effect="spiro"
       id="path-effect3869"
       is_visible="true" />
    <inkscape:path-effect
       effect="spiro"
       id="path-effect3867"
       is_visible="true" />
    <inkscape:path-effect
       effect="spiro"
       id="path-effect3865"
       is_visible="true" />
    <inkscape:path-effect
       is_visible="true"
       id="path-effect3863"
       effect="spiro" />
    <inkscape:path-effect
       effect="spiro"
       id="path-effect3848"
       is_visible="true" />
    <inkscape:path-effect
       effect="spiro"
       id="path-effect3846"
       is_visible="true" />
    <inkscape:path-effect
       is_visible="true"
       id="path-effect3844"
       effect="spiro" />
    <inkscape:path-effect
       effect="spiro"
       id="path-effect3836"
       is_visible="true" />
    <inkscape:path-effect
       is_visible="true"
       id="path-effect3834"
       effect="spiro" />
    <inkscape:path-effect
       is_visible="true"
       id="path-effect3828"
       effect="spiro" />
    <inkscape:path-effect
       effect="spiro"
       id="path-effect3824"
       is_visible="true" />
    <inkscape:path-effect
       is_visible="true"
       id="path-effect3815"
       effect="spiro" />
    <inkscape:path-effect
       is_visible="true"
       id="path-effect3813"
       effect="spiro" />
    <inkscape:path-effect
       is_visible="true"
       id="path-effect3811"
       effect="spiro" />
    <inkscape:path-effect
       effect="spiro"
       id="path-effect3803"
       is_visible="true" />
    <inkscape:path-effect
       effect="spiro"
       id="path-effect3801"
       is_visible="true" />
    <inkscape:path-effect
       effect="spiro"
       id="path-effect3799"
       is_visible="true" />
    <inkscape:path-effect
       is_visible="true"
       id="path-effect3791"
       effect="spiro" />
    <inkscape:path-effect
       is_visible="true"
       id="path-effect3789"
       effect="spiro" />
    <inkscape:path-effect
       is_visible="true"
       id="path-effect3787"
       effect="spiro" />
    <inkscape:path-effect
       effect="spiro"
       id="path-effect3779"
       is_visible="true" />
    <inkscape:path-effect
       effect="spiro"
       id="path-effect3775"
       is_visible="true" />
    <inkscape:path-effect
       effect="spiro"
       id="path-effect3771"
       is_visible="true" />
    <inkscape:path-effect
       is_visible="true"
       id="path-effect3995-1"
       effect="spiro" />
    <inkscape:path-effect
       effect="spiro"
       id="path-effect3989-2"
       is_visible="true" />
    <inkscape:path-effect
       is_visible="true"
       id="path-effect3983-8"
       effect="spiro" />
    <inkscape:path-effect
       is_visible="true"
       id="path-effect3979-9"
       effect="spiro" />
    <inkscape:path-effect
       effect="spiro"
       id="path-effect3971-7"
       is_visible="true" />
    <inkscape:path-effect
       effect="spiro"
       id="path-effect4024-5"
       is_visible="true" />
    <inkscape:path-effect
       is_visible="true"
       id="path-effect3965-4"
       effect="spiro" />
    <inkscape:path-effect
       effect="spiro"
       id="path-effect3961-1"
       is_visible="true" />
    <inkscape:path-effect
       is_visible="true"
       id="path-effect3957-1"
       effect="spiro" />
    <inkscape:path-effect
       is_visible="true"
       id="path-effect3953-5"
       effect="spiro" />
    <inkscape:path-effect
       effect="spiro"
       id="path-effect3951-9"
       is_visible="true" />
  </defs>
  <sodipodi:namedview
     id="base"
     pagecolor="#ffffff"
     bordercolor="#666666"
     borderopacity="1.0"
     inkscape:pageopacity="0.0"
     inkscape:pageshadow="2"
     inkscape:zoom="0.48322475"
     inkscape:cx="669.1083"
     inkscape:cy="221.45863"
     inkscape:document-units="px"
     inkscape:current-layer="layer2"
     showgrid="false"
     width="1024px"
     inkscape:window-width="1438"
     inkscape:window-height="844"
     inkscape:window-x="0"
     inkscape:window-y="27"
     inkscape:window-maximized="0" />
  <metadata
     id="metadata7">
    <rdf:RDF>
      <cc:Work
         rdf:about="">
        <dc:format>image/svg+xml</dc:format>
        <dc:type
           rdf:resource="http://purl.org/dc/dcmitype/StillImage" />
        <dc:title />
      </cc:Work>
    </rdf:RDF>
  </metadata>
  <g
     inkscape:label="Calque 1"
     inkscape:groupmode="layer"
     id="layer1"
     transform="translate(0,-284.36218)"
     style="display:inline"
     sodipodi:insensitive="true">
    <rect
       style="color:#000000;fill:#000000;fill-opacity:1;fill-rule:evenodd;stroke:none;stroke-width:6;marker:none;visibility:visible;display:inline;overflow:visible;enable-background:accumulate"
       id="rect3753"
       width="1024"
       height="768"
       x="0"
       y="284.36218" />
  </g>
  <g
     inkscape:groupmode="layer"
     id="layer2"
     inkscape:label="Calque">
    <path
       style="color:#000000;fill:none;stroke:none;stroke-width:0.49999997;marker:none;visibility:visible;display:inline;overflow:visible;enable-background:accumulate"
       d="m 371.59036,342.59311 484.34882,0 0,222.95422 -484.34882,0 z"
       id="rect2995" />
    <g
       style="font-size:12px;font-style:normal;font-variant:normal;font-weight:500;font-stretch:normal;line-height:125%;letter-spacing:0px;word-spacing:0px;fill:#000000;fill-opacity:1;stroke:none;font-family:News Cycle;-inkscape-font-specification:News Cycle Medium"
       id="flowRoot5199" />
    <g
       transform="matrix(0.80213479,0,0,0.80213479,-227.97741,438.45138)"
       style="font-size:12px;font-style:normal;font-variant:normal;font-weight:500;font-stretch:normal;line-height:125%;letter-spacing:0px;word-spacing:0px;fill:#ffffff;fill-opacity:1;stroke:none;font-family:News Cycle;-inkscape-font-specification:News Cycle Medium"
       id="flowRoot5684">
      <path
         d="m 914.96375,-72.37 c -3e-5,0.133336 -0.0667,0.26667 -0.2,0.4 -0.13336,0.106669 -0.25336,0.160003 -0.36,0.16 l -19.24,0 c -1.06668,3e-6 -1.80001,-0.199997 -2.2,-0.6 -0.37334,-0.399996 -0.56001,-1.039996 -0.56,-1.92 l 0,-5.4 c -10e-6,-0.853322 0.18666,-1.466655 0.56,-1.84 0.37332,-0.399987 1.09332,-0.599987 2.16,-0.6 l 13.72,0 c 0.23998,1.3e-5 0.38664,-0.02665 0.44,-0.08 0.0533,-0.07999 0.08,-0.239987 0.08,-0.48 l 0,-2.2 c -2e-5,-0.293317 -0.0267,-0.466651 -0.08,-0.52 -0.0534,-0.05332 -0.21336,-0.07998 -0.48,-0.08 l -15.88,0 c -0.13334,1.6e-5 -0.26667,-0.05332 -0.4,-0.16 -0.13334,-0.133317 -0.20001,-0.26665 -0.2,-0.4 l 0,-2.68 c -10e-6,-0.133314 0.0667,-0.253314 0.2,-0.36 0.13333,-0.106647 0.26666,-0.15998 0.4,-0.16 l 18.24,0 c 1.11997,2e-5 1.85331,0.186687 2.2,0.56 0.3733,0.346686 0.55997,0.986685 0.56,1.92 l 0,5.68 c -3e-5,0.933344 -0.1867,1.586677 -0.56,1.96 -0.34669,0.346676 -1.08003,0.520009 -2.2,0.52 l -13.64,0 c -0.21335,9e-6 -0.34668,0.04001 -0.4,0.12 -0.0534,0.05334 -0.08,0.186676 -0.08,0.4 l 0,2.08 c -1e-5,0.240007 0.0266,0.386673 0.08,0.44 0.0533,0.02667 0.19999,0.04001 0.44,0.04 l 16.8,0 c 0.1333,6e-6 0.26664,0.06667 0.4,0.2 0.1333,0.106673 0.19997,0.240006 0.2,0.4 l 0,2.6"
         style="font-size:40px;font-weight:bold;fill:#ffffff;fill-opacity:1;-inkscape-font-specification:News Cycle Bold"
         id="path3443"
         inkscape:connector-curvature="0" />
      <path
         d="m 901.52375,-34.675459 -8.6,0 0,7.48 c -1e-5,0.453342 0.23999,0.680008 0.72,0.68 l 7.16,0 c 0.47998,8e-6 0.71998,-0.226658 0.72,-0.68 l 0,-7.48 m 4.6,9.24 c -2e-5,0.880006 -0.21335,1.546672 -0.64,2 -0.42669,0.453338 -1.21335,0.680004 -2.36,0.68 l -11.76,0 c -1.17334,4e-6 -1.97334,-0.199995 -2.4,-0.6 -0.42667,-0.399995 -0.64,-1.133327 -0.64,-2.2 l 0,-21.6 c 0,-0.133304 0.0533,-0.239971 0.16,-0.32 0.10666,-0.106637 0.22666,-0.159971 0.36,-0.16 l 3.52,0 c 0.13333,2.9e-5 0.25333,0.05336 0.36,0.16 0.13333,0.08003 0.19999,0.186696 0.2,0.32 l 0,8.76 8.6,0 0,-8.8 c -2e-5,-0.133304 0.0533,-0.253304 0.16,-0.36 0.10665,-0.106637 0.22665,-0.159971 0.36,-0.16 l 3.56,0 c 0.13331,2.9e-5 0.25331,0.05336 0.36,0.16 0.10665,0.106696 0.15998,0.226696 0.16,0.36 l 0,21.76 m 16,-6.36 c -4e-5,0.160013 -0.0667,0.293346 -0.2,0.4 -0.1067,0.10668 -0.2267,0.160013 -0.36,0.16 l -5.44,0 0,18.96 c -3e-5,0.34666 -0.17336,0.519993 -0.52,0.52 l -3.56,0 c -0.34669,-7e-6 -0.52003,-0.17334 -0.52,-0.52 l 0,-36.92 c -3e-5,-0.346636 0.17331,-0.519969 0.52,-0.52 l 3.56,0 c 0.34664,3.1e-5 0.51997,0.173364 0.52,0.52 l 0,14.12 5.44,0 c 0.1333,1.7e-5 0.2533,0.05335 0.36,0.16 0.1333,0.08002 0.19996,0.186683 0.2,0.32 l 0,2.8"
         style="font-size:40px;font-weight:bold;fill:#ffffff;fill-opacity:1;-inkscape-font-specification:News Cycle Bold"
         id="path3445"
         inkscape:connector-curvature="0" />
      <path
         d="m 939.10187,-34.675459 -8.59999,0 0,7.48 c -10e-6,0.453342 0.23999,0.680008 0.71999,0.68 l 7.16001,0 c 0.47998,8e-6 0.71998,-0.226658 0.71999,-0.68 l 0,-7.48 m 4.6,9.24 c -2e-5,0.880006 -0.21335,1.546672 -0.64,2 -0.42668,0.453338 -1.21335,0.680004 -2.36,0.68 l -11.76,0 c -1.17333,4e-6 -1.97333,-0.199995 -2.4,-0.6 -0.42667,-0.399995 -0.64,-1.133327 -0.63999,-2.2 l 0,-21.6 c -10e-6,-0.133304 0.0533,-0.239971 0.15999,-0.32 0.10667,-0.106637 0.22667,-0.159971 0.36,-0.16 l 3.52,0 c 0.13333,2.9e-5 0.25333,0.05336 0.36,0.16 0.13333,0.08003 0.2,0.186696 0.20001,0.32 l 0,8.76 8.59999,0 0,-8.8 c -10e-6,-0.133304 0.0533,-0.253304 0.16001,-0.36 0.10664,-0.106637 0.22664,-0.159971 0.36,-0.16 l 3.55999,0 c 0.13332,2.9e-5 0.25332,0.05336 0.36,0.16 0.10665,0.106696 0.15998,0.226696 0.16,0.36 l 0,21.76 m 16,-6.36 c -3e-5,0.160013 -0.0667,0.293346 -0.19999,0.4 -0.10671,0.10668 -0.22671,0.160013 -0.36,0.16 l -5.44001,0 0,18.96 c -3e-5,0.34666 -0.17336,0.519993 -0.52,0.52 l -3.55999,0 c -0.3467,-7e-6 -0.52003,-0.17334 -0.52001,-0.52 l 0,-36.92 c -2e-5,-0.346636 0.17331,-0.519969 0.52001,-0.52 l 3.55999,0 c 0.34664,3.1e-5 0.51997,0.173364 0.52,0.52 l 0,14.12 5.44001,0 c 0.13329,1.7e-5 0.25329,0.05335 0.36,0.16 0.13329,0.08002 0.19996,0.186683 0.19999,0.32 l 0,2.8"
         style="font-size:40px;font-weight:bold;fill:#ffffff;fill-opacity:1;-inkscape-font-specification:News Cycle Bold"
         id="path3447"
         inkscape:connector-curvature="0" />
      <path
         d="m 984.52,-23.115459 c 0.0266,0.213338 -0.04,0.386671 -0.2,0.52 -0.13336,0.106671 -0.30669,0.186671 -0.52,0.24 -1.17336,0.26667 -2.58669,0.50667 -4.24,0.72 -1.62668,0.18667 -3.28002,0.333336 -4.96,0.44 -1.65335,0.106669 -3.24001,0.173336 -4.76,0.2 -1.49334,0.02667 -2.68001,3e-6 -3.56,-0.08 -1.17334,-0.106664 -1.98667,-0.359997 -2.44,-0.76 -0.42667,-0.399996 -0.64,-1.106662 -0.64,-2.12 l 0,-9.6 c 0,-0.959984 0.22666,-1.653317 0.68,-2.08 0.48,-0.426649 1.18666,-0.639982 2.12,-0.64 l 9.52,0 c 0.21332,1.8e-5 0.35998,-0.02665 0.44,-0.08 0.08,-0.07998 0.11998,-0.253315 0.12,-0.52 l 0,-5.6 c -2e-5,-0.213309 -0.0267,-0.359976 -0.08,-0.44 -0.0534,-0.07998 -0.21335,-0.119975 -0.48,-0.12 l -11.52,0 c -0.13334,2.5e-5 -0.26667,-0.05331 -0.4,-0.16 -0.10667,-0.106642 -0.16,-0.226642 -0.16,-0.36 l 0,-2.76 c 0,-0.133305 0.0533,-0.239972 0.16,-0.32 0.13333,-0.106638 0.26666,-0.159972 0.4,-0.16 l 13.92,0 c 1.14665,2.8e-5 1.87998,0.213362 2.2,0.64 0.34665,0.426694 0.51998,1.120027 0.52,2.08 l 0,8.88 c -2e-5,1.013349 -0.21335,1.706682 -0.64,2.08 -0.40002,0.373348 -1.12002,0.560014 -2.16,0.56 l -9.48,0 c -0.37334,1.4e-5 -0.56001,0.186681 -0.56,0.56 l 0,6.32 c -10e-6,0.29334 0.0533,0.49334 0.16,0.6 0.10666,0.08001 0.29333,0.120007 0.56,0.12 1.19999,0.05334 2.42666,0.06667 3.68,0.04 1.27999,-0.05333 2.54665,-0.119993 3.8,-0.2 1.27998,-0.10666 2.53331,-0.239993 3.76,-0.4 1.22665,-0.159993 2.38664,-0.346659 3.48,-0.56 0.21331,-0.05333 0.39998,-0.02666 0.56,0.08 0.18664,0.08001 0.30664,0.240007 0.36,0.48 l 0.36,2.4 m 12.76,-8.68 c -4e-5,0.160013 -0.0667,0.293346 -0.2,0.4 -0.1067,0.10668 -0.2267,0.160013 -0.36,0.16 l -5.44,0 0,18.96 c -3e-5,0.34666 -0.17336,0.519993 -0.52,0.52 l -3.56,0 c -0.34669,-7e-6 -0.52003,-0.17334 -0.52,-0.52 l 0,-36.92 c -3e-5,-0.346636 0.17331,-0.519969 0.52,-0.52 l 3.56,0 c 0.34664,3.1e-5 0.51997,0.173364 0.52,0.52 l 0,14.12 5.44,0 c 0.1333,1.7e-5 0.2533,0.05335 0.36,0.16 0.1333,0.08002 0.19996,0.186683 0.2,0.32 l 0,2.8"
         style="font-size:40px;font-weight:bold;fill:#ffffff;fill-opacity:1;-inkscape-font-specification:News Cycle Bold"
         id="path3449"
         inkscape:connector-curvature="0" />
      <path
         d="m 917.80375,37.724541 c -3e-5,0.346661 -0.17337,0.519994 -0.52,0.52 l -3.56,0 c -0.3467,-6e-6 -0.52003,-0.173339 -0.52,-0.52 l 0,-36.91999953 c -3e-5,-0.3466352 0.1733,-0.51996836 0.52,-0.52 l 3.56,0 c 0.34663,3.164e-5 0.51997,0.1733648 0.52,0.52 l 0,36.91999953 m -14.44,-21.88 c -2e-5,-1.226649 -0.12002,-2.386648 -0.36,-3.48 -0.24002,-1.119979 -0.58668,-2.093311 -1.04,-2.9199995 -0.45335,-0.8266434 -1.01335,-1.4799761 -1.68,-1.96 -0.64001,-0.4799751 -1.38668,-0.7199749 -2.24,-0.72 -0.85335,2.51e-5 -1.61334,0.2400249 -2.28,0.72 -0.64001,0.4800239 -1.18668,1.1333566 -1.64,1.96 -0.45334,0.8266885 -0.80001,1.8000205 -1.04,2.9199995 -0.24001,1.093352 -0.36001,2.253351 -0.36,3.48 -10e-6,1.200015 0.11999,2.360014 0.36,3.48 0.23999,1.093345 0.58666,2.066678 1.04,2.92 0.45332,0.826676 0.99999,1.493342 1.64,2 0.66666,0.480008 1.42665,0.720007 2.28,0.72 0.85332,7e-6 1.59999,-0.239992 2.24,-0.72 0.66665,-0.506658 1.22665,-1.173324 1.68,-2 0.45332,-0.853322 0.79998,-1.826655 1.04,-2.92 0.23998,-1.119986 0.35998,-2.279985 0.36,-3.48 m -5.32,13.2 c -1.52001,3e-6 -2.89334,-0.319996 -4.12,-0.96 -1.22667,-0.639995 -2.26667,-1.533327 -3.12,-2.68 -0.82667,-1.173325 -1.46667,-2.573324 -1.92,-4.2 -0.45334,-1.626654 -0.68,-3.413319 -0.68,-5.36 0,-1.999981 0.22666,-3.813313 0.68,-5.44 0.45333,-1.626643 1.09333,-2.999975 1.92,-4.1199995 0.85333,-1.1466399 1.89333,-2.026639 3.12,-2.64 1.22666,-0.6399711 2.59999,-0.9599708 4.12,-0.96 1.54665,2.92e-5 2.91998,0.3200289 4.12,0.96 1.22665,0.613361 2.25331,1.4933601 3.08,2.64 0.85331,1.1200245 1.50664,2.4933565 1.96,4.1199995 0.45331,1.626687 0.67998,3.440019 0.68,5.44 -2e-5,2.000015 -0.22669,3.813346 -0.68,5.44 -0.45336,1.626676 -1.10669,3.013341 -1.96,4.16 -0.82669,1.146672 -1.85335,2.040005 -3.08,2.68 -1.20002,0.613337 -2.57335,0.920003 -4.12,0.92"
         style="font-size:40px;font-weight:bold;fill:#ffffff;fill-opacity:1;-inkscape-font-specification:News Cycle Bold"
         id="path3451"
         inkscape:connector-curvature="0" />
      <path
         d="m 955.26188,37.084541 c -4e-5,0.159995 -0.0667,0.279995 -0.20001,0.36 -0.10669,0.07999 -0.22669,0.119995 -0.36,0.12 l -21.16,0 c -1.2,-5e-6 -2.01334,-0.213338 -2.44,-0.64 -0.4,-0.426671 -0.6,-1.160003 -0.59999,-2.2 l 0,-7.76 c -10e-6,-0.133328 0.0533,-0.253328 0.15999,-0.36 0.13333,-0.133327 0.26666,-0.199994 0.4,-0.2 l 3.44001,0 c 0.15998,6e-6 0.29332,0.06667 0.4,0.2 0.13332,0.106672 0.19998,0.226672 0.19999,0.36 l 0,6.12 c -10e-6,0.266666 0.0533,0.439999 0.16001,0.52 0.10665,0.08 0.30665,0.119999 0.6,0.12 l 18.83999,0 c 0.13331,-1e-6 0.25331,0.05333 0.36,0.16 0.13331,0.106665 0.19997,0.226665 0.20001,0.36 l 0,2.84 m 4.43999,-20.8 c -3e-5,0.133349 -0.0667,0.253349 -0.19999,0.36 -0.10671,0.08002 -0.22671,0.120016 -0.36,0.12 l -5.44001,0 0,10.36 c -3e-5,0.346672 -0.17336,0.520005 -0.52,0.52 l -3.55999,0 c -0.3467,5e-6 -0.52003,-0.173328 -0.52001,-0.52 l 0,-26.31999953 c -2e-5,-0.3466352 0.17331,-0.51996836 0.52001,-0.52 l 3.55999,0 c 0.34664,3.164e-5 0.51997,0.1733648 0.52,0.52 l 0,12.11999953 5.44001,0 c 0.13329,1.9e-5 0.25329,0.05335 0.36,0.16 0.13329,0.08002 0.19996,0.186686 0.19999,0.32 l 0,2.88 m -12.36,4.96 c 0.0267,0.133344 -0.0133,0.266678 -0.12,0.4 -0.10669,0.106677 -0.22669,0.173344 -0.35999,0.2 -1.25336,0.213344 -2.64003,0.413343 -4.16001,0.6 -1.49335,0.186676 -3.02668,0.346676 -4.6,0.48 -1.57334,0.106676 -3.16001,0.186676 -4.76,0.24 -1.57334,0.02668 -3.05334,0.01334 -4.43999,-0.04 -1.04001,-0.05332 -1.74668,-0.266657 -2.12,-0.64 -0.37334,-0.373323 -0.56001,-0.986656 -0.56001,-1.84 l 0,-7.4 c 0,-0.826647 0.17333,-1.399979 0.52001,-1.72 0.37332,-0.346645 0.98666,-0.519979 1.83999,-0.52 l 9.24,0 c 0.29332,2.1e-5 0.46666,-0.02665 0.52,-0.08 0.0533,-0.05331 0.08,-0.226645 0.08,-0.52 l 0,-3.6399995 c -10e-6,-0.2933079 -0.0267,-0.4533077 -0.08,-0.48 -0.0533,-0.053308 -0.22668,-0.079974 -0.52,-0.08 l -10.88,0 c -0.13333,2.57e-5 -0.26667,-0.053308 -0.4,-0.16 -0.10667,-0.1066407 -0.16,-0.2266406 -0.15999,-0.36 l 0,-2.64 c -10e-6,-0.1333043 0.0533,-0.2399709 0.15999,-0.32 0.13333,-0.1066374 0.26667,-0.1599707 0.4,-0.16 l 13.36,0 c 1.03999,2.93e-5 1.74665,0.2133625 2.12,0.64 0.37332,0.4000283 0.55998,1.0666943 0.56,2 l 0,6.5999995 c -2e-5,0.96002 -0.21335,1.640019 -0.64,2.04 -0.40001,0.373352 -1.02668,0.560018 -1.88,0.56 l -9.12,0 c -0.21334,1.8e-5 -0.36,0.04002 -0.43999,0.12 -0.08,0.05335 -0.12001,0.200018 -0.12,0.44 l 0,3.84 c -10e-6,0.453346 0.23999,0.680013 0.72,0.68 1.19998,0.02668 2.47998,0.02668 3.83999,0 1.38666,-0.05332 2.73332,-0.13332 4.04001,-0.24 1.33331,-0.106653 2.58664,-0.226653 3.76,-0.36 1.19997,-0.13332 2.23997,-0.266653 3.12,-0.4 0.1333,-0.02665 0.26664,-0.01332 0.39999,0.04 0.15998,0.02668 0.25331,0.120014 0.28,0.28 l 0.4,2.44"
         style="font-size:40px;font-weight:bold;fill:#ffffff;fill-opacity:1;-inkscape-font-specification:News Cycle Bold"
         id="path3453"
         inkscape:connector-curvature="0" />
      <path
         d="m 917.80375,87.724541 c -3e-5,0.346661 -0.17337,0.519994 -0.52,0.52 l -3.56,0 c -0.3467,-6e-6 -0.52003,-0.173339 -0.52,-0.52 l 0,-36.92 c -3e-5,-0.346635 0.1733,-0.519968 0.52,-0.52 l 3.56,0 c 0.34663,3.2e-5 0.51997,0.173365 0.52,0.52 l 0,36.92 m -7.28,-10.84 c 0.0533,0.213339 -3e-5,0.386672 -0.16,0.52 -0.16003,0.106672 -0.34669,0.186671 -0.56,0.24 -0.77336,0.186671 -1.66669,0.360004 -2.68,0.52 -0.98669,0.133337 -2.04002,0.253337 -3.16,0.36 -1.12002,0.10667 -2.25335,0.200004 -3.4,0.28 -1.14668,0.08 -2.25335,0.133337 -3.32,0.16 -1.06668,0.02667 -2.05334,0.04 -2.96,0.04 -0.88001,3e-6 -1.61334,-0.02666 -2.2,-0.08 -1.17334,-0.106663 -1.98667,-0.359996 -2.44,-0.76 -0.42667,-0.399995 -0.64,-1.106661 -0.64,-2.12 l 0,-9.6 c 0,-0.959983 0.22666,-1.653316 0.68,-2.08 0.47999,-0.426648 1.18666,-0.639981 2.12,-0.64 l 9.52,0 c 0.21332,1.9e-5 0.35998,-0.02665 0.44,-0.08 0.08,-0.07998 0.11998,-0.253314 0.12,-0.52 l 0,-5.6 c -2e-5,-0.213308 -0.0267,-0.359975 -0.08,-0.44 -0.0534,-0.07998 -0.21335,-0.119975 -0.48,-0.12 l -11.52,0 c -0.13334,2.5e-5 -0.26667,-0.05331 -0.4,-0.16 -0.10667,-0.106641 -0.16,-0.226641 -0.16,-0.36 l 0,-2.76 c 0,-0.133304 0.0533,-0.239971 0.16,-0.32 0.13333,-0.106638 0.26666,-0.159971 0.4,-0.16 l 13.92,0 c 1.14665,2.9e-5 1.87998,0.213362 2.2,0.64 0.34665,0.426695 0.51998,1.120027 0.52,2.08 l 0,8.88 c -2e-5,1.01335 -0.21335,1.706683 -0.64,2.08 -0.40002,0.373348 -1.12002,0.560015 -2.16,0.56 l -9.48,0 c -0.37334,1.5e-5 -0.56001,0.186681 -0.56,0.56 l 0,6.32 c -10e-6,0.293341 0.0533,0.493341 0.16,0.6 0.10666,0.08001 0.30666,0.120007 0.6,0.12 1.17332,0.05334 2.39999,0.06667 3.68,0.04 1.30665,-0.05333 2.61332,-0.119993 3.92,-0.2 1.30665,-0.106659 2.57331,-0.239992 3.8,-0.4 1.25331,-0.159992 2.42664,-0.346658 3.52,-0.56 0.18664,-0.05333 0.35998,-0.02666 0.52,0.08 0.18664,0.08001 0.30664,0.240008 0.36,0.48 l 0.36,2.4"
         style="font-size:40px;font-weight:bold;fill:#ffffff;fill-opacity:1;-inkscape-font-specification:News Cycle Bold"
         id="path3455"
         inkscape:connector-curvature="0" />
      <path
         d="m 959.70187,68.124541 c -3e-5,0.160014 -0.0667,0.293347 -0.19999,0.4 -0.10671,0.10668 -0.22671,0.160014 -0.36,0.16 l -5.44001,0 0,19.04 c -3e-5,0.346661 -0.17336,0.519994 -0.52,0.52 l -3.55999,0 c -0.3467,-6e-6 -0.52003,-0.173339 -0.52001,-0.52 l 0,-36.92 c -2e-5,-0.346635 0.17331,-0.519968 0.52001,-0.52 l 3.55999,0 c 0.34664,3.2e-5 0.51997,0.173365 0.52,0.52 l 0,14.04 5.44001,0 c 0.13329,1.8e-5 0.25329,0.05335 0.36,0.16 0.13329,0.08002 0.19996,0.186684 0.19999,0.32 l 0,2.8 m -15.48,6.12 c -2e-5,1.040007 -0.21335,1.77334 -0.64,2.2 -0.42668,0.400006 -1.14668,0.600005 -2.16,0.6 l -12.55999,0 c -1.12001,5e-6 -1.89334,-0.199994 -2.32001,-0.6 -0.42667,-0.42666 -0.64,-1.159993 -0.63999,-2.2 l 0,-18.32 c -10e-6,-1.013306 0.19999,-1.706638 0.6,-2.08 0.42666,-0.399971 1.14666,-0.599971 2.15999,-0.6 l 12.76,0 c 1.01332,2.9e-5 1.73332,0.186696 2.16,0.56 0.42665,0.346695 0.63998,1.053361 0.64,2.12 l 0,18.32 m -4.59999,-16.72 c -2e-5,-0.213308 -0.04,-0.346641 -0.12,-0.4 -0.0534,-0.07997 -0.18669,-0.119975 -0.40001,-0.12 l -8.12,0 c -0.21334,2.5e-5 -0.36,0.02669 -0.44,0.08 -0.0533,0.05336 -0.08,0.186692 -0.08,0.4 l 0,15.28 c 0,0.240009 0.0267,0.386676 0.08,0.44 0.08,0.05334 0.22666,0.08001 0.44,0.08 l 8.12,0 c 0.21332,9e-6 0.34665,-0.02666 0.40001,-0.08 0.08,-0.05332 0.11998,-0.199991 0.12,-0.44 l 0,-15.24"
         style="font-size:40px;font-weight:bold;fill:#ffffff;fill-opacity:1;-inkscape-font-specification:News Cycle Bold"
         id="path3457"
         inkscape:connector-curvature="0" />
    </g>
    <g
       transform="matrix(0.80213479,0,0,0.80213479,-80.29647,437.95015)"
       style="font-size:12px;font-style:normal;font-variant:normal;font-weight:500;font-stretch:normal;line-height:125%;letter-spacing:0px;word-spacing:0px;fill:#ffffff;fill-opacity:1;stroke:none;font-family:News Cycle;-inkscape-font-specification:News Cycle Medium"
       id="flowRoot5981">
      <path
         d="m 914.72375,-73.81 c -3e-5,0.133338 -0.0667,0.266671 -0.2,0.4 -0.1067,0.133337 -0.2267,0.200004 -0.36,0.2 l -3.52,0 c -0.16003,4e-6 -0.30669,-0.05333 -0.44,-0.16 -0.10669,-0.133329 -0.16003,-0.279996 -0.16,-0.44 l 0,-10.56 c -3e-5,-0.266651 -0.0534,-0.439984 -0.16,-0.52 -0.10669,-0.07998 -0.29336,-0.119984 -0.56,-0.12 l -16.24,0 c -0.13334,1.6e-5 -0.26667,-0.03998 -0.4,-0.12 -0.10667,-0.106651 -0.16001,-0.226651 -0.16,-0.36 l 0,-2.96 c -10e-6,-0.159981 0.0533,-0.279981 0.16,-0.36 0.13333,-0.07998 0.26666,-0.11998 0.4,-0.12 l 18.96,0 c 1.03997,2e-5 1.74664,0.226686 2.12,0.68 0.3733,0.426685 0.55997,1.160018 0.56,2.2 l 0,12.24"
         style="font-size:40px;font-weight:bold;fill:#ffffff;fill-opacity:1;-inkscape-font-specification:News Cycle Bold"
         id="path3460"
         inkscape:connector-curvature="0" />
      <path
         d="m 917.80375,-13.45 c -3e-5,0.346661 -0.17337,0.519994 -0.52,0.52 l -3.56,0 c -0.3467,-6e-6 -0.52003,-0.173339 -0.52,-0.52 l 0,-36.92 c -3e-5,-0.346635 0.1733,-0.519968 0.52,-0.52 l 3.56,0 c 0.34663,3.2e-5 0.51997,0.173365 0.52,0.52 l 0,36.92 m -10.8,-31.44 c -0.21336,2.58669 -0.76002,5.026687 -1.64,7.32 -0.85335,2.293349 -2.00002,4.426681 -3.44,6.4 -1.41335,1.973343 -3.09335,3.800008 -5.04,5.48 -1.94668,1.680005 -4.09334,3.213337 -6.44,4.6 -0.21334,0.133335 -0.45334,0.186668 -0.72,0.16 -0.24,-0.05333 -0.42667,-0.186665 -0.56,-0.4 l -1.36,-2.12 c -0.13334,-0.213329 -0.17334,-0.413329 -0.12,-0.6 0.0533,-0.213328 0.17333,-0.373328 0.36,-0.48 3.97333,-2.346659 7.14666,-5.053323 9.52,-8.12 2.39998,-3.06665 3.95998,-6.426647 4.68,-10.08 0.10665,-0.533309 0.08,-0.879976 -0.08,-1.04 -0.16002,-0.186642 -0.49335,-0.279975 -1,-0.28 l -11.28,0 c -0.37334,2.5e-5 -0.56,-0.186642 -0.56,-0.56 l 0,-2.8 c 0,-0.319972 0.18666,-0.479971 0.56,-0.48 l 14.32,0 c 1.19998,2.9e-5 1.98665,0.253362 2.36,0.76 0.37331,0.480027 0.51998,1.226693 0.44,2.24"
         style="font-size:40px;font-weight:bold;fill:#ffffff;fill-opacity:1;-inkscape-font-specification:News Cycle Bold"
         id="path3462"
         inkscape:connector-curvature="0" />
      <path
         d="m 905.96375,5.11 c -0.18669,2.4266899 -0.68002,4.7733542 -1.48,7.04 -0.80002,2.240016 -1.90668,4.360014 -3.32,6.36 -1.38668,2.00001 -3.06668,3.866675 -5.04,5.6 -1.97334,1.733338 -4.20001,3.280003 -6.68,4.64 -0.21334,0.106669 -0.44,0.160002 -0.68,0.16 -0.21334,-0.02667 -0.38667,-0.146665 -0.52,-0.36 l -1.6,-2.24 c -0.13334,-0.213329 -0.17333,-0.426662 -0.12,-0.64 0.0533,-0.213328 0.17333,-0.386661 0.36,-0.52 3.97333,-2.106659 7.18666,-4.706656 9.64,-7.8 2.45332,-3.093317 3.94665,-6.453313 4.48,-10.08 0.08,-0.5333093 0.04,-0.8799756 -0.12,-1.04 -0.13335,-0.186642 -0.44002,-0.2799752 -0.92,-0.28 l -11.28,0 c -0.34667,2.48e-5 -0.52,-0.1866417 -0.52,-0.56 l 0,-2.8 c 0,-0.3199715 0.17333,-0.4799714 0.52,-0.48 l 14.44,0 c 1.19998,2.86e-5 1.98665,0.2533617 2.36,0.76 0.39998,0.4800274 0.55998,1.2266933 0.48,2.24 m 16.2,11.88 c -4e-5,0.160014 -0.0667,0.293347 -0.2,0.4 -0.1067,0.10668 -0.24004,0.160013 -0.4,0.16 l -5.4,0 0,19 c -3e-5,0.346661 -0.17336,0.519994 -0.52,0.52 l -3.56,0 c -0.34669,-6e-6 -0.52003,-0.173339 -0.52,-0.52 l 0,-36.92 c -3e-5,-0.3466352 0.17331,-0.51996836 0.52,-0.52 l 3.56,0 c 0.34664,3.164e-5 0.51997,0.1733648 0.52,0.52 l 0,14.08 5.4,0 c 0.15996,1.7e-5 0.2933,0.05335 0.4,0.16 0.1333,0.08002 0.19996,0.186683 0.2,0.32 l 0,2.8"
         style="font-size:40px;font-weight:bold;fill:#ffffff;fill-opacity:1;-inkscape-font-specification:News Cycle Bold"
         id="path3464"
         inkscape:connector-curvature="0" />
      <path
         d="m 947.30187,23.23 c 0.0533,0.186674 0.0133,0.360007 -0.12,0.52 -0.13335,0.160007 -0.32002,0.266673 -0.55999,0.32 -0.98669,0.266673 -2.24003,0.533339 -3.76,0.8 -1.52002,0.240006 -3.10669,0.453339 -4.76001,0.64 -1.65334,0.186672 -3.28001,0.320005 -4.88,0.4 -1.57334,0.05334 -2.92,0.02667 -4.04,-0.08 -1.04,-0.106662 -1.78667,-0.413328 -2.24,-0.92 -0.45333,-0.50666 -0.68,-1.213326 -0.67999,-2.12 l 0,-20.8 c -10e-6,-0.1333044 0.0533,-0.2533043 0.15999,-0.36 0.13333,-0.1333041 0.26667,-0.1999707 0.4,-0.2 l 3.44001,0 c 0.15999,2.93e-5 0.29332,0.066696 0.39999,0.2 0.13333,0.1066957 0.2,0.2266956 0.20001,0.36 l 0,19.28 c -1e-5,0.266676 0.0533,0.440009 0.16,0.52 0.10665,0.05334 0.29332,0.09334 0.55999,0.12 0.95999,0.08001 2.03999,0.106675 3.24,0.08 1.22666,-0.05332 2.47999,-0.146658 3.76,-0.28 1.30665,-0.159991 2.58665,-0.346657 3.84,-0.56 1.27998,-0.23999 2.46665,-0.493323 3.56,-0.76 0.29331,-0.05332 0.49331,10e-6 0.6,0.16 0.13331,0.133343 0.22665,0.28001 0.28001,0.44 l 0.43999,2.24 m 12.4,-6.2 c -3e-5,0.160014 -0.0667,0.293347 -0.19999,0.4 -0.10671,0.10668 -0.22671,0.160013 -0.36,0.16 l -5.44001,0 0,18.96 c -3e-5,0.346661 -0.17336,0.519994 -0.52,0.52 l -3.55999,0 c -0.3467,-6e-6 -0.52003,-0.173339 -0.52001,-0.52 l 0,-36.92 c -2e-5,-0.3466352 0.17331,-0.51996836 0.52001,-0.52 l 3.55999,0 c 0.34664,3.164e-5 0.51997,0.1733648 0.52,0.52 l 0,14.12 5.44001,0 c 0.13329,1.7e-5 0.25329,0.05335 0.36,0.16 0.13329,0.08002 0.19996,0.186683 0.19999,0.32 l 0,2.8"
         style="font-size:40px;font-weight:bold;fill:#ffffff;fill-opacity:1;-inkscape-font-specification:News Cycle Bold"
         id="path3466"
         inkscape:connector-curvature="0" />
      <path
         d="m 905.96375,55.11 c -0.18669,2.42669 -0.68002,4.773354 -1.48,7.04 -0.80002,2.240016 -1.90668,4.360014 -3.32,6.36 -1.38668,2.00001 -3.06668,3.866675 -5.04,5.6 -1.97334,1.733338 -4.20001,3.280003 -6.68,4.64 -0.21334,0.106669 -0.44,0.160002 -0.68,0.16 -0.21334,-0.02666 -0.38667,-0.146665 -0.52,-0.36 l -1.6,-2.24 c -0.13334,-0.213329 -0.17333,-0.426662 -0.12,-0.64 0.0533,-0.213328 0.17333,-0.386661 0.36,-0.52 3.97333,-2.106659 7.18666,-4.706656 9.64,-7.8 2.45332,-3.093317 3.94665,-6.453313 4.48,-10.08 0.08,-0.533309 0.04,-0.879976 -0.12,-1.04 -0.13335,-0.186642 -0.44002,-0.279975 -0.92,-0.28 l -11.28,0 c -0.34667,2.5e-5 -0.52,-0.186642 -0.52,-0.56 l 0,-2.8 c 0,-0.319972 0.17333,-0.479971 0.52,-0.48 l 14.44,0 c 1.19998,2.9e-5 1.98665,0.253362 2.36,0.76 0.39998,0.480027 0.55998,1.226693 0.48,2.24 m 16.2,11.88 c -4e-5,0.160014 -0.0667,0.293347 -0.2,0.4 -0.1067,0.10668 -0.24004,0.160013 -0.4,0.16 l -5.4,0 0,19 c -3e-5,0.346661 -0.17336,0.519994 -0.52,0.52 l -3.56,0 c -0.34669,-6e-6 -0.52003,-0.173339 -0.52,-0.52 l 0,-36.92 c -3e-5,-0.346635 0.17331,-0.519968 0.52,-0.52 l 3.56,0 c 0.34664,3.2e-5 0.51997,0.173365 0.52,0.52 l 0,14.08 5.4,0 c 0.15996,1.7e-5 0.2933,0.05335 0.4,0.16 0.1333,0.08002 0.19996,0.186683 0.2,0.32 l 0,2.8"
         style="font-size:40px;font-weight:bold;fill:#ffffff;fill-opacity:1;-inkscape-font-specification:News Cycle Bold"
         id="path3468"
         inkscape:connector-curvature="0" />
      <path
         d="m 955.38188,86.55 c -4e-5,0.346661 -0.17337,0.519994 -0.52,0.52 l -3.56001,0 c -0.34669,-6e-6 -0.52002,-0.173339 -0.51999,-0.52 l 0,-36.92 c -3e-5,-0.346635 0.1733,-0.519968 0.51999,-0.52 l 3.56001,0 c 0.34663,3.2e-5 0.51996,0.173365 0.52,0.52 l 0,36.92 M 940.94187,64.67 c -10e-6,-1.226649 -0.12001,-2.386648 -0.36,-3.48 -0.24001,-1.119979 -0.58668,-2.093312 -1.04,-2.92 -0.45335,-0.826643 -1.01334,-1.479976 -1.67999,-1.96 -0.64002,-0.479975 -1.38669,-0.719975 -2.24,-0.72 -0.85335,2.5e-5 -1.61335,0.240025 -2.28001,0.72 -0.64001,0.480024 -1.18667,1.133357 -1.64,1.96 -0.45334,0.826688 -0.8,1.800021 -1.04,2.92 -0.24,1.093352 -0.36,2.253351 -0.36,3.48 0,1.200015 0.12,2.360014 0.36,3.48 0.24,1.093345 0.58666,2.066677 1.04,2.92 0.45333,0.826676 0.99999,1.493342 1.64,2 0.66666,0.480007 1.42666,0.720007 2.28001,0.72 0.85331,7e-6 1.59998,-0.239993 2.24,-0.72 0.66665,-0.506658 1.22664,-1.173324 1.67999,-2 0.45332,-0.853323 0.79999,-1.826655 1.04,-2.92 0.23999,-1.119986 0.35999,-2.279985 0.36,-3.48 m -5.31999,13.2 c -1.52002,3e-6 -2.89335,-0.319997 -4.12,-0.96 -1.22668,-0.639996 -2.26668,-1.533328 -3.12,-2.68 -0.82668,-1.173326 -1.46668,-2.573324 -1.92001,-4.2 -0.45333,-1.626654 -0.68,-3.413319 -0.67999,-5.36 -10e-6,-1.999982 0.22666,-3.813313 0.67999,-5.44 0.45333,-1.626644 1.09333,-2.999975 1.92001,-4.12 0.85332,-1.14664 1.89332,-2.026639 3.12,-2.64 1.22665,-0.639971 2.59998,-0.959971 4.12,-0.96 1.54665,2.9e-5 2.91998,0.320029 4.12,0.96 1.22664,0.613361 2.25331,1.49336 3.07999,2.64 0.85332,1.120025 1.50665,2.493356 1.96001,4.12 0.45331,1.626687 0.67997,3.440018 0.67999,5.44 -2e-5,2.000014 -0.22668,3.813346 -0.67999,5.44 -0.45336,1.626676 -1.10669,3.013341 -1.96001,4.16 -0.82668,1.146672 -1.85335,2.040004 -3.07999,2.68 -1.20002,0.613337 -2.57335,0.920003 -4.12,0.92"
         style="font-size:40px;font-weight:bold;fill:#ffffff;fill-opacity:1;-inkscape-font-specification:News Cycle Bold"
         id="path3470"
         inkscape:connector-curvature="0" />
      <path
         d="m 997.28,67.03 c -4e-5,0.160014 -0.0667,0.293347 -0.2,0.4 -0.1067,0.10668 -0.2267,0.160013 -0.36,0.16 l -5.4,0 0,18.96 c -3e-5,0.159994 -0.0667,0.279994 -0.2,0.36 -0.1067,0.10666 -0.2267,0.159994 -0.36,0.16 l -3.52,0 c -0.37336,-6e-6 -0.56003,-0.173339 -0.56,-0.52 l 0,-36.92 c -3e-5,-0.346635 0.18664,-0.519968 0.56,-0.52 l 3.52,0 c 0.1333,3.2e-5 0.2533,0.05336 0.36,0.16 0.1333,0.106698 0.19997,0.226698 0.2,0.36 l 0,14.12 5.4,0 c 0.1333,1.7e-5 0.2533,0.05335 0.36,0.16 0.1333,0.08002 0.19996,0.186683 0.2,0.32 l 0,2.8 M 977.8,64.59 c -2e-5,-1.226649 -0.12002,-2.386648 -0.36,-3.48 -0.24002,-1.093313 -0.58668,-2.039978 -1.04,-2.84 -0.45335,-0.826643 -1.01335,-1.479976 -1.68,-1.96 -0.66668,-0.479975 -1.42668,-0.719975 -2.28,-0.72 -0.82668,2.5e-5 -1.57334,0.240025 -2.24,0.72 -0.64001,0.480024 -1.18668,1.133357 -1.64,1.96 -0.45334,0.800022 -0.80001,1.746687 -1.04,2.84 -0.24001,1.093352 -0.36001,2.253351 -0.36,3.48 -10e-6,1.200015 0.11999,2.34668 0.36,3.44 0.23999,1.093345 0.58666,2.053344 1.04,2.88 0.45332,0.826676 0.99999,1.493342 1.64,2 0.66666,0.480007 1.41332,0.720007 2.24,0.72 0.85332,7e-6 1.61332,-0.239993 2.28,-0.72 0.66665,-0.506658 1.22665,-1.173324 1.68,-2 0.45332,-0.826656 0.79998,-1.786655 1.04,-2.88 0.23998,-1.09332 0.35998,-2.239985 0.36,-3.44 m -5.36,13.12 c -1.52001,3e-6 -2.89334,-0.306663 -4.12,-0.92 -1.22667,-0.639995 -2.26667,-1.533328 -3.12,-2.68 -0.82667,-1.146659 -1.46667,-2.519991 -1.92,-4.12 -0.45334,-1.599988 -0.68,-3.373319 -0.68,-5.32 0,-1.999982 0.22666,-3.813313 0.68,-5.44 0.45333,-1.626644 1.09333,-2.999975 1.92,-4.12 0.85333,-1.14664 1.89333,-2.026639 3.12,-2.64 1.22666,-0.639971 2.59999,-0.959971 4.12,-0.96 1.54665,2.9e-5 2.91998,0.306696 4.12,0.92 1.22665,0.613361 2.26665,1.49336 3.12,2.64 0.85331,1.120025 1.50665,2.493357 1.96,4.12 0.45331,1.60002 0.67998,3.400018 0.68,5.4 -2e-5,2.000014 -0.22669,3.813346 -0.68,5.44 -0.45335,1.600009 -1.10669,2.973341 -1.96,4.12 -0.85335,1.146672 -1.89335,2.026671 -3.12,2.64 -1.20002,0.613337 -2.57335,0.920003 -4.12,0.92"
         style="font-size:40px;font-weight:bold;fill:#ffffff;fill-opacity:1;-inkscape-font-specification:News Cycle Bold"
         id="path3472"
         inkscape:connector-curvature="0" />
      <path
         d="m 1022.4581,73.23 c 0.053,0.186674 0.013,0.360007 -0.12,0.52 -0.1333,0.160007 -0.32,0.266673 -0.56,0.32 -0.9867,0.266673 -2.24,0.533339 -3.76,0.8 -1.52,0.240006 -3.1067,0.453339 -4.76,0.64 -1.6533,0.186672 -3.28,0.320005 -4.88,0.4 -1.5733,0.05334 -2.92,0.02667 -4.04,-0.08 -1.04,-0.106662 -1.7866,-0.413328 -2.24,-0.92 -0.4533,-0.50666 -0.68,-1.213326 -0.68,-2.12 l 0,-20.8 c 0,-0.133304 0.053,-0.253304 0.16,-0.36 0.1334,-0.133304 0.2667,-0.199971 0.4,-0.2 l 3.44,0 c 0.16,2.9e-5 0.2934,0.0667 0.4,0.2 0.1333,0.106696 0.2,0.226696 0.2,0.36 l 0,19.28 c 0,0.266676 0.053,0.440009 0.16,0.52 0.1067,0.05334 0.2933,0.09334 0.56,0.12 0.96,0.08001 2.04,0.106675 3.24,0.08 1.2267,-0.05333 2.48,-0.146658 3.76,-0.28 1.3067,-0.159991 2.5867,-0.346657 3.84,-0.56 1.28,-0.23999 2.4667,-0.493323 3.56,-0.76 0.2933,-0.05332 0.4933,1e-5 0.6,0.16 0.1333,0.133343 0.2267,0.28001 0.28,0.44 l 0.44,2.24 m 12.4,-6.2 c 0,0.160014 -0.067,0.293347 -0.2,0.4 -0.1067,0.10668 -0.2267,0.160013 -0.36,0.16 l -5.44,0 0,18.96 c 0,0.346661 -0.1733,0.519994 -0.52,0.52 l -3.56,0 c -0.3467,-6e-6 -0.52,-0.173339 -0.52,-0.52 l 0,-36.92 c 0,-0.346635 0.1733,-0.519968 0.52,-0.52 l 3.56,0 c 0.3467,3.2e-5 0.52,0.173365 0.52,0.52 l 0,14.12 5.44,0 c 0.1333,1.7e-5 0.2533,0.05335 0.36,0.16 0.1333,0.08002 0.2,0.186683 0.2,0.32 l 0,2.8"
         style="font-size:40px;font-weight:bold;fill:#ffffff;fill-opacity:1;-inkscape-font-specification:News Cycle Bold"
         id="path3474"
         inkscape:connector-curvature="0" />
    </g>
  </g>
</svg>
